<svg id="checked" xmlns="http://www.w3.org/2000/svg" width="19.466" height="19.466" viewBox="0 0 19.466 19.466">
  <circle id="Ellipse_13" data-name="Ellipse 13" cx="9.733" cy="9.733" r="9.733" transform="translate(0 0)" fill="#32ba7c"/>
  <path id="Path_188" data-name="Path 188" d="M188.8,160.29l5,5a9.727,9.727,0,0,0,7.215-9.4v-.276L197.09,152Z" transform="translate(-181.554 -146.166)" fill="#0aa06e"/>
  <g id="Group_373" data-name="Group 373" transform="translate(3.27 4.805)">
    <path id="Path_189" data-name="Path 189" d="M91.909,203.852a1.15,1.15,0,0,1,0,1.6l-.89.89a1.15,1.15,0,0,1-1.6,0l-3.9-3.93a1.15,1.15,0,0,1,0-1.6l.89-.89a1.15,1.15,0,0,1,1.6,0Z" transform="translate(-85.2 -196.745)" fill="#fff"/>
    <path id="Path_190" data-name="Path 190" d="M171.477,125.522a1.15,1.15,0,0,1,1.6,0l.89.89a1.15,1.15,0,0,1,0,1.6l-6.755,6.724a1.15,1.15,0,0,1-1.6,0l-.89-.89a1.15,1.15,0,0,1,0-1.6Z" transform="translate(-161.36 -125.2)" fill="#fff"/>
  </g>
</svg>
