<svg id="puzzle" xmlns="http://www.w3.org/2000/svg" width="59.549" height="59.549" viewBox="0 0 59.549 59.549">
  <g id="Group_186" data-name="Group 186" transform="translate(9.925 9.925)">
    <g id="Group_185" data-name="Group 185">
      <path id="Path_101" data-name="Path 101" d="M128.632,80h-23.82a.993.993,0,0,0-.992.992v8.932a.992.992,0,0,0,1.306.941l1.248-.416a2.58,2.58,0,1,1,0,4.9l-1.248-.416a.992.992,0,0,0-1.306.941v7.94H95.88a.992.992,0,0,0-.941,1.306l.416,1.248a2.58,2.58,0,1,1-4.9,0l.416-1.248a.992.992,0,0,0-.941-1.306H80.992a.993.993,0,0,0-.992.992v23.82a.993.993,0,0,0,.992.992h47.639a.993.993,0,0,0,.992-.992V80.992A.993.993,0,0,0,128.632,80ZM103.87,119.386a.993.993,0,0,0-.051.313v7.94H81.985V105.8h6.563a4.565,4.565,0,1,0,8.708,0h6.563v7.94a.992.992,0,0,0,1.306.941l1.248-.416a2.58,2.58,0,1,1,0,4.9l-1.248-.416A.993.993,0,0,0,103.87,119.386Zm23.769,8.253H105.8v-6.563a4.565,4.565,0,1,0,0-8.708V105.8h7.94a.992.992,0,0,0,.941-1.306l-.416-1.248a2.58,2.58,0,1,1,4.9,0l-.416,1.248a.993.993,0,0,0,.941,1.306h7.94v21.834Zm0-23.82h-6.563a4.565,4.565,0,1,0-8.708,0H105.8V97.256a4.575,4.575,0,1,0,0-8.708V81.985h21.835Z" transform="translate(-80 -80)" fill="#949dae"/>
    </g>
  </g>
  <g id="Group_188" data-name="Group 188">
    <g id="Group_187" data-name="Group 187">
      <path id="Path_102" data-name="Path 102" d="M28.551,8.548a4.565,4.565,0,0,0-2.746,0V.992A.993.993,0,0,0,24.812,0H.992A.993.993,0,0,0,0,.992v23.82a.993.993,0,0,0,.992.992H8.548a4.565,4.565,0,1,0,8.708,0h7.556a.993.993,0,0,0,.992-.992V17.256a4.565,4.565,0,0,0,2.746-8.708Zm-.572,6.806a2.581,2.581,0,0,1-1.605,0l-1.248-.416a.993.993,0,0,0-1.306.941v7.94H15.88a.992.992,0,0,0-.941,1.306l.416,1.248a2.58,2.58,0,1,1-4.9,0l.416-1.248a.992.992,0,0,0-.941-1.306H1.985V1.985H23.82v7.94a.992.992,0,0,0,1.306.941l1.248-.416a2.58,2.58,0,0,1,1.605,4.9Z" fill="#949dae"/>
    </g>
  </g>
</svg>
