<svg xmlns="http://www.w3.org/2000/svg" width="205.1" height="81.726" viewBox="0 0 205.1 81.726">
  <g id="svgg" transform="translate(-28.9 -69.1)">
    <path id="path1" d="M251.9,71.456c.06,1.018.359,4.252.6,7.246s.539,6.348.659,7.545.24,2.455.24,2.874c.06.419.18,1.8.3,3.054s.359,4.671.6,7.545.539,6.288.659,7.545.24,2.575.24,2.874c.06.3.18,1.617.24,2.874.3,3.713.719,9.1.838,9.941l.12.778,7.964-.12c4.371-.06,8.084-.18,8.2-.24.359-.18.419-1.078.779-10.659.12-3.833.359-8.743.419-10.9.12-2.1.3-6.707.479-10.18.479-11.677.659-14.372.778-14.492a14.167,14.167,0,0,1,2.036-.419c8.863-1.317,14.851-1.078,21.977,1.018,1.677.479,1.617.3.779,5.03-.24,1.5-.539,3.174-.659,3.713-.06.539-.24,1.437-.359,1.976s-.3,1.737-.479,2.755c-.3,1.677-.6,3.593-1.258,7.306-.12.838-.359,2.276-.539,3.174-.12.9-.419,2.575-.659,3.713-.419,2.276-.779,4.431-1.2,6.946-.18.9-.419,2.276-.539,3.054-.3,1.617-.719,4.252-.958,5.809a13.612,13.612,0,0,1-.359,1.8,6.215,6.215,0,0,0-.18,1.377v.6l.838-.06.838-.06.3-1.258c.3-1.2.659-2.934,1.138-5.569.359-1.677,1.317-6.527,1.8-8.743.12-.659.3-1.377.3-1.617.06-.24.3-1.437.6-2.695.24-1.258.539-2.635.659-3.174.06-.479.479-2.455.9-4.431.419-1.916.838-3.892.9-4.371a8.2,8.2,0,0,1,.24-1.2,8.2,8.2,0,0,0,.24-1.2c.06-.479.359-1.916.659-3.174.24-1.258.539-2.695.659-3.174a8.2,8.2,0,0,1,.24-1.2,8.2,8.2,0,0,0,.24-1.2c.24-1.437,1.078-5.389,1.2-5.629s-.12-.359-2.1-.9c-.24-.06-1.2-.359-2.156-.6s-2.156-.6-2.755-.719c-4.791-1.2-13.294-1.018-20.48.359-.719.12-1.8.359-2.455.479l-1.2.24-1.8-.778c-.958-.419-1.916-.838-2.156-.958a60.905,60.905,0,0,0-12.336-3.114c-1.018-.18-2.335-.359-2.874-.479a9.5,9.5,0,0,0-1.737-.18H251.6l.3,1.856m10.959,57.009a8.3,8.3,0,1,0,8.623,12.875c4.252-6.288-1.258-14.552-8.623-12.875" transform="translate(-89.34 -0.201)" fill="#eb5c25" fill-rule="evenodd"/>
    <path id="path2" d="M197.443,85c-.419.24-.6.479-.6.778,0,.6.3.6.6-.06.479-1.018,2.335-.479,2.036.6a10.212,10.212,0,0,0-.24,1.377c-.12,1.2-.18,1.258-1.617,1.677-.6.18-1.5.479-2.1.659-.539.18-1.437.479-1.976.6-5.27,1.557-5.928,1.856-5.928,2.575,0,.659.659.9,3.294,1.2,1.377.18,2.994.359,3.593.479.6.06,2.1.3,3.353.419,1.258.18,2.755.359,3.353.419,2.994.479,5.27.6,5.569.359.9-.719.24-1.317-4.491-4.192a9.45,9.45,0,0,0-.958-.6,2.462,2.462,0,0,0-.719-.419,1.949,1.949,0,0,1-.719-.479,2.426,2.426,0,0,0-.779-.479c-.3,0-.24-.479.06-.659a8.112,8.112,0,0,0,.539-3.653c-.12-.838-1.317-1.2-2.276-.6m3.593,6.767c1.557.958,2.994,1.856,3.114,1.976,2.934,1.677,3.174,2.4.659,2.036-.659-.12-1.8-.24-2.515-.359-.719-.06-2.216-.3-3.413-.419-2.1-.3-2.994-.419-6.228-.778-5.21-.659-5.809-1.018-2.994-1.856.719-.18,1.856-.539,2.515-.778.719-.24,1.976-.659,2.874-.9a11.9,11.9,0,0,0,1.976-.659c.719-.3,1.138-.12,4.012,1.737m-157.373,1.8a4.934,4.934,0,0,0-1.078.24.836.836,0,0,1-.539.18c-1.677,0-5.629,2.335-7.964,4.611a19.08,19.08,0,0,0-3.114,4.072,5.848,5.848,0,0,1-.419,1.018c-1.557,3.533-1.737,11.138-.24,12.815a1.128,1.128,0,0,1,.12.479c0,1.437,3.773,5.928,6.408,7.605a20.342,20.342,0,0,0,13.414,2.575A25.1,25.1,0,0,0,57.2,125l1.5-.719v-2.515l-1.437.719a7.961,7.961,0,0,1-1.677.719.647.647,0,0,0-.419.18,9.055,9.055,0,0,1-1.138.479c-.539.18-1.138.359-1.377.479-2.515,1.018-8.863,1.018-11.318,0a16.825,16.825,0,0,1-5.509-3.533,23.843,23.843,0,0,1-2.515-3.533,8.459,8.459,0,0,0-.359-.9c-1.557-3.353-1.377-8.863.359-12.635C37.076,95.66,46.6,93.265,56.778,98c1.677.778,1.737.719,1.677-.719l-.06-1.078-.838-.419a24.758,24.758,0,0,0-4.491-1.557,17.042,17.042,0,0,1-1.677-.479,76.4,76.4,0,0,0-7.725-.18m18.2,16.887V127.1h2.156V93.8H61.868v16.648m71.381-11.557-.719.9v2.575c0,3.174.24,2.994-3.174,2.994H126.6v1.557l2.934.06,2.934.06.06,8.743c.12,9.941.06,9.521,1.8,10.779a7.172,7.172,0,0,0,5.09.719c.24-.06.9-.3,1.437-.479l1.018-.3v-2.036l-.958.359c-1.916.659-2.934.838-4.012.539-2.276-.539-2.276-.539-2.216-10.48l.06-7.725,2.994-.06,2.994-.06v-1.557l-2.994-.06-2.994-.06-.06-3.653c-.06-4.312-.12-4.491-1.437-2.815m-57.967,6.168c-3.054.778-7.485,4.431-7.485,6.228a.647.647,0,0,1-.18.419c-1.2,1.317-.958,7.126.419,9.821a9.061,9.061,0,0,0,1.737,2.515c5.27,5.869,15.51,3.952,18.384-3.413,3.473-8.743-4.012-17.785-12.875-15.57m21.079,0c-5.389,1.437-6.707,7.306-2.216,10.12a17.917,17.917,0,0,0,2.874,1.437c.12,0,1.258.539,2.934,1.317,3.533,1.677,3.952,4.791.958,6.647-1.976,1.2-4.731.958-8.863-.838l-.659-.3v.958c0,1.078.18,1.317,1.617,1.916a9.792,9.792,0,0,0,8.563.18,5.683,5.683,0,0,0-.06-10.36c-1.437-.659-2.575-1.2-2.695-1.2s-1.437-.6-2.695-1.2c-4.371-2.156-2.874-6.946,2.156-6.946a8.717,8.717,0,0,1,5.03,1.5c.838.6,1.018.479,1.018-.659,0-.9-.24-1.5-.6-1.5a5.848,5.848,0,0,1-1.018-.419,10.324,10.324,0,0,0-6.348-.659m17.785.06c-3.353.9-5.629,3.174-6.946,6.946-.419,1.138-.479,6.946-.12,7.306a1.064,1.064,0,0,1,.24.6c0,.24.06.419.18.479a1.337,1.337,0,0,1,.3.6c.539,2.156,3.653,5.03,6.288,5.809.419.12.9.3,1.138.359,2.156.838,7.006-.24,10.06-2.156l.778-.479v-1.2c0-1.377.06-1.317-1.258-.419a14.456,14.456,0,0,1-5.569,2.276c-3.294.719-7.605-1.5-9.222-4.791-.838-1.677-1.317-4.791-.778-5.09.12-.06,4.072-.18,8.743-.18h8.5v-.6a9.873,9.873,0,0,0-12.336-9.462m34.253-.24c-3.353.659-5.509,2.934-5.509,5.809a4.691,4.691,0,0,0,.18,1.617,8.337,8.337,0,0,0,.359.778c.539,1.138,2.455,2.575,4.671,3.413,4.731,1.856,6.108,2.994,6.108,5.03,0,2.455-3.114,4.431-5.928,3.773-.359-.12-1.078-.24-1.617-.359a12.53,12.53,0,0,1-3.114-1.138l-.838-.419v2.276l1.138.539a8.014,8.014,0,0,0,1.377.539.956.956,0,0,1,.479.18,8.768,8.768,0,0,0,3.473.539c5.21,0,8.563-4.312,6.527-8.563-.419-.838-2.515-2.755-3.054-2.755-.06,0-.6-.24-1.258-.539a8.3,8.3,0,0,0-1.317-.539,22.74,22.74,0,0,1-4.252-2.276c-.838-.838-1.377-2.695-.838-3.054a.466.466,0,0,0,.18-.419,2.6,2.6,0,0,1,.6-.958c1.976-2.1,5.509-2.036,9.162.24l.659.419-.06-1.2c-.06-1.317,0-1.258-1.557-1.976a9.45,9.45,0,0,0-5.569-.958M80.731,107.4c6.946,2.335,8.144,12.336,1.916,16.588a9.8,9.8,0,0,1-5.27,1.377c-3.713-.6-5.928-2.156-7.366-5.09l-.659-1.377V116.2a15.331,15.331,0,0,1,.18-3.174c.12-.24.419-.9.719-1.437.838-1.737,3.773-4.252,5.03-4.252a1.365,1.365,0,0,0,.659-.18c.539-.419,3.413-.24,4.791.24m38.445-.12a7.1,7.1,0,0,1,4.371,5.449l.12.659H116.6c-7.845,0-7.366.06-7.006-.958,1.557-4.371,5.629-6.587,9.581-5.15m11.977,27.906c-.419.479-.479.719-.479,1.976V138.6h-1.617c-1.617,0-1.617,0-1.557.419.06.359.18.419,1.557.479l1.557.12.06,4.791c.12,4.791.18,5.27.778,5.809,1.138,1.018,4.431.778,4.431-.3a.457.457,0,0,0-.838-.3c-.06.12-.6.18-1.258.18-1.916,0-1.916,0-1.856-5.569l.06-4.611,1.677-.06c1.617-.06,1.677-.06,1.677-.479s0-.419-1.737-.419h-1.737V136.8c.12-2.216,0-2.455-.719-1.617m9.7,3.294c-5.509.838-6.467,9.342-1.377,11.8,4.132,1.976,8.5-.958,8.5-5.689.06-4.192-2.874-6.707-7.126-6.108m18.2.359c-3.892,1.078-4.551,5.689-1.078,7.605.838.479.838.6-.18,1.138-1.5.719-1.557,2.036-.18,2.695.719.359.719.479,0,.719-2.515.958-3.353,2.695-2.036,4.312,1.916,2.276,8.384,1.916,9.7-.539,1.317-2.515-.539-4.312-4.611-4.551-2.455-.12-3.294-.659-2.874-1.8.18-.539.539-.719,2.455-1.2,4.012-1.078,5.569-4.192,3.413-6.707-.719-.838-.6-.958.719-.958,1.138,0,1.2,0,1.2-.479V138.6h-2.815a22.16,22.16,0,0,0-3.713.24m-14.611,1.258c3.533,2.1,3.294,7.665-.419,9.282a4.969,4.969,0,0,1-6.647-3.353c-1.138-4.312,3.353-8.084,7.066-5.928m17.366-.12a3.279,3.279,0,1,1-3.413.06,3.621,3.621,0,0,1,3.413-.06m25.75,8.5a1.222,1.222,0,1,0,.838-.06,1.316,1.316,0,0,0-.838.06m-24.432,3.174c3.533,1.617-.539,5.389-4.491,4.132a3.549,3.549,0,0,0-1.018-.24,1.928,1.928,0,0,1-.838-3.353c.9-.9,4.91-1.2,6.348-.539" transform="translate(-0.152 -6.26)" fill="#282328" fill-rule="evenodd"/>
    <path id="path3" d="M162.26,69.22a6.057,6.057,0,0,0,.06,1.377l.18,1.258-.06-1.258-.06-1.258,1.2.12c.659.06,1.617.12,2.156.18,1.437.12.9,0-.958-.24-.9-.12-1.8-.24-2.036-.3-.18,0-.419,0-.479.12m5.928.9a7.372,7.372,0,0,0,1.2.12h.6l-.719-.12c-.958-.18-1.856-.18-1.078,0m2.4.359a9.476,9.476,0,0,0,1.258.24c1.078.12.359-.12-.838-.3-.539-.06-.719-.06-.419.06m3.294.719c.659.18,1.317.359,1.437.359s-.24-.18-.9-.359-1.317-.359-1.437-.359c-.18.06.24.18.9.359m2.575.719a3.227,3.227,0,0,0,.6.18c.18,0,.12-.06-.06-.18a3.228,3.228,0,0,0-.6-.18c-.18.06-.18.12.06.18m1.2.359a2,2,0,0,0,.719.3c.3.06.359.06.18-.06a2,2,0,0,0-.719-.3c-.359-.06-.359-.06-.18.06m-14.971,2.1c.06,1.078.18,2.335.24,2.815.18,1.018,0-2.1-.18-3.713-.12-.778-.12-.479-.06.9m31.379-1.258c-1.078.12-1.437.18-.719.18a74.818,74.818,0,0,1,11.737,0,8.989,8.989,0,0,0,2.156.18c.06-.06,0-.12-.06-.12-.12,0-.958-.12-1.976-.24a57.589,57.589,0,0,0-11.138,0m-14.013.06a.427.427,0,0,0,.359.18,9.192,9.192,0,0,1,1.8.719c1.557.719,2.1.838,2.934.539.3-.12.18-.12-.479-.06a3.7,3.7,0,0,1-2.335-.6c-1.5-.719-2.4-1.018-2.276-.778m9.162.539-.719.12h.719a7.475,7.475,0,0,0,1.258-.12l.539-.12h-.539a10.973,10.973,0,0,0-1.258.12m18.624,0a4.043,4.043,0,0,0,.838.12c.3,0,.24,0-.12-.12a4.122,4.122,0,0,0-.778-.12c-.3,0-.3,0,.06.12m-20.839.359a5.1,5.1,0,0,0-1.018.24c-.3.18,1.557-.12,1.916-.24.539-.18.12-.18-.9,0m22.277,0c.359.24,1.617.419,1.258.24a2.219,2.219,0,0,0-.9-.3c-.419-.06-.539-.06-.359.06m2.874.838a4.385,4.385,0,0,0,.958.24c.18,0,0-.12-.479-.24-.958-.359-1.317-.359-.479,0m1.856.539a3.364,3.364,0,0,0,.9.24h.359l-.359-.12a9.256,9.256,0,0,0-.9-.24l-.539-.12.539.24m-20.9.419c-1.018.12-1.976.18-2.1.24s.479.06,1.317,0c1.856-.12,8.5-.12,10.06,0,.958.06,1.018.06.419-.06a70.594,70.594,0,0,0-9.7-.18m21.857.719c-.3,1.5-.3,1.737-.24,1.617a8.675,8.675,0,0,0,.419-2.1c-.06-.06-.12.18-.18.479m-26.648-.18-.719.12h.659a9.791,9.791,0,0,0,1.317-.12l.719-.12h-.659a11.9,11.9,0,0,0-1.317.12m15.989,0a2.045,2.045,0,0,0,.9.12h.539l-.539-.12a6.228,6.228,0,0,0-.9-.12h-.359l.359.12m-18.684.6a3.426,3.426,0,0,0,0,1.138l.06.9.06-1.018c.06-.958.06-1.018.539-1.078l.479-.06h-.479c-.359-.12-.6,0-.659.12m21.857.12c.659.18,1.317.359,1.437.359s-.24-.18-.9-.359-1.317-.359-1.437-.359c-.18.06.24.18.9.359m1.976.539a4.294,4.294,0,0,0,.838.3c.359.06.419.06.3-.06a4.294,4.294,0,0,0-.838-.3c-.359-.06-.479-.06-.3.06m-11.857.6c0,.06.3.12.719.12.359.06.659,0,.6-.06a2.51,2.51,0,0,0-1.317-.06m-34.433,1.2c0,.659.06.9.06.6a4.009,4.009,0,0,0,0-1.2c-.06-.3-.06-.06-.06.6m51.26-.24a4.989,4.989,0,0,0-.06.719c.06.06.12-.24.18-.6a4.987,4.987,0,0,0,.06-.719c-.06,0-.12.24-.18.6m-3.653.359a8.133,8.133,0,0,0-.06.9c.06.06.12-.3.24-.719a8.13,8.13,0,0,0,.06-.9c-.06-.06-.12.24-.24.719m-13.174-.359c-.24.18-.419.359-.419.479s.18,0,.359-.18a.679.679,0,0,1,.778-.24c.3.06.359.06.12-.06-.3-.359-.359-.359-.838,0m-12.156,1.617c0,1.018.06,1.377.06.838a9,9,0,0,0,0-1.8c-.06-.479-.06-.06-.06.958m28.624-.12a4.623,4.623,0,0,0-.12.9c0,.3.06.24.18-.24.18-.778.12-1.377-.06-.659M163.4,82.454c.18,3.413.359,4.851.359,3.593,0-.6-.12-2.036-.24-3.234l-.24-2.156.12,1.8m35.271-.359c-.12.359-.12.6-.06.479.18-.18.419-1.138.3-1.138,0,0-.12.3-.24.659m11.737.06c0,.359.06.479.06.3a1.015,1.015,0,0,0,0-.6c-.06-.18-.06-.06-.06.3m-10.839.24c-.06.359,0,.6.06.539a1.6,1.6,0,0,0,.12-.659c-.12-.539-.12-.479-.18.12m-14.312,2.815c0,1.437,0,2.036.06,1.317a19.342,19.342,0,0,0,0-2.635c-.06-.659-.06-.12-.06,1.317m28.265-1.737a1.944,1.944,0,0,0-.06.778c.12.12.359-.778.24-1.138q-.09-.269-.18.359m-3.653,1.138a8.133,8.133,0,0,0-.06.9c.06.06.12-.3.24-.719a8.131,8.131,0,0,0,.06-.9c-.06-.06-.12.24-.24.719m-10.24.359a4.994,4.994,0,0,0,.719.479l.359.18-.359-.3a5,5,0,0,0-.719-.479l-.359-.18.359.3m13.414.9a2.783,2.783,0,0,0-.12,1.078c.06.06.12-.18.18-.479s.18-.778.24-1.078.06-.539,0-.539a3.426,3.426,0,0,0-.3,1.018m-25.45.3c-.359.419-.359.419,0,.12a2.023,2.023,0,0,1,.659-.419c.24-.06.24-.12,0-.12a1.029,1.029,0,0,0-.659.419m21.917.778a8.134,8.134,0,0,0-.06.9c.06.06.12-.3.24-.719a8.134,8.134,0,0,0,.06-.9c-.06-.12-.18.24-.24.719m-21.259-.3c-.419.3.12.719.838.719.6,0,.6-.06.12-.12-.9-.12-1.078-.18-.778-.479.24-.3.18-.359-.18-.12M50.278,87.3a1.015,1.015,0,0,0,.6,0c.18-.06.06-.06-.3-.06s-.479.06-.3.06m11.378.06c-.06.06.479.12,1.138.12s1.2-.06,1.138-.12a3.336,3.336,0,0,0-1.138-.12c-.539-.06-1.078,0-1.138.12m102.161.539c0,.419.06.6.06.419a1.7,1.7,0,0,0,0-.778c0-.24-.06-.06-.06.359m48.8.12a4.99,4.99,0,0,0-.06.719c.06.06.12-.24.18-.6a4.987,4.987,0,0,0,.06-.719c-.06,0-.12.24-.18.6M40.7,87.724c-.359.24.12.24.6,0l.359-.18H41.3a2.281,2.281,0,0,0-.6.18m11.677,0c.6.18,1.078.18.659,0a1.519,1.519,0,0,0-.719-.12c-.3,0-.3,0,.06.12m139.169-.06a1.015,1.015,0,0,0,.6,0c.18-.06.06-.06-.3-.06s-.479.06-.3.06M64.111,104.192l-.06,16.588-1.317.06-1.317.06,1.317.06c.9,0,1.317-.06,1.377-.18s.06-7.605.06-16.648l-.06-16.468v16.528M39.679,88.083c-.6.24-.479.359.12.12.3-.12.539-.24.539-.24,0-.06-.24-.06-.659.12m14.073,0a2.7,2.7,0,0,0,.659.18c.18,0,.12-.06-.12-.18a3.226,3.226,0,0,0-.6-.18c-.24.06-.18.12.06.18m131.324.838c0,.6.06.838.06.479a3.256,3.256,0,0,0,0-1.078c-.06-.3-.06,0-.06.6m3.593-.838c.778.18,1.437.18.838,0a4.622,4.622,0,0,0-.9-.12c-.419,0-.419,0,.06.12m17.366-.12c0,.06.24.24.6.479s.479.3.3.12c-.24-.3-.9-.719-.9-.6m-10.48.24a1.454,1.454,0,0,0,.719,0c.18-.06,0-.06-.419-.06s-.539.06-.3.06m-4.192.24c.359.12,1.677.24,1.5.12a3.706,3.706,0,0,0-.958-.18c-.539-.06-.778,0-.539.06M38.122,88.8a4.2,4.2,0,0,0-.659.419A11.343,11.343,0,0,0,39.08,88.5c.18-.18-.359,0-.958.3m160.607-.18c.9.18,1.617.18.9,0a6.6,6.6,0,0,0-1.078-.12c-.419,0-.419,0,.18.12m-142.582.24c0,.06.24.18.6.3.3.12.479.12.419.06-.24-.24-1.018-.479-1.018-.359M164,89.7c0,.539.06,1.5.12,2.1l.12,1.078v-.9c0-.479-.06-1.437-.12-2.1l-.12-1.2V89.7m30.96-.778a1.015,1.015,0,0,0,.6,0c.18-.06.06-.06-.3-.06s-.479.06-.3.06m6.108,0a1.015,1.015,0,0,0,.6,0c.18-.06.06-.06-.3-.06s-.479.06-.3.06m1.317.18a1.454,1.454,0,0,0,.719,0c.18-.06,0-.06-.419-.06-.359,0-.539.06-.3.06m-4.192.24c.359.12,1.856.24,1.677.12a4.541,4.541,0,0,0-1.078-.18c-.539-.06-.778,0-.6.06m7.366,0-.719.12h.659c.359,0,.719-.06.779-.18a.464.464,0,0,0,.06-.18c0,.12-.359.18-.779.24m3.413.659a8.132,8.132,0,0,0-.06.9c.06.06.12-.3.24-.719a8.131,8.131,0,0,0,.06-.9c-.06-.06-.12.24-.24.719m3.294-.419a4.044,4.044,0,0,0-.12.838q0,.359.18-.359c.18-.838.12-1.2-.06-.479m-176.715.958a2.788,2.788,0,0,0-.9.838,4.386,4.386,0,0,0,.958-.659c1.138-.9,1.2-.958,1.078-.958a4.848,4.848,0,0,0-1.138.778m7.066-.659c-.479.18,0,.18.6,0,.359-.12.359-.12.12-.12a2.573,2.573,0,0,0-.719.12m7.186,0c.778.18,1.437.18.778,0a4.621,4.621,0,0,0-.9-.12c-.419,0-.359,0,.12.12m151.864-.06a1.454,1.454,0,0,0,.719,0c.18-.06,0-.06-.419-.06-.359,0-.539.06-.3.06m-160.487.539c-.479.24-.479.24-.06.12.539-.12,1.078-.419.838-.419a3.32,3.32,0,0,0-.778.3m10.48-.12a1.012,1.012,0,0,0,.6.18c.479,0,.3-.12-.359-.24-.359-.06-.419-.06-.24.06m153.3.06a1.676,1.676,0,0,0,1.317,0c.12-.06-.18-.12-.659-.12-.479-.06-.778,0-.659.12M55.249,91.436a2.852,2.852,0,0,0,1.078.359,4.571,4.571,0,0,0-1.617-.719c-.24-.06,0,.12.539.359M184.716,94.91c-.06,1.976-.12,3.713-.06,3.713a66.777,66.777,0,0,0,.24-7.126c0-.12-.06,1.377-.18,3.413m23.953-2.994a6.507,6.507,0,0,0-.24,2.276,11.867,11.867,0,0,0,.419-2.814q-.09,0-.18.539m2.994.419a4.986,4.986,0,0,0-.06.719c.06.06.12-.18.24-.539a4.989,4.989,0,0,0,.06-.719c-.06-.06-.12.18-.24.539m-174.2,0c-.3.24-.659.539-.659.539-.06.06-.06.06,0,.12s.419-.18.778-.539c.778-.719.719-.778-.12-.12m-1.976,1.856a11.166,11.166,0,0,0-.9,1.138c.06.06.479-.479,1.018-1.078,1.258-1.437,1.138-1.5-.12-.06m96.592-.778a21.018,21.018,0,0,0-.12,2.755v2.515l-2.874.06-2.874.06h5.869l.06-2.575a9.515,9.515,0,0,1,.24-2.815c.12-.18.12-.24,0-.24-.06-.06-.24.06-.3.24m-99.945.6c-.539.719-.958,1.377-.659,1.018a11.506,11.506,0,0,0,1.258-1.737,2.977,2.977,0,0,0-.6.719m132.342,1.377c.06,1.078.18,2.335.24,2.815.18,1.018,0-2.1-.18-3.713-.12-.778-.12-.479-.06.9m46.769-.719a2.837,2.837,0,0,0-.12,1.078c.06.06.18-.359.3-.958a2.838,2.838,0,0,0,.12-1.078c-.06-.06-.18.359-.3.958m-3.174.539a8.132,8.132,0,0,0-.06.9c.06.06.12-.3.18-.778a8.134,8.134,0,0,0,.06-.9s-.06.3-.18.778m-177.135.539c-.18.24-.3.479-.24.539s.24-.18.359-.479c.419-.659.3-.719-.12-.06m179.889,1.018a6.185,6.185,0,0,0-.06.838c.06.06.12-.24.18-.659a6.182,6.182,0,0,0,.06-.838c-.06-.06-.12.24-.18.659m-3.054.3a4.62,4.62,0,0,0-.12.9c0,.3.06.24.18-.24.18-.778.12-1.377-.06-.659m2.635,1.437a6.185,6.185,0,0,0-.06.838c.06.06.12-.24.18-.659a6.185,6.185,0,0,0,.06-.838,1.671,1.671,0,0,0-.18.659m-135.1,0c-.24.12-.12.12.479.06a3.655,3.655,0,0,0,.9-.18c.12-.12-1.078,0-1.377.12m3.713-.12a3.036,3.036,0,0,0,.9.18c.539.06.719.06.479-.06-.419-.12-1.557-.24-1.377-.12m17.127.12c-.24.12-.12.12.359.06.419-.06.778-.12.778-.18.18-.12-.778,0-1.138.12m2.994-.12a2.938,2.938,0,0,0,.778.18c.479.06.659.06.479-.06-.3-.12-1.437-.24-1.258-.12m15.15.12c-.24.12-.12.12.479.06a3.655,3.655,0,0,0,.9-.18c.12-.12-1.018,0-1.377.12m3.353-.12a3.036,3.036,0,0,0,.9.18c.539.06.719.06.479-.06-.419-.12-1.557-.24-1.377-.12m30,.12c-.18.12-.06.12.479.06.9-.12,1.018-.24.359-.24a2.191,2.191,0,0,0-.838.18m2.874-.12a3.037,3.037,0,0,0,.9.18c.539.06.719.06.479-.06-.419-.12-1.557-.24-1.377-.12m-76.83.6c-.719.3-.359.3.479,0,.359-.12.479-.24.359-.24a1.8,1.8,0,0,0-.838.24m21.318-.12c-.6.24-.479.359.12.12.3-.12.539-.24.539-.24,0-.06-.18-.06-.659.12m5.869-.12a3.107,3.107,0,0,0,.719.3c.359.12.539.12.479.06a1.618,1.618,0,0,0-.719-.3c-.3-.12-.479-.12-.479-.06m36.768.12,2.934.06.06.958.06.958V98.8l-3.054.06-2.934-.06,2.934.06m8.743,0c-.6.24-.479.359.12.12.3-.12.539-.24.539-.24.06-.06-.18-.06-.659.12m6.108-.12c0,.06.24.18.6.3.3.12.479.12.419.06-.24-.18-1.018-.479-1.018-.359M126.09,99.82a2.534,2.534,0,0,0,.12.958c.06.06.12-.18.06-.6q-.18-1.707-.18-.359m-96.771-.06a3.557,3.557,0,0,0-.06.659c.06.06.12-.18.18-.479.18-.778,0-.9-.12-.18m63.835.419c-.539.539-.659.659-.24.3s.958-.778,1.2-.958.359-.3.24-.3a4.449,4.449,0,0,0-1.2.958m52.039-.6c-.3.18-.479.359-.359.359.18,0,1.138-.719,1.018-.719a3.988,3.988,0,0,0-.659.359m19.761.9c0,.659.06.9.06.6a4.011,4.011,0,0,0,0-1.2c-.06-.3-.06,0-.06.6M83.274,99.64a11.188,11.188,0,0,0,1.018.778,12.4,12.4,0,0,1,1.916,1.677c.719.778.778.838.3.24-.719-.958-3.234-3.054-3.234-2.695m38.744.359c.3.24.9.719,1.377,1.138.659.6.6.539-.12-.24A7.707,7.707,0,0,0,121.9,99.76c-.3-.12-.24,0,.12.24m85.154.479a8.917,8.917,0,0,0-.06,1.018c.06.06.12-.3.24-.838a8.916,8.916,0,0,0,.06-1.018,1.657,1.657,0,0,0-.24.838m-51.679.958.06,1.437-.479-.3-.479-.3.419.359a1.355,1.355,0,0,0,.6.3,7.416,7.416,0,0,0,0-2.815c-.12-.12-.12.539-.12,1.317m-51.38.06c0,.778-.06,1.2-.24,1.258-.12.06-.12.12.06.12.3,0,.3-.18.3-1.258a3.459,3.459,0,0,0-.12-1.258,5.606,5.606,0,0,1,0,1.138m80.3,1.5c-.06,1.557-.18,3.892-.24,5.33a12.764,12.764,0,0,0,0,2.4c.12-.12.539-9.941.419-10.24a13.391,13.391,0,0,0-.18,2.515m25.45-1.976a6.184,6.184,0,0,0-.06.838c.06.06.12-.24.24-.659a6.182,6.182,0,0,0,.06-.838c-.06,0-.18.24-.24.659M109.5,101.2l-.6.659.6-.659c.659-.539.838-.659.659-.659,0-.06-.3.24-.659.659m-11.977-.419a4.852,4.852,0,0,0,1.317,0c.359-.06.06-.06-.659-.06s-1.018.06-.659.06m51.38,0a5.3,5.3,0,0,0,1.377,0c.359-.06.06-.06-.659-.06-.778,0-1.078.06-.719.06m-73.357.24c-.359.12-.359.12-.12.12a3.005,3.005,0,0,0,.719-.12c.479-.18.06-.18-.6,0m3.892,0a1.519,1.519,0,0,0,.719.12c.3,0,.3-.06-.06-.12-.659-.18-1.138-.18-.659,0m20.72,0a2,2,0,0,0,.719.3c.3.06.359.06.18-.06a2,2,0,0,0-.719-.3c-.3-.06-.359-.06-.18.06m14.372,0c-.359.12-.359.12-.06.12a3.005,3.005,0,0,0,.719-.12c.479-.18,0-.18-.659,0m3.593,0a1.012,1.012,0,0,0,.6.18c.479,0,.3-.12-.359-.24-.359-.06-.419-.06-.24.06m13.953,7.9c0,4.491,0,6.348.06,4.072v-8.2c-.06-2.156-.06-.359-.06,4.132m19.522-7.9a2,2,0,0,0,.719.3c.3.06.359.06.18-.06a2,2,0,0,0-.719-.3c-.359-.06-.419-.06-.18.06m-82.16.838c-.419.419-.719.778-.6.778a7.373,7.373,0,0,0,1.5-1.617,6.684,6.684,0,0,0-.9.838m-37.607,1.2a13.909,13.909,0,0,0,.06,2.755c.12,1.078.18.9.12-1.5,0-3.174-.06-3.294-.18-1.258m-2.934,1.2c0,1.437,0,2.036.06,1.317a19.345,19.345,0,0,0,0-2.635c0-.659-.06-.12-.06,1.317m53.416-2.1c.3.24.9.719,1.258,1.018.539.419.479.359-.12-.24a6.042,6.042,0,0,0-1.258-1.018c-.24-.12-.18,0,.12.24m12.1-.06c-.3.3-.838,1.317-.6,1.138a7.433,7.433,0,0,0,.958-1.437c-.06-.06-.24.12-.359.3m8.2-.06a5,5,0,0,0,.719.479l.359.18-.359-.3a5,5,0,0,0-.719-.479l-.359-.18.359.3m9.641.18-.479.479.6-.419c.3-.24.6-.419.6-.479-.06-.12-.24,0-.719.419m33.3.24c-.24.419-.419.778-.419.778.06.06.3-.3.539-.719.6-.958.479-1.018-.12-.06m19.642,1.018c.18,3.413.359,4.851.359,3.593,0-.6-.12-2.036-.24-3.234l-.24-2.156.12,1.8m41.679-1.138a6.669,6.669,0,0,0-.12,1.018c0,.24.12.06.18-.479.18-1.078.12-1.5-.06-.539m-98.508.18c-.479.659-.719,1.018-.6,1.018a3.068,3.068,0,0,0,.659-.838c.3-.419.539-.778.479-.778a2.927,2.927,0,0,0-.539.6m-36.229.359c-.359.3-.778.778-1.018,1.018-.24.3-.18.3.18-.12.3-.3.778-.778,1.078-1.018s.539-.479.479-.479a6.748,6.748,0,0,0-.719.6m137.312.539a2.512,2.512,0,0,0-.12,1.018c.06.06.18-.359.3-.838a2.512,2.512,0,0,0,.12-1.018c-.06-.12-.18.3-.3.838m-66.949.419a4.145,4.145,0,0,0,.06,1.5c.12.6.18.479.18-.778-.06-1.737-.06-1.856-.24-.719m-48.925.539c0,.479.06.659.06.419a4.5,4.5,0,0,0,0-.9c0-.24-.06,0-.06.479m31.8-.3c.12.3.24.539.24.479.06-.06-.24-1.018-.359-1.018-.06,0,0,.24.12.539m19.582.18c0,.419.06.6.06.419a1.979,1.979,0,0,0,0-.838c0-.18-.06,0-.06.419m-53.895.18c0,.359.06.479.06.3a2,2,0,0,0,0-.6c-.06-.12-.06,0-.06.3m115.215,1.2a8.13,8.13,0,0,0-.06.9c.06.06.12-.3.18-.779a8.132,8.132,0,0,0,.06-.9s-.06.3-.18.778m2.755-.06a6.184,6.184,0,0,0-.06.838c.06.06.12-.24.18-.659a6.182,6.182,0,0,0,.06-.838c-.06-.06-.12.24-.18.659m-115.036.3a2.911,2.911,0,0,0,.778.9,4.937,4.937,0,0,0,1.617.838,1.959,1.959,0,0,0-.659-.419,5.187,5.187,0,0,1-1.737-1.557c-.24-.24-.18-.18,0,.24m-5.569.3c.18.838.419,1.377.3.659a2.219,2.219,0,0,0-.3-.9c-.06-.24-.06-.12,0,.24m2.874-.12c.12.6.958,2.036,1.078,1.916.06-.06,0-.24-.18-.419a3.786,3.786,0,0,1-.659-1.138c-.18-.419-.3-.6-.24-.359m15.27.6a4.122,4.122,0,0,0-.12.778q0,.269.18-.359c.24-.719.12-1.138-.06-.419m16.588-.06c0,.359-.06.359-6.887.3-3.773,0-6.887,0-6.827.06s3.174.12,7.006.12h6.887v-.479c0-.24-.06-.479-.12-.479,0,.12-.06.3-.06.479m-56.47.3a3.121,3.121,0,0,0-.12.838c0,.479.06.479.18-.24.18-.778.12-1.138-.06-.6m19.223.18c.12.659.24.779.24.359a1.012,1.012,0,0,0-.18-.6c-.12-.24-.12-.18-.06.24m122.761-.12a4.62,4.62,0,0,0-.12.9c0,.3.06.24.18-.24.18-.778.12-1.317-.06-.659m-82.4,1.078-.06,1.138h-8.623l-8.683.06,8.683.06c7.186.06,8.683,0,8.743-.18a3.743,3.743,0,0,0,0-1.2l-.06-.958v1.078m79.7-.419a7.017,7.017,0,0,0-.24,2.036,8.112,8.112,0,0,0,.419-2.455c-.06,0-.12.18-.18.419M144,108.084a9.292,9.292,0,0,0,.838.838c.18,0,.06-.12-.838-.838l-.778-.838.778.838m-74.794.3a8.918,8.918,0,0,0-.06,1.018c.06.06.12-.359.18-.838a9.586,9.586,0,0,0,.06-1.018c-.06,0-.12.359-.18.838m27.367-.659c0,.06.24.18.6.3.3.12.479.12.419.06-.24-.18-1.018-.479-1.018-.359m-67.309.419a3.006,3.006,0,0,0,.12.719c.18.479.18,0,0-.6-.12-.419-.12-.419-.12-.12m59.7,1.677c0,1.856,0,1.976.18,1.018a12.247,12.247,0,0,0,0-2.1c-.18-.838-.18-.778-.18,1.078m76.651-.9c0,.419.06.6.06.419a1.978,1.978,0,0,0,0-.838c0-.18-.06,0-.06.419m-66.89-.3c0,.06.24.18.6.3.3.12.479.12.419.06-.24-.18-1.018-.479-1.018-.359m7.605.958c0,.6.06.838.06.479a6.468,6.468,0,0,0,0-1.078c0-.24-.06,0-.06.6m44.014-.838a2,2,0,0,0,.719.3c.3.06.359.06.18-.06a2,2,0,0,0-.719-.3c-.359-.06-.419-.06-.18.06m-83.9,1.2c0,.719.06.958.06.6a4.418,4.418,0,0,0,0-1.258c0-.359-.06-.06-.06.659m27.247-.9c0,.12,1.258.9,1.317.778.06-.06-.24-.24-.659-.479-.3-.24-.659-.359-.659-.3m114.377.778a6.184,6.184,0,0,0-.06.838c.06.06.12-.24.24-.659a6.182,6.182,0,0,0,.06-.838c-.06,0-.18.3-.24.659m-121.683.12c0,.419.06.539.06.3a1.454,1.454,0,0,0,0-.719c0-.18-.06,0-.06.419M32.852,110c.12.3.24.539.24.479.06-.06-.24-1.018-.359-1.018-.06,0,0,.24.12.539m119.467-.419a5.481,5.481,0,0,0,.778.419c.719.359.719.359.3,0-.419-.3-1.078-.6-1.078-.419m-50.362.539a11.877,11.877,0,0,1,2.276,2.335c.12.18.24.24.24.12a8.756,8.756,0,0,0-2.335-2.455c-.539-.24-.539-.24-.18,0m63.835.6c0,.539.06,1.437.12,1.976l.12,1.018v-.9c0-.479-.06-1.377-.12-1.976l-.12-1.078v.958m39.583.18a8.913,8.913,0,0,0-.06,1.018c.06.06.12-.3.24-.838a8.915,8.915,0,0,0,.06-1.018,1.657,1.657,0,0,0-.24.838m-136.234-.18a6.667,6.667,0,0,0,.12,1.018c.12.479.12.479.12.06a5.242,5.242,0,0,0-.12-.958c-.12-.479-.12-.479-.12-.12m39.942.9a7.793,7.793,0,0,0,.24,1.258c.12.18.12.18.06-.18-.06-.24-.18-.838-.24-1.258l-.18-.838.12,1.018m39.822-.779a7.122,7.122,0,0,0,1.8.838c.18,0-.419-.359-1.138-.659-.419-.18-.659-.24-.659-.18m58.745,1.258a2.783,2.783,0,0,0-.12,1.078c.06.06.12-.18.18-.479s.18-.778.24-1.078.06-.539,0-.539a3.425,3.425,0,0,0-.3,1.018m-52.637-.719a2.477,2.477,0,0,0,.359.659c.24.3.3.3.18.06-.3-.6-.539-.9-.539-.719m-88.447.719a1.359,1.359,0,0,0,.18.778c.12.18.12.06.06-.479-.12-.838-.24-.958-.24-.3m32.876-.359a2.561,2.561,0,0,0,.719.479c.419.18.719.3.719.3a2.561,2.561,0,0,0-.719-.479c-.419-.24-.719-.359-.719-.3m7.066.24a4.044,4.044,0,0,0,.12.838l.18.359v-.359a5.583,5.583,0,0,0-.12-.838l-.12-.479-.06.479m-20.6.659a2.633,2.633,0,0,0-.06.539c.06.06.12-.12.18-.419a2.632,2.632,0,0,0,.06-.539,1.49,1.49,0,0,0-.18.419m98.089,1.5c0,1.018.06,1.437.06.958a9.609,9.609,0,0,0,0-1.856c-.06-.539-.06-.12-.06.9M69.561,112.875a2,2,0,0,0,.3.719c.12.18.12.12.06-.18a2,2,0,0,0-.3-.719c-.12-.18-.12-.12-.06.18m83.357.18c.838,1.018.838,1.018.659.6a4.055,4.055,0,0,0-.719-.778l-.539-.419.6.6m2.994.06c.12.3.24.539.24.479.06-.06-.24-1.018-.359-1.018a2.554,2.554,0,0,0,.12.539m49.044.359a8.415,8.415,0,0,1-.12,1.078l-.06.6.18-.6a2.381,2.381,0,0,0,.12-1.078l-.06-.479-.06.479m-138.031.12a.966.966,0,0,0,.18.539c.18.24.18.24.18,0a.966.966,0,0,0-.18-.539q-.18-.359-.18,0m40,.18a2,2,0,0,0,.3.719c.12.18.12.12.06-.18a2,2,0,0,0-.3-.719c-.12-.18-.12-.12-.06.18m100.244.479a4.989,4.989,0,0,0-.06.719c.06.06.12-.24.18-.6a4.987,4.987,0,0,0,.06-.719s-.06.24-.18.6m-171.206.419a3.137,3.137,0,0,0,.778.719c.06,0-.24-.3-.6-.719a3.136,3.136,0,0,0-.778-.719c-.06,0,.18.359.6.719m-3.713,0a4.476,4.476,0,0,0,.659.778c.18.12.06-.06-.3-.539-.659-.838-.9-1.018-.359-.24m121.563.539c0,.659.06.9.06.6a4.01,4.01,0,0,0,0-1.2c-.06-.3-.06,0-.06.6m2.515,0c0,1.018,0,1.078.12.539a3.6,3.6,0,0,0,0-1.138c-.12-.419-.12-.3-.12.6m-68.506-.06c-.24.419-.359.778-.3.778a4.754,4.754,0,0,0,.778-1.557,3.62,3.62,0,0,0-.479.778m78.327,0c0,.479.06.659.06.419a2.262,2.262,0,0,0,0-.9c0-.24-.06,0-.06.479m-95.633-.18a10.344,10.344,0,0,0,1.916,2.156c.06-.06-.24-.359-.6-.778a9.355,9.355,0,0,1-1.078-1.258c-.24-.24-.359-.3-.24-.12m40.421.719a9.889,9.889,0,0,0,2.695,2.216c.719.359.419.06-.419-.419a11.943,11.943,0,0,1-1.856-1.5c-.838-.838-.9-.9-.419-.3m93.538.359a8.13,8.13,0,0,0-.06.9c.06.06.12-.3.18-.778a8.13,8.13,0,0,0,.06-.9s-.06.3-.18.778m2.4-.3a8.2,8.2,0,0,0-.12.958c0,.24.12,0,.18-.419s.12-.9.12-.958c-.06-.12-.12.06-.18.419m-169.469.18c.479.419,2.276,1.557,2.036,1.258a13.541,13.541,0,0,0-1.377-.9c-.659-.479-.958-.659-.659-.359m19.7.06c-.6.3-1.078.6-1.078.6a6.635,6.635,0,0,0,1.377-.539c.719-.359,1.2-.6,1.078-.6a6.462,6.462,0,0,0-1.377.539m67.728.3c-.539.419-1.018.778-1.078.838-.24.24.659-.3,1.317-.778.359-.3.778-.479.9-.419s.12,0,.06-.12c-.24-.3-.12-.3-1.2.479m41.5.958a7.756,7.756,0,0,0,.18,1.856c.12.479.12.12.06-1.078-.12-2.036-.24-2.515-.24-.778m-64.374-.419c-.419.838-.419.9,0,.24.24-.3.359-.659.3-.659s-.18.12-.3.419m6.467,0c.24.3.419.539.479.539s-.06-.24-.3-.539-.419-.539-.479-.539c0,0,.12.24.3.539m26.289-.18c0,.479.3,1.258.3.778a3.005,3.005,0,0,0-.12-.719c-.12-.18-.18-.18-.18-.06m-100.125.479c.419.479,1.078.958,1.078.778a3.483,3.483,0,0,0-.778-.659c-.659-.539-.659-.6-.3-.12m20.54-.3c-.6.24-.479.359.12.12.3-.12.539-.24.539-.24,0-.06-.18-.06-.659.12m27.486.479c-.419.359-.719.6-.6.6a4.307,4.307,0,0,0,.9-.6c.838-.778.719-.778-.3,0m8.324-.359c-.359.359-.12,2.4.3,2.575.359.18.359.18.12-.06-.419-.359-.479-2.575-.06-2.4.18.06.24.06.18-.06a.379.379,0,0,0-.539-.06m-4.97.9a14.663,14.663,0,0,1-1.677,1.437c-.6.419-1.018.778-.9.778a10.66,10.66,0,0,0,2.575-2.036,6.191,6.191,0,0,0,.719-.838,4.437,4.437,0,0,0-.719.659m97.849,1.138c0,1.018,0,1.437.06.958a10.244,10.244,0,0,0,0-1.916c-.06-.479-.06-.06-.06.958m-31.678-.958a5.663,5.663,0,0,1-3.892.719l-1.138-.12.9.18c1.737.359,4.192-.24,4.97-1.2.3-.3.3-.3-.838.419m-111.622-.3a2,2,0,0,0,.719.3c.3.06.359.06.18-.06a2,2,0,0,0-.719-.3c-.3-.06-.359-.06-.18.06m60.6.12a3.728,3.728,0,0,1-.719.479c-.3.12-.479.24-.479.3.12.12,1.078-.419,1.377-.719.12-.18.18-.3.12-.3-.06-.06-.18.06-.3.24m42.936-.24c0,.06.24.18.6.3.3.12.479.12.419.06-.24-.18-1.018-.479-1.018-.359m60.063.719c-.06.419-.18,1.018-.18,1.317-.06.419-.06.479.06.18a7.139,7.139,0,0,0,.3-2.276,5.005,5.005,0,0,0-.18.778m-94.975-.539a2.446,2.446,0,0,0,.6.6l.6.539-.539-.6c-.479-.539-.659-.659-.659-.539m23.055.24c0,.24.06.419.18.479q.359.18,0-.539c-.18-.3-.18-.3-.18.06m23.175.24c-.24.3-.359.539-.24.539a1.452,1.452,0,0,0,.479-.539c.18-.3.3-.539.24-.539s-.24.24-.479.539m-74.315-.06c-.3.12-.419.24-.24.24a1.777,1.777,0,0,0,.659-.24c.359-.3.24-.359-.419,0m125.216.359a4.986,4.986,0,0,0-.06.719c.06.06.12-.18.24-.539a4.989,4.989,0,0,0,.06-.719c-.06-.06-.12.18-.24.539m-170.248-.24c.6.419.958.539.539.18a2.467,2.467,0,0,0-.6-.359c-.12-.06-.06.06.06.18m6.108-.06c.6.18,1.078.18.6,0a1.519,1.519,0,0,0-.719-.12c-.24,0-.24,0,.12.12m8.563,0c-.479.18,0,.18.659,0,.359-.12.359-.12.12-.12a2.657,2.657,0,0,0-.778.12m43.475,0a2.7,2.7,0,0,0,.659.18c.18,0,.12-.06-.06-.18a2.7,2.7,0,0,0-.659-.18c-.18.06-.18.12.06.18m8.982.9a17.051,17.051,0,0,1-1.317,1.2c-.419.3-.419.3.12,0a8.1,8.1,0,0,0,1.916-1.617c.539-.719.24-.479-.719.419m-27.786-.539a1.359,1.359,0,0,0,.778.18c.719,0,.539-.12-.359-.24-.419-.06-.6-.06-.419.06m40.062.06a6.151,6.151,0,0,0,1.916.24l1.437.06-1.258-.12c-.719-.06-1.557-.18-1.916-.24-.539-.12-.539-.12-.18.06m3.952-.06c-.6.12-.6.12-.06.12a3.625,3.625,0,0,0,.9-.12c.419-.18.06-.18-.838,0m16.528.06a.9.9,0,0,0,.6.12c.359-.06.359-.06-.18-.18-.359-.06-.539-.06-.419.06m2.4.06-1.377.24,1.2-.06a13.983,13.983,0,0,0,1.617-.24c.539-.24.18-.24-1.437.06m-92.819.06a14.431,14.431,0,0,0,2.276,0c.6-.06.12-.06-1.138-.06s-1.737,0-1.138.06m33.535-.06a1.23,1.23,0,0,0,.659,0c.18-.06.06-.06-.3-.06s-.539.06-.359.06m17.067,0a1.23,1.23,0,0,0,.659,0c.18-.06.06-.06-.3-.06s-.539.06-.359.06m-18.863.24a2.906,2.906,0,0,0,1.018,0c.3-.06.06-.06-.479-.06-.6-.06-.838,0-.539.06m20.241,0a1.978,1.978,0,0,0,.838,0c.24-.06.06-.06-.419-.06-.479-.06-.659,0-.419.06m35.032-.06c0,.479,2.575,2.455,2.815,2.156.06-.06-.24-.24-.659-.419a5.012,5.012,0,0,1-1.437-1.138c-.359-.359-.719-.659-.719-.6m-21.917.3c.6.419.958.539.539.18a1.822,1.822,0,0,0-.659-.359c-.06-.06,0,.06.12.18m43.715.359c-.6.539-.6.539-.06.18.3-.24.6-.479.659-.539.18-.3.06-.24-.6.359M54.47,120c-.479.24-.479.24-.12.12.479-.12,1.078-.419.778-.419a3.676,3.676,0,0,1-.659.3m17.306-.18a4.755,4.755,0,0,0,1.557.778c.06-.06-.3-.24-.719-.479-.479-.24-.838-.359-.838-.3M40.1,120.36a3.47,3.47,0,0,0,.778.24c.12,0,0-.12-.359-.24-.838-.3-1.138-.3-.419,0m12.935.06c-.24.12-.24.18-.12.18a1.817,1.817,0,0,0,.659-.18c.24-.12.24-.18.12-.18-.18.06-.479.12-.659.18m113.718,1.018c0,.6.06.838.06.479a3.252,3.252,0,0,0,0-1.078c-.06-.24-.06,0-.06.6m36.828-.12a3.726,3.726,0,0,0-.06,1.078c.12.12.359-1.5.24-1.8,0-.12-.06.18-.18.719M41.6,120.779a1.012,1.012,0,0,0,.6.18c.479,0,.3-.12-.359-.24-.359-.06-.419-.06-.24.06m9.821,0-.539.12h.6c.3,0,.6-.06.659-.18.12-.12.06-.12-.719.06m22.456,0c.18.18,1.5.479,1.317.3a4.174,4.174,0,0,0-.778-.3c-.359-.06-.6-.06-.539,0m7.186.12c-.719.24-.719.24-.06.12a2.355,2.355,0,0,0,.778-.24c.18-.18.18-.18-.719.12m19.282,0c-.6.24-.6.24-.06.18a1.618,1.618,0,0,0,.719-.3c.18-.18.12-.18-.659.12m105.394.359a4.988,4.988,0,0,0-.06.719c.06.06.12-.18.24-.539a4.99,4.99,0,0,0,.06-.719c-.06-.06-.12.18-.24.539m-22.157.659c0,.778-.12,1.078-.359,1.2-.3.18-.3.18,0,.18.419,0,.539-.3.419-1.437l-.06-.958v1.018m-138.39-.539a25.979,25.979,0,0,0,3.054,0c1.437-.12,1.317-.18-1.5-.18-2.755.06-2.934.06-1.557.18m31.379.06a7.632,7.632,0,0,0,2.335,0c1.138-.12,1.078-.18-1.078-.18-2.1,0-2.216,0-1.258.18m19.881-.06a6.509,6.509,0,0,0,2.156,0c1.018-.12.9-.18-1.078-.18-1.856.06-1.976.06-1.078.18m19.821.06a7.632,7.632,0,0,0,2.335,0c1.138-.12,1.078-.18-1.138-.18-2.036,0-2.156,0-1.2.18m20.061-.06a9.607,9.607,0,0,0,1.856,0c.958-.12.9-.18-.838-.18-1.557.06-1.737.06-1.018.18m11.677,0a12.247,12.247,0,0,0,2.1,0c.9-.12.838-.18-1.018-.18-1.856.06-1.976.06-1.078.18m57.368,1.677a4.986,4.986,0,0,0-.06.719c.06.06.12-.24.18-.6a4.987,4.987,0,0,0,.06-.719s-.06.24-.18.6m-38.445.06c0,.359.12.479.659.479.6,0,.6,0,.06-.06-.419-.06-.6-.18-.719-.419h0m7.366.359a20.225,20.225,0,0,0,2.695,0c.719-.06.06-.06-1.377-.06-1.557,0-2.1,0-1.317.06m28.924.659c0,.419.06.539.06.3a1.454,1.454,0,0,0,0-.719c-.06-.18-.06,0-.06.419m1.856.24c-.06.3-.24.419-.778.479l-.719.06h.778q1.168.09.9-.719-.09-.18-.18.18M173.7,127.965a2.887,2.887,0,0,0-.9.24c-.06.06.24.06.659,0a12.042,12.042,0,0,1,3.593,0c.539.12.719.06.539-.06a13,13,0,0,0-3.892-.18m-42.637.539-.419.479.479-.419c.359-.3.479-.359.719-.18.18.18.24.18.18-.06-.18-.419-.479-.359-.958.18m40.122.419c-1.976,1.138-3.773,3.473-4.012,5.27-.12.719-.12.659.12-.12a8.7,8.7,0,0,1,4.671-5.389c.419-.18.659-.359.479-.359a9.927,9.927,0,0,0-1.258.6m7.9,0A10.8,10.8,0,0,1,181.3,130.6c.659.659.9.838.659.479-.719-1.018-3.114-2.755-3.833-2.755-.12,0,.3.3.958.6m-48.565.24a6.016,6.016,0,0,0-.12,1.5v1.377l-1.557.06-1.557.06v1.258l1.557.06,1.557.06v4.611c0,2.515.06,4.731.12,4.851.12.24.12-9.042-.06-9.4-.06-.18-.539-.24-1.617-.24h-1.557v-1.078l1.557-.06,1.557-.06.06-1.557c.06-.838.06-1.557.06-1.557.12,0,.06.06,0,.12m9.641,2.934a4.744,4.744,0,0,0-.539.24c-.12.12.778-.06,1.437-.3.24-.12-.479-.06-.9.06m3.413.12a2.838,2.838,0,0,0,.958.18,4.1,4.1,0,0,0-1.557-.419c-.18,0,.12.12.6.24m53.536,0c-5.809,1.5-6.168,10.6-.479,12.276,2.216.659,5.509.06,5.389-1.018-.06-.479-.12-.6-.3-.6-5.09,1.2-7.665-.3-7.605-4.491,0-4.132,3.174-6.048,7.306-4.371.3.12.3.06.3-.659-.06-.778-.06-.778-.9-1.018a8.813,8.813,0,0,0-3.713-.12m10.3,0c-7.246,1.557-6.048,12.4,1.377,12.4,7.605,0,8.563-11.078,1.078-12.456a3.85,3.85,0,0,0-2.455.06m12.995.06a4.6,4.6,0,0,0-1.737,1.138l-.778.778v-1.916h-1.437v12.456h1.437V135.75l.719-.838c1.976-2.276,4.551-2.036,5.629.539.24.6.3,1.5.419,4.97l.06,4.252h1.2v-8.563l.539-.719c1.5-2.036,2.994-2.575,4.611-1.617,1.437.838,1.617,1.437,1.677,6.527l.06,4.371H234v-4.611c0-4.551,0-4.611-.479-5.569a4.145,4.145,0,0,0-7.306-.539c-.479.719-.719.778-1.018.12-.6-1.557-2.874-2.455-4.791-1.8m-86.771,0,1.557.06v1.078l-1.677.06-1.677.06h3.473v-1.258h-1.677l-1.557-.06,1.557.06m25.271,0a10.718,10.718,0,0,0,2.635.06c4.252-.06,4.671-.18.958-.18a32.715,32.715,0,0,0-3.593.12m-21.139,1.258-.659.659.659-.539c.359-.3.719-.6.778-.659.12-.06.12-.12.06-.12-.12-.06-.479.3-.838.659m19.043-.24a2.818,2.818,0,0,0-.719.838l-.18.359.359-.359a11,11,0,0,1,.838-.838c.6-.6.419-.6-.3,0m7.605.06a5.469,5.469,0,0,0-1.2.18c-.18.18,2.1,0,2.276-.18.12-.06.12-.12.06-.12,0,0-.539.06-1.138.12m-23.115.18a4.416,4.416,0,0,0,1.258,0c.359-.06.12-.06-.6-.06-.719-.06-1.018,0-.659.06m17.666,0c-.18.12.06.12.659.06,1.2-.12,1.377-.18.419-.24a6.355,6.355,0,0,0-1.078.18m51.979.419c4.012,1.976,3.234,8.444-1.138,9.342a4.678,4.678,0,0,1-5.629-3.892c-.719-4.192,3.114-7.306,6.767-5.449m-71.021-.12c-.24.12-.359.24-.3.24a3.05,3.05,0,0,0,.659-.24c.24-.12.359-.24.24-.24a2.023,2.023,0,0,0-.6.24m43.415.24a13.834,13.834,0,0,1-.18,5.03c-.18.419-.3.838-.24.838.539.539,1.078-5.27.539-6.108-.24-.3-.24-.3-.12.24m-36.409.479c.3.419.6.778.659.719a4.981,4.981,0,0,0-1.078-1.5,3.023,3.023,0,0,0,.419.778m11.018-.419a2.687,2.687,0,0,0-.659.778c-.18.359-.18.359.18-.06a4.787,4.787,0,0,1,.778-.778c.24-.18.359-.359.3-.359a2.685,2.685,0,0,0-.6.419m5.749.12a6.305,6.305,0,0,1,.419.659c.12.18.18.24.18.12a1.432,1.432,0,0,0-.419-.659c-.18-.18-.24-.24-.18-.12m-24.971.419-.539.6.539-.419.6-.479c.06,0,.06-.06,0-.12-.06-.12-.3.12-.6.419m6.408.06c.359.419.719.778.778.9s.06,0,0-.18a8.089,8.089,0,0,0-.778-.9l-.6-.539.6.719m16.887-.479a.159.159,0,0,0,.18.18,1.926,1.926,0,0,1,.479.6c.18.359.359.6.419.539a5.768,5.768,0,0,0-.958-1.5c-.12,0-.12.12-.12.18m4.91,2.1c0,.778.06,1.078.06.659a5.765,5.765,0,0,0,0-1.437c-.06-.359-.06,0-.06.778m-10.06-.719a3.629,3.629,0,0,0,0,1.8c.06.12.12-.3.12-.958.06-1.2.06-1.258-.12-.838m7.545,1.078c0,.719.06,1.2.12,1.018a4.372,4.372,0,0,0,0-2.156c-.06-.06-.12.419-.12,1.138m-26.888-.359a1.223,1.223,0,0,0-.12.539c.06.06.18-.18.24-.479.3-.659.18-.719-.12-.06m10.3-.3a1.339,1.339,0,0,0,.18.6c.12.24.18.24.18.12a1.818,1.818,0,0,0-.18-.659c-.12-.18-.18-.18-.18-.06m-11.977.3a2.547,2.547,0,0,0-.12.659c0,.24.06.18.18-.24.18-.659.18-.9-.06-.419m19.522.24c0,.359.06.479.06.3a1.23,1.23,0,0,0,0-.659c0-.12-.06.06-.06.359m-8.743,1.737c0,.719.06.958.06.6a4.419,4.419,0,0,0,0-1.258c-.06-.359-.06-.06-.06.659m-9.4,0c0,.479.06.659.06.419a2.262,2.262,0,0,0,0-.9c0-.24-.06,0-.06.479m18.324-.479c0,.24.06.419.18.479q.359.18,0-.539c-.18-.359-.18-.359-.18.06m7.366-.18a4.046,4.046,0,0,1-1.557,1.617.427.427,0,0,0-.359.18c-.06.06.06.12.24.06.6-.18,2.156-2.036,1.737-2.036-.06,0-.06.12-.06.18m-14.731.659c0,.419.06.539.06.3a1.454,1.454,0,0,0,0-.719c0-.18-.06,0-.06.419m15.689.539c-.18.24-.3.479-.24.539s.24-.18.359-.479c.419-.659.3-.659-.12-.06m-7.845,0a4.28,4.28,0,0,0,1.677,1.5c.12,0-.06-.18-.359-.359a5.169,5.169,0,0,1-1.078-.958c-.18-.3-.3-.359-.24-.18m-20.241,1.078a1.012,1.012,0,0,0,.12.539c.06.06.12-.12.06-.419-.06-.659-.18-.719-.18-.12m23.893-.12a1.015,1.015,0,0,0,.6,0c.18-.06.06-.06-.3-.06s-.479,0-.3.06m3.054.24c-.3.24-.3.3-.12.18.6-.3.9-.539.719-.539a1.094,1.094,0,0,0-.6.359m4.851-.3c0,1.258,3.413,4.252,5.33,4.671.3.06.06-.06-.479-.3a8.939,8.939,0,0,1-4.371-3.713c-.3-.479-.479-.778-.479-.659m-19.881,1.078c-.18.539-.3.9-.24.9a4.387,4.387,0,0,0,.659-1.8,4.13,4.13,0,0,0-.419.9m34.373.359a8.434,8.434,0,0,1-4.252,3.114c-.539.24-.6.24-.12.12a9.333,9.333,0,0,0,4.851-3.653c.479-.9.24-.659-.479.419m-20.72-.539c-.479.24-.479.24-.12.18a2.013,2.013,0,0,0,.6-.24c.3-.24.18-.24-.479.06m-23.474.359a10.324,10.324,0,0,0,.958,1.078c.778.719.539.419-1.078-1.377-.06,0,0,.12.12.3m19.163.24c-.479.3-.958.9-.778.958a4.436,4.436,0,0,0,.719-.659c.838-.719.838-.778.06-.3m2.695-.18c-.24.12-.24.18-.12.18a1.817,1.817,0,0,0,.659-.18c.24-.12.24-.18.12-.18-.18.06-.479.12-.659.18m-1.317.539a1.048,1.048,0,0,0,.359,2.036c.18,0,0-.12-.3-.24-.838-.359-.838-1.258.06-1.617a1.413,1.413,0,0,0,.659-.359c-.06-.18-.12-.18-.778.18m-13.474.6c-.6.539-.6.539-.06.18.3-.24.6-.479.659-.539.18-.3.06-.24-.6.359m41.978,0a1.292,1.292,0,0,0-.479.6c0,.12.06.12.12,0a2.209,2.209,0,0,1,.659-.6c.3-.18.479-.359.359-.359-.12-.06-.419.12-.659.359m1.5-.06c.539.3.659.419.719,1.138l.12.838v-.778a1.407,1.407,0,0,0-1.2-1.5c-.18-.06,0,.12.359.3M137.588,143a4.214,4.214,0,0,0,1.078.958c.06-.06-.419-.539-1.018-1.078l-1.078-.958L137.588,143m8.982-.24c-.539.659-.539.659-.12.3s.958-1.078.778-1.078a6.352,6.352,0,0,0-.659.778m-14.552-.24c0,.18.719.838.778.719a1.262,1.262,0,0,0-.359-.479c-.24-.18-.419-.3-.419-.24m2.934.479c-.539.24-.12.24.6-.06.18-.06.24.12.24.539,0,.479-.06.659-.359.778-.18.06-.359.18-.3.18.3.3.838-.359.838-1.018,0-.778-.18-.838-1.018-.419m4.97-.12a2,2,0,0,0,.719.3c.3.06.359.06.18-.06a2,2,0,0,0-.719-.3c-.359-.06-.419-.06-.18.06m4.91,1.138a3.786,3.786,0,0,0-.778.539,5.652,5.652,0,0,0,1.677-.9c.12-.24.18-.3-.9.359m15.15-.24a1.454,1.454,0,0,0,.719,0c.18-.06,0-.06-.419-.06-.359-.06-.539,0-.3.06m1.8.18a1.979,1.979,0,0,0,.838,0c.24-.06.06-.06-.419-.06s-.659,0-.419.06m1.856.24c.06.06.3.18.6.359l.539.3-.419-.359a2.467,2.467,0,0,0-.6-.359c-.12,0-.18.06-.12.06m-31.2.539a4.363,4.363,0,0,0,2.156,0c.18-.06-.24-.12-1.018-.12s-1.258.06-1.138.12m8.2,0a7.274,7.274,0,0,0,1.377.12,6.782,6.782,0,0,0,1.377-.12c.24-.06-.419-.12-1.377-.12s-1.617.06-1.377.12m15.989,0c-.6.24-.479.359.12.12.3-.12.539-.24.539-.24.06-.12-.18-.06-.659.12m17.725,0a5.153,5.153,0,0,0,1.916,0c.838-.12.719-.18-.958-.18-1.677.06-1.8.06-.958.18m13.174.06a.761.761,0,0,0,.719,0c.3-.12.24-.18-.359-.18s-.719,0-.359.18m-32.1.719c-.3.24-.479.479-.419.479.06.06.3-.18.6-.419.6-.6.479-.659-.18-.06m4.252-.3a4.852,4.852,0,0,0,1.317,0c.359-.06.06-.06-.659-.06s-1.018,0-.659.06m-4.91,1.2a3.472,3.472,0,0,0,0,1.916c.06.06.12-.419.12-.958v-1.078c0,.06-.06.06-.12.12m1.317,1.018c0,.359.06.479.06.3a1.23,1.23,0,0,0,0-.659c0-.18-.06,0-.06.359m8.084-.359a3.091,3.091,0,0,1-.12.659c-.12.3-.12.3.12,0a.877.877,0,0,0,.12-.659c-.12-.24-.12-.3-.12,0m-.838,1.5c-.3.3-.359.359-.18.3.359-.18.958-.779.778-.719a6.146,6.146,0,0,0-.6.419m-8.324.3a2.447,2.447,0,0,0,.6.6l.6.539-.539-.6c-.539-.539-.659-.659-.659-.539m9.7.419a3.422,3.422,0,0,1-.958.659c-.3.12-.479.24-.419.3.12.12,1.078-.419,1.557-.9.24-.24.419-.479.359-.479-.12,0-.3.18-.539.419m-7.186-.12a1.277,1.277,0,0,0,.719.18c.6,0,.419-.12-.359-.24-.479-.06-.6-.06-.359.06m4.371.06c-.479.12-.479.12-.06.18a1.277,1.277,0,0,0,.719-.18c.3-.24.12-.24-.659,0m-2.575.3a4.852,4.852,0,0,0,1.317,0c.359-.06.06-.06-.659-.06s-1.018,0-.659.06m-1.976.9a1.277,1.277,0,0,0,.719.18c.6,0,.419-.12-.359-.24-.479-.06-.6-.06-.359.06m4.91.06c-.479.12-.479.12-.12.18a1.277,1.277,0,0,0,.719-.18c.359-.24.18-.24-.6,0m-2.934.3a7.292,7.292,0,0,0,1.617,0c.419-.06.06-.06-.838-.06s-1.2,0-.778.06" transform="translate(0)" fill="#a09fa0" fill-rule="evenodd"/>
    <path id="path4" d="M196.633,86.65c0,.419.3.6.6.359.18-.18.12-.18-.06-.12s-.3,0-.359-.24q-.18-.449-.18,0m3.054,1.557c0,.359.06.479.06.3a1.015,1.015,0,0,0,0-.6c0-.18-.06-.06-.06.3m-.719.958c0,.18-.18.359-.3.479-.18.12-.24.18-.12.18a.677.677,0,0,0,.539-.778c-.06-.12-.12-.06-.12.12m.12.958c-.18.18-.12.6.06.6.12,0,.12-.12.06-.18a.288.288,0,0,1,.12-.359c.12-.06.18-.18.06-.18a.457.457,0,0,0-.3.12m-11.5,3.234a.929.929,0,0,0,.18,1.138c.3.24.3.24.06-.06a1.658,1.658,0,0,1-.18-.778c.12-.419.12-.479-.06-.3m-143.72.778a11.652,11.652,0,0,0,2.874.12,10.781,10.781,0,0,0,2.815-.12,30.093,30.093,0,0,0-5.689,0m-1.856.359c-.359.12-.359.18.06.18.24,0,.419-.06.479-.18q.18-.269-.539,0m9.222,0a1.012,1.012,0,0,0,.6.18c.479,0,.3-.12-.359-.24-.359-.06-.419-.06-.24.06m10.539.06c-.06.12-.06,7.665-.06,16.767l.06,16.528.06-16.648.06-16.648h2.156l.06,16.648.06,16.648v-33.3l-1.138-.06c-.838-.18-1.2-.12-1.258.06m128.749.06a1.23,1.23,0,0,0,.659,0c.18-.06.06-.06-.3-.06s-.479.06-.359.06m-.359.539a1.23,1.23,0,0,0,.659,0c.18-.06.06-.06-.3-.06s-.479.06-.359.06m-135.516.24a2,2,0,0,0,.719.3c.3.06.359.06.18-.06a2,2,0,0,0-.719-.3c-.3-.06-.359-.06-.18.06m152.1.12a.943.943,0,0,1,.06,1.317c-.18.24-.18.24.06,0a.874.874,0,0,0-.06-1.377c-.419-.3-.419-.3-.06.06m-13.474,0a1.015,1.015,0,0,0,.6,0c.18-.06.06-.06-.3-.06s-.479.06-.3.06m4.132,0a1.015,1.015,0,0,0,.6,0c.18-.06.06-.06-.3-.06s-.479.06-.3.06m-.3.539a1.454,1.454,0,0,0,.719,0c.18-.06,0-.06-.419-.06-.359,0-.539.06-.3.06M37.284,96.53c-.6.419-.838.659-.3.359.419-.24,1.078-.719.958-.719-.06-.06-.359.12-.659.359m6.707-.06c-.24.06.12.12.838.06a5.6,5.6,0,0,0,1.258-.18,6.643,6.643,0,0,0-2.1.12m2.755-.12a8.978,8.978,0,0,0,1.617.18c.838.06,1.317,0,1.078-.06a11.041,11.041,0,0,0-2.695-.12m157.493.06a1.23,1.23,0,0,0,.659,0c.18-.06.06-.06-.3-.06-.419,0-.539.06-.359.06M41.955,96.89c-.359.12-.6.18-.539.24s.419-.06.9-.18c.838-.3.539-.359-.359-.06m9.1,0a2.317,2.317,0,0,0,.719.18c.419.06.539.06.359-.06-.24-.12-1.258-.24-1.078-.12m153,.06a1.23,1.23,0,0,0,.659,0c.18-.06.06-.06-.3-.06-.419,0-.539.06-.359.06M33.871,99.225c-.838.9-1.856,2.1-1.317,1.557a20.887,20.887,0,0,0,2.276-2.515l-.958.958m99.765-.359c-.659.778-.9,1.138-.24.479,1.2-1.317,1.258-1.138,1.317,2.934l.06,3.653h5.988l-2.934-.06-2.934-.06-.06-3.653c-.12-3.952-.3-4.371-1.2-3.294m-97.61,1.617-.539.6.6-.539c.359-.3.659-.539.719-.6.06,0,0-.06-.12-.06,0,0-.359.3-.659.6m96.352,0a19.592,19.592,0,0,0-.12,2.755l-.06,2.515-2.934.06-2.934.06.06.958.06.958,2.934.06,2.934.06.06,8.384.06,8.384V107.788l-2.934-.06-2.934-.06v-1.557h2.755c3.353,0,3.114.24,3.174-3.114.06-2.695.06-2.994-.12-2.515m-98.747,3.174c-.18.419-.3.719-.3.719a2.561,2.561,0,0,0,.479-.719c.18-.419.3-.719.3-.719a2.267,2.267,0,0,0-.479.719m43.595,1.737a4.418,4.418,0,0,0,1.258,0c.359-.06.12-.06-.6-.06-.659,0-.958.06-.659.06m20.6,0a2.572,2.572,0,0,0,.958,0c.3-.06.06-.06-.479-.06s-.719.06-.479.06m18.444,0a3.256,3.256,0,0,0,1.078,0c.3-.06,0-.06-.6-.06s-.838.06-.479.06m33.115,0a2.262,2.262,0,0,0,.9,0c.24-.06,0-.06-.479-.06s-.659.06-.419.06M29.8,105.812a1.926,1.926,0,0,0-.06.479c.06.06.12-.06.24-.3a1.926,1.926,0,0,0,.06-.479c-.12,0-.18.12-.24.3m2.755.24c-.12.3-.18.6-.12.659s.18-.18.3-.479.18-.6.12-.659-.18.12-.3.479m48.266-.24a2.7,2.7,0,0,0,.659.18c.18,0,.12-.06-.12-.18a2.7,2.7,0,0,0-.659-.18c-.18.06-.12.12.12.18m19.941,0a2.7,2.7,0,0,0,.659.18c.18,0,.12-.06-.06-.18a2.7,2.7,0,0,0-.659-.18c-.18.06-.18.12.06.18m12.755,0c-.24.12-.24.18-.12.18a1.818,1.818,0,0,0,.659-.18c.24-.12.24-.18.06-.18-.12.06-.419.12-.6.18m5.749,0a2.7,2.7,0,0,0,.659.18c.18,0,.12-.06-.12-.18a3.227,3.227,0,0,0-.6-.18c-.18.06-.18.12.06.18m-7.126.6a4.2,4.2,0,0,0-.659.419,11.344,11.344,0,0,0,1.617-.719c.18-.24-.359-.06-.958.3m8.264-.3a2.562,2.562,0,0,0,.719.479,2.672,2.672,0,0,0,.719.3,2.561,2.561,0,0,0-.719-.479c-.359-.24-.719-.359-.719-.3m-48.984,1.258-.479.479.6-.419c.3-.24.6-.419.6-.479-.06-.12-.24,0-.719.419m21.378.359a2.816,2.816,0,0,0-.719.958c0,.12,0,.12.06.06s.419-.479.838-.958.719-.838.659-.838c-.06-.06-.419.3-.838.778m51.5-.12-.6.659.6-.659c.659-.539.838-.659.659-.659,0-.06-.3.24-.659.659m-112.161.18a3.557,3.557,0,0,0-.06.659c.06.06.12-.18.18-.479.18-.778,0-.9-.12-.18m-2.874.479a8.133,8.133,0,0,0-.06.9c.06.06.12-.3.18-.778a8.133,8.133,0,0,0,.06-.9,3.447,3.447,0,0,0-.18.778m68.506-.719a3.625,3.625,0,0,0,1.138,0c.3-.06.06-.06-.6-.06s-.9.06-.539.06m12.037.6c-.6.659-1.317,1.617-.958,1.2a24.715,24.715,0,0,0,1.677-1.916,3.514,3.514,0,0,0-.719.719m39.343-.6a4.009,4.009,0,0,0,1.2,0c.3-.06.06-.06-.6-.06s-.958.06-.6.06m-73.237.24c-.12.06.479.12,1.377.06,2.4-.06,2.635-.18.659-.18a7.227,7.227,0,0,0-2.036.12m20.241,0c-.18.12-.12.18.24.06.659-.12.778-.24.359-.24a2.282,2.282,0,0,0-.6.18m18.743,0c-.18.12.12.12.659.06a3.707,3.707,0,0,0,.958-.18c.12-.12-1.377,0-1.617.12m2.036-.06c.479.18,1.916.24,1.677.06a2.364,2.364,0,0,0-1.078-.12c-.419,0-.719,0-.6.06m17.785.12c-.06.12-.06,3.713-.06,8.024l.06,7.845.06-7.964.06-7.964,2.994-.06,2.994-.06-2.994-.06c-2.276,0-3.054.06-3.114.24m-64.794.778a4.436,4.436,0,0,0-.719.778,9.612,9.612,0,0,0,.9-.778,3.676,3.676,0,0,0,.719-.838,6.681,6.681,0,0,0-.9.838m15.749-.12a3.136,3.136,0,0,0,.779.719c.06,0-.24-.3-.6-.719a3.136,3.136,0,0,0-.778-.719c-.06,0,.18.359.6.719m9.222.06a2.674,2.674,0,0,0-.838.838c-.06.12.18,0,.419-.3a4.969,4.969,0,0,1,.958-.778c.24-.18.419-.3.3-.3a3.66,3.66,0,0,0-.838.539m51.679-.24c-.3.18-.479.359-.359.359.18,0,1.138-.719,1.018-.719a3.989,3.989,0,0,0-.659.359m-26.528.06a5.3,5.3,0,0,0,.838.659c.659.419.719.479.3.12-.479-.479-1.138-.9-1.138-.778m4.132.6a11.772,11.772,0,0,1,.838,1.317l.359.6c.18,0-.659-1.377-1.2-1.976l-.539-.659.539.719m-40.242,1.258a13.47,13.47,0,0,1,1.018,1.258c.24.3.359.359.24.12a10.336,10.336,0,0,0-1.018-1.258c-.6-.6-.659-.659-.24-.12m3.054-.18a5,5,0,0,0,.479.719l.3.359-.18-.359a5,5,0,0,0-.479-.719l-.3-.359.18.359m23.893.479c-.479.659-.838,1.2-.539.958a8.177,8.177,0,0,0,1.078-1.557c-.12,0-.359.3-.539.6m-19.522.778a6.41,6.41,0,0,0,.12,1.5c.06.12.12-.3.06-1.018-.06-1.737-.18-1.976-.18-.479m53.655-.9a2.964,2.964,0,0,0,0,1.617c.06.12.12-.24.12-.778V110.3l-.12.12m-74.2.778a3.344,3.344,0,0,0-.539.838c0,.12.12,0,.3-.24s.479-.6.659-.838.3-.419.24-.419-.3.24-.659.659m22.7,0c0,.359.06.479.06.3a2,2,0,0,0,0-.6c-.06-.12-.06,0-.06.3m49.224.12c0,.419.06.539.06.3a1.454,1.454,0,0,0,0-.719c0-.18-.06,0-.06.419m-55.033-.06a8.459,8.459,0,0,0,.359.9c.18.419.359.659.359.539,0-.3-.659-1.677-.719-1.437m57.548,1.317a4.475,4.475,0,0,0,1.5,1.5c.12,0,.06-.06-.12-.18a5.408,5.408,0,0,1-.838-.838c-.3-.359-.539-.6-.539-.479m-78.088.539a2.127,2.127,0,0,0-.12.6c0,.18.06.06.18-.24.18-.539.12-.838-.06-.359m-37.966.24a5.241,5.241,0,0,0,.12.958l.12.539v-.539a4.654,4.654,0,0,0-.12-.958l-.12-.479v.479m40.3.3a.928.928,0,0,0-.12.479c0,.359,0,.359.18-.06s.18-.6-.06-.419m19.223.778a3.654,3.654,0,0,0,.18.9c.12.18.06-1.018-.12-1.317-.12-.24-.12-.12-.06.419m54.673-.419a3.176,3.176,0,0,0,.6.719c.419.359.419.359,0-.18-.719-.9-.778-.958-.6-.539m-111.383.18a1.012,1.012,0,0,0,.18.6c.12.18.18.12.06-.24-.12-.659-.24-.838-.24-.359m54.374.958a4.542,4.542,0,0,0,.18,1.078c.12.12,0-1.138-.12-1.617-.06-.3-.12-.06-.06.539m20.3,1.437c0,1.138,0,1.617.06,1.018a12.244,12.244,0,0,0,0-2.1c-.06-.479-.06-.06-.06,1.078m-39.942.3c0,1.018.06,1.377.06.838a9,9,0,0,0,0-1.8c0-.479-.06-.06-.06.958m77.908-1.5c.24.3.9.719.9.6,0-.06-.24-.24-.6-.479-.3-.24-.419-.3-.3-.12m-55.632,1.377c0,.539.06.778.06.479a2.572,2.572,0,0,0,0-.958c0-.24-.06-.06-.06.479m24.552-.719H122.2c2.335,0,.359-.06-4.371-.06s-6.647,0-4.252.06m37.427-.06a5.049,5.049,0,0,0,.9.479c.419.18.659.24.6.18a3.759,3.759,0,0,0-.9-.479c-.419-.18-.659-.24-.6-.18m-42.038,1.317a7.094,7.094,0,0,0,.12,1.557c.06.12.12-.359.06-1.078-.06-1.8-.18-2.036-.18-.479m36.828-1.138a2.562,2.562,0,0,0,.719.479,2.672,2.672,0,0,0,.719.3,2.561,2.561,0,0,0-.719-.479c-.419-.24-.719-.359-.719-.3m-43.056,1.557c.3.24.778.778,1.078,1.078s.419.419.359.24a6.208,6.208,0,0,0-1.677-1.617c-.18-.12-.06,0,.24.3m51.2-.12a1.884,1.884,0,0,0,.719.419c.12,0-.12-.18-.419-.419-.778-.6-1.018-.6-.3,0m-57.069-.24c0,.06.24.18.6.3.3.12.479.12.419.06-.24-.18-1.018-.479-1.018-.359m51.44,0c0,.06.24.18.6.3.3.12.479.12.419.06-.24-.18-1.018-.479-1.018-.359m-61.8.6a4.652,4.652,0,0,1-.12.958l-.12.479.18-.419a1.923,1.923,0,0,0,.12-1.018l-.06-.539v.539m-17.127,1.437a1.012,1.012,0,0,0,.18.6c.12.18.12.12.06-.24-.12-.659-.24-.838-.24-.359m31.858.12a6.369,6.369,0,0,1,.9.9c.18.24.3.3.24.18a4.4,4.4,0,0,0-1.258-1.317c-.24-.12-.18,0,.12.24m51.08-.3a6.621,6.621,0,0,1,.778.719l.6.539-.419-.539a4.055,4.055,0,0,0-.778-.719c-.18-.06-.3-.06-.18,0m-85.334.539c.12.659.24.778.24.359a1.012,1.012,0,0,0-.18-.6c-.12-.24-.12-.18-.06.24m-35.511.359a1.571,1.571,0,0,0,.479.719c.24.3.359.359.3.18-.3-.539-.778-1.138-.778-.9m3.593.539a9.684,9.684,0,0,0,1.916,1.916c.719.539.719.539-.06-.18-.419-.419-1.078-1.018-1.437-1.437-.419-.359-.539-.539-.419-.3m121.084.18c.12.9.24,1.018.24.359a1.359,1.359,0,0,0-.18-.778c-.12-.24-.18-.06-.06.419m-67.848.12c-.12.3-.18.6-.12.659s.18-.18.3-.479.18-.6.12-.659-.18.12-.3.479m14.252,1.317c0,.6.06,1.018.12.9a3.674,3.674,0,0,0,0-1.976,2.407,2.407,0,0,0-.12,1.078m4.97-.6c.12.3.24.539.24.479.06-.06-.24-1.018-.359-1.018-.06-.06,0,.18.12.539m46.529.479c0,.539.06.778.06.479a2.907,2.907,0,0,0,0-1.018c0-.18-.06,0-.06.539m-121.5-.539c0,.18.9,1.2.958,1.078.06-.06-.18-.359-.479-.659-.24-.3-.479-.539-.479-.419m77.788.359a4.2,4.2,0,0,0,.479.6c.18.18.18.06-.12-.3-.419-.719-.6-.838-.359-.3m-5.449.3a2.658,2.658,0,0,0-.12.778c0,.359.06.3.18-.24.18-.778.12-1.018-.06-.539m-20.42.539a1.276,1.276,0,0,0-.359.539c.06.06.24-.18.479-.419.539-.719.479-.719-.12-.12m23.654.06a2.3,2.3,0,0,0,.479.659c.12.06,0-.18-.18-.539-.479-.778-.719-.838-.3-.12m-49.464.9-.06,1.317-.838.359c-.958.419-1.078.659-.12.24,1.078-.419,1.138-.6,1.078-1.976l-.06-1.258v1.317m97.55-.719c0,.359.06.479.06.3a1.23,1.23,0,0,0,0-.659c0-.12-.06.06-.06.359m-30.78,0-.419.359.479-.3.479-.3.06,1.258.06,1.258.06-1.138c.06-1.377-.12-1.617-.719-1.138m28.025,1.018c-.24.419-.479.778-.419.778a5.769,5.769,0,0,0,.958-1.5,3.788,3.788,0,0,0-.539.719M34.709,123.9a3.8,3.8,0,0,0,.659.479c.06,0-.12-.18-.419-.479a3.8,3.8,0,0,0-.659-.479c-.06,0,.12.24.419.479m51.739.3c-.359.419-.479.659-.3.539.3-.24,1.078-1.258.958-1.258a4.267,4.267,0,0,0-.659.719m-3.234-.06-.419.479.539-.479.6-.479s0-.06-.12-.06a1.933,1.933,0,0,0-.6.539m7.9.958c0,1.078,0,1.138.6,1.437l.6.3-.479-.359c-.6-.479-.778-2.4-.18-2.216.24.06.3.06.06-.12-.539-.3-.6-.18-.6.958m51.5.06c0,.719.06.958.06.6a4.418,4.418,0,0,0,0-1.258c-.06-.359-.06-.06-.06.659m-70-.778c.6.419.958.539.539.18a1.822,1.822,0,0,0-.659-.359c-.06-.06,0,.06.12.18m37.068.6a8.235,8.235,0,0,0,1.138,1.018c.3.24.06-.06-.539-.659-1.2-1.138-1.557-1.377-.6-.359m25.331-.18c0,.18.479.659.9.838.12.06.12,0-.12-.18a5.647,5.647,0,0,1-.6-.6c-.12-.12-.18-.12-.18-.06m6.168.359c-.6.3-.539.359.18.12.479-.18.479-.18.539.958l.06,1.138.06-1.2c0-1.377-.06-1.377-.838-1.018m3.713-.18c0,.12.958.479,1.018.359.06-.06-.18-.18-.479-.24-.3-.12-.539-.18-.539-.12m-73.776,1.078c.6.419,1.078.838,1.138.838.12,0,.06-.06-1.078-.958a6.742,6.742,0,0,0-.958-.659,5.08,5.08,0,0,0,.9.778m-21.678-.479c-.6.12-.6.12-.06.12a6.6,6.6,0,0,0,1.078-.12c.719-.18-.12-.18-1.018,0m30.84,0c-.24.12-.24.18-.06.18a1.339,1.339,0,0,0,.6-.18c.24-.12.24-.18.12-.18-.18.06-.479.12-.659.18m14.731,0a1.519,1.519,0,0,0,.719.12c.3,0,.3-.06-.12-.12-.6-.18-1.078-.18-.6,0m25.331,0c-.24.12-.24.18-.12.18a1.818,1.818,0,0,0,.659-.18c.24-.12.24-.18.06-.18-.12.06-.419.12-.6.18m-74.2.359a4.008,4.008,0,0,0,1.2,0c.3-.06.06-.06-.6-.06-.659-.06-.9,0-.6.06m30.6.06a4.644,4.644,0,0,0,1.138.12,5.053,5.053,0,0,0,1.138-.12c.18-.06-.359-.12-1.138-.12s-1.317.06-1.138.12m20.181,0a4.363,4.363,0,0,0,2.156,0c.18-.06-.359-.12-1.138-.12s-1.258.06-1.018.12m19.761,0a5.111,5.111,0,0,0,2.335,0c.18-.06-.3-.12-1.078-.12s-1.317.06-1.258.12m20.241,0a3.893,3.893,0,0,0,1.916,0c.18-.06-.24-.12-.958-.12s-1.138.06-.958.12m11.5,0a4.3,4.3,0,0,0,1.018.12,3.908,3.908,0,0,0,1.018-.12c.18-.06-.3-.12-1.018-.12s-1.2.06-1.018.12M73.334,127.37a2,2,0,0,0,.719.3c.3.06.359.06.18-.06a2,2,0,0,0-.719-.3c-.3-.06-.359-.06-.18.06m8.563.12c-.479.24-.479.24-.12.18.539-.12,1.078-.419.838-.419a3.236,3.236,0,0,0-.719.24m31.139-.12a2,2,0,0,0,.719.3c.3.06.359.06.18-.06a2,2,0,0,0-.719-.3c-.3-.06-.359-.06-.18.06m27.786.12c-.479.24-.479.24-.12.18.539-.12,1.078-.419.838-.419a3.236,3.236,0,0,0-.719.24m-97.729.419c.778.18,1.437.18.838,0a4.622,4.622,0,0,0-.9-.12c-.479,0-.419,0,.06.12m6.887,0c-.359.12-.359.12-.12.12a4.122,4.122,0,0,0,.778-.12c.359-.12.359-.12.12-.12a4.121,4.121,0,0,0-.778.12m25.091,0a2.7,2.7,0,0,0,.659.18c.18,0,.12-.06-.12-.18a2.7,2.7,0,0,0-.659-.18c-.18.06-.12.12.12.18m5.09,0c-.359.12-.359.12-.12.12a3.006,3.006,0,0,0,.719-.12c.479-.18.06-.18-.6,0m14.911,0c.6.18,1.078.18.659,0a1.519,1.519,0,0,0-.719-.12c-.3,0-.3,0,.06.12m19.282-.12a1.765,1.765,0,0,0,.6.18c.419.06.479.06.24-.06s-1.018-.24-.838-.12m24.971.18c-.18.12-.12.12.3.06.659-.12.778-.24.359-.24a.793.793,0,0,0-.659.18m7.186-.06c.6.18,1.078.18.659,0a1.519,1.519,0,0,0-.719-.12c-.359,0-.3,0,.06.12m4.731,0c-.24.12-.24.18-.06.18a1.818,1.818,0,0,0,.659-.18c.24-.12.24-.18.12-.18-.24.06-.539.12-.719.18m-105.1.359a5.766,5.766,0,0,0,1.437,0c.359-.06,0-.06-.778-.06-.778-.06-1.078,0-.659.06m31.139,0a4.01,4.01,0,0,0,1.2,0c.3-.06.06-.06-.6-.06-.659-.06-.958,0-.6.06m20,0a2.907,2.907,0,0,0,1.018,0c.3-.06.06-.06-.479-.06-.6-.06-.778,0-.539.06m19.7,0a3.626,3.626,0,0,0,1.138,0c.3-.06.06-.06-.6-.06s-.9,0-.539.06m20,0a2.263,2.263,0,0,0,.9,0c.24-.06,0-.06-.479-.06-.479-.06-.659,0-.419.06m11.677,0a2.907,2.907,0,0,0,1.018,0c.3-.06.06-.06-.479-.06-.6-.06-.778,0-.539.06m-17.486,7.366-.419.479.479-.419c.6-.539.659-.479.719,1.856l.06,1.8.06-1.916c.06-2.216-.18-2.635-.9-1.8m9.761,3.413c-.24.06.3.12,1.138.12s1.377-.06,1.138-.12a5.464,5.464,0,0,0-2.276,0m17.965.359c-.359.12-.359.12-.12.12a3.006,3.006,0,0,0,.719-.12c.479-.18,0-.18-.6,0m6.647.24c0,.479-.06.479-1.2.479a3.259,3.259,0,0,0-1.2.12,2.661,2.661,0,0,0,1.2.06c1.2-.06,1.437-.24,1.258-.9,0-.12-.06-.06-.06.24m-19.881.6a1.884,1.884,0,0,0,.719.419c.12,0-.12-.18-.419-.419-.838-.6-1.018-.6-.3,0m-18.264-.06a7.413,7.413,0,0,0,1.617.18,3.707,3.707,0,0,0,1.5-.06,9.239,9.239,0,0,0-3.114-.12m4.611.18c-.06.12-.06,2.276-.06,4.731l.06,4.491.06-4.611.06-4.611,1.677-.06,1.677-.06-1.677-.06c-1.258,0-1.737,0-1.8.18m5.629.479-.6.659.6-.659c.659-.539.838-.659.659-.659,0-.06-.3.24-.659.659m4.132-.539a1.454,1.454,0,0,0,.719,0c.18-.06,0-.06-.419-.06-.419-.06-.539,0-.3.06m3.114.778a2.447,2.447,0,0,0,.6.6l.6.539-.539-.6c-.539-.539-.659-.659-.659-.539m-6.407.659c-.3.3-.479.6-.419.6.06.06.3-.18.6-.539.6-.719.539-.778-.18-.06m8.982.539c.18.3.3.539.359.539s-.06-.24-.18-.539c-.18-.3-.3-.539-.359-.539s.06.24.18.539m8.264,1.2c0,.6.06.838.06.479a3.257,3.257,0,0,0,0-1.078c-.06-.24-.06,0-.06.6m8.743.18c0,.479.06.659.06.419a2.262,2.262,0,0,0,0-.9c-.06-.24-.06,0-.06.479m-27.247.9a4.483,4.483,0,0,0,.06,1.557c.12.659.18.539.18-.838-.06-1.737-.06-1.856-.24-.719m10.9.6a11.356,11.356,0,0,1-.12,1.8l-.12.479.18-.419a4.968,4.968,0,0,0,.12-1.8l-.06-1.377v1.317m-12.216.18c0,.659.06.9.06.6a3.625,3.625,0,0,0,0-1.138c0-.359-.06-.06-.06.539m10.959,0c0,.419.06.6.06.419a1.7,1.7,0,0,0,0-.778c0-.24-.06-.06-.06.359m15.39.539-.6.659.6-.659c.659-.539.838-.659.659-.659,0-.06-.3.3-.659.659m-5.509.419a4.057,4.057,0,0,0,.778.719c.359.18.359.18-.6-.659l-.6-.539.419.479m2.036.3c.06.12.3.18.479.18.359,0,.359,0,.06-.18q-.719-.269-.539,0m-22.7.359a3.744,3.744,0,0,0,.24.838c.3.719.3.359,0-.479-.12-.3-.24-.479-.24-.359m22.037.3a.4.4,0,0,1,.24.359c0,.12.06.24.18.24s.18-.06.18-.12c0-.24-.419-.6-.6-.539-.12,0-.12.06,0,.06m-12.276,1.2c-.3.419-.359.659-.24.539.3-.24.958-1.317.838-1.317a4.255,4.255,0,0,0-.6.778m-7.186.479a3.137,3.137,0,0,0,.778.719c.06,0-.24-.3-.6-.719a3.137,3.137,0,0,0-.778-.719c-.06,0,.24.359.6.719m-1.916-.18a4.2,4.2,0,0,0,.479.6c.18.18.18.06-.12-.359-.419-.659-.6-.778-.359-.24m19.7.539a1.63,1.63,0,0,0,.778,1.557c.359.24.359.18-.06-.18a1.208,1.208,0,0,1-.539-1.078c0-.719,0-.778-.18-.3m30.361.24a1,1,0,0,0-.24.778c0,.3.06.24.18-.12a2.352,2.352,0,0,1,.359-.779c.12-.12.18-.24.12-.24-.06-.06-.24.12-.419.359m-42.4.18c-.3.18-.479.359-.359.359a2.559,2.559,0,0,0,.719-.359c.3-.18.479-.359.359-.359a2.559,2.559,0,0,0-.719.359m1.617.359c-.6.6-.6.659-.18.359.6-.419,1.317-1.138,1.078-1.078a4.317,4.317,0,0,0-.9.719m-13.653-.06c.359.419,2.455.6,2.695.24.06-.06-.419-.12-1.078-.06-.958.06-1.258,0-1.557-.24l-.419-.359.359.419m8.264.24a6.153,6.153,0,0,0,1.437.12,5.392,5.392,0,0,0,1.437-.12c.12-.06-.539-.12-1.437-.12s-1.557.06-1.437.12m19.7.659a2.263,2.263,0,0,0,.9,0c.24-.06,0-.06-.479-.06-.479-.06-.659,0-.419.06m2.515.18a1.012,1.012,0,0,0,.6.18h.359l-.359-.18c-.539-.18-.958-.18-.6,0m-29.822.539a2.263,2.263,0,0,0,.9,0c.24-.06,0-.06-.479-.06-.479-.06-.659,0-.419.06m8.563,0a4.01,4.01,0,0,0,1.2,0c.3-.06.06-.06-.6-.06-.659-.06-.958,0-.6.06m23.235.3a2.478,2.478,0,0,0,.359.659c.24.3.3.3.18.06-.3-.6-.539-.9-.539-.719m-6.647.3c-.18.12-.06.12.359.06.778-.12.9-.24.359-.24a1.151,1.151,0,0,0-.719.18m3.952-.06c.6.18,1.078.18.659,0a1.52,1.52,0,0,0-.719-.12c-.359,0-.3.06.06.12m-6.827.778a2.687,2.687,0,0,0-.359.778c0,.18,0,.18.479-.659s.359-.9-.12-.12m7.9-.539c0,.06.24.24.6.479s.479.3.359.12c-.3-.3-.958-.719-.958-.6m2.335,1.557c0,.419.06.6.06.419a1.978,1.978,0,0,0,0-.838c0-.18-.06,0-.06.419m-9.462-.24a2.547,2.547,0,0,0-.12.659c0,.24.06.18.18-.24.18-.659.18-.9-.06-.419m7.845,1.5-.419.659L164,155.4a3.8,3.8,0,0,0,.479-.659c0-.3-.06-.24-.539.479m-7.725-.24c0,.359,1.078,1.317,1.5,1.317.12,0-.06-.18-.359-.359a2.648,2.648,0,0,1-.838-.778c-.18-.18-.3-.3-.3-.18m-1.078.6a5.179,5.179,0,0,0,1.317,1.258c.06-.06-.24-.359-.6-.719-.419-.359-.719-.6-.719-.539m9.4.659c-.419.359-.539.6-.359.539.419-.24,1.258-1.078,1.138-1.138,0-.12-.359.18-.778.6m-5.749.3a7.716,7.716,0,0,0,2.874,0c.18-.06-.479-.12-1.377-.12a4.024,4.024,0,0,0-1.5.12m.6,1.018a9,9,0,0,0,1.8,0c.479-.06.06-.06-.958-.06-.958,0-1.377,0-.838.06" transform="translate(-0.12 -6.95)" fill="#747474" fill-rule="evenodd"/>
  </g>
</svg>
