<svg id="group" xmlns="http://www.w3.org/2000/svg" width="72" height="59.549" viewBox="0 0 72 59.549">
  <path id="Path_81" data-name="Path 81" d="M178.8,21.6A10.8,10.8,0,1,0,168,10.8,10.8,10.8,0,0,0,178.8,21.6Zm0-19.2a8.4,8.4,0,1,1-8.4,8.4A8.4,8.4,0,0,1,178.8,2.4Zm0,0" transform="translate(-142.8)" fill="#949dae"/>
  <path id="Path_82" data-name="Path 82" d="M38,52a6,6,0,1,0-6-6A6,6,0,0,0,38,52Zm0-9.6A3.6,3.6,0,1,1,34.4,46,3.6,3.6,0,0,1,38,42.4Zm0,0" transform="translate(-27.2 -34)" fill="#949dae"/>
  <path id="Path_83" data-name="Path 83" d="M374,52a6,6,0,1,0-6-6A6,6,0,0,0,374,52Zm0-9.6a3.6,3.6,0,1,1-3.6,3.6A3.6,3.6,0,0,1,374,42.4Zm0,0" transform="translate(-312.8 -34)" fill="#949dae"/>
  <path id="Path_84" data-name="Path 84" d="M66,120a1.2,1.2,0,0,0-.72.24L61.2,123.3l-4.08-3.06a1.2,1.2,0,0,0-.72-.24,5.94,5.94,0,0,0-4.928,2.614A13.1,13.1,0,0,0,45.6,121.2a1.2,1.2,0,0,0-.848.352L36,130.3l-8.752-8.752a1.2,1.2,0,0,0-.848-.352,13.1,13.1,0,0,0-5.872,1.414A5.94,5.94,0,0,0,15.6,120a1.2,1.2,0,0,0-.72.24L10.8,123.3l-4.08-3.06A1.2,1.2,0,0,0,6,120a6.007,6.007,0,0,0-6,6v10.668a3.612,3.612,0,0,0,1.692,3.057l7.342,4.591a3.657,3.657,0,0,0,1.9.53,3.589,3.589,0,0,0,1.6-.373l.664-.332v5.5a3.6,3.6,0,0,0,2.141,3.292l18.226,8.1a5.973,5.973,0,0,0,4.864,0l18.227-8.1A3.6,3.6,0,0,0,58.8,149.64v-6.7l.795.394a3.6,3.6,0,0,0,3.21,0l7.2-3.6a3.582,3.582,0,0,0,2-3.221V126a6.007,6.007,0,0,0-6-6ZM11.464,142.32a1.221,1.221,0,0,1-1.168-.052l-7.32-4.578a1.237,1.237,0,0,1-.576-1.022V126a3.6,3.6,0,0,1,3.226-3.581l4.454,3.34a1.2,1.2,0,0,0,1.44,0l4.454-3.34a3.567,3.567,0,0,1,2.505,1.427c-.08.06-.15.131-.229.192-.186.146-.36.3-.54.455-.23.2-.455.4-.669.619-.166.166-.323.335-.48.509q-.3.336-.581.693c-.141.182-.279.36-.411.554-.174.248-.334.5-.49.763-.12.195-.233.389-.339.589-.144.272-.272.552-.4.84-.089.2-.183.4-.262.609-.12.3-.209.609-.3.921-.06.2-.128.4-.179.6-.086.347-.146.7-.2,1.061-.029.175-.071.347-.093.523a13.369,13.369,0,0,0-.1,1.627v7.058ZM56.4,149.64a1.2,1.2,0,0,1-.72,1.1l-18.226,8.1a3.569,3.569,0,0,1-2.911,0l-18.223-8.1a1.2,1.2,0,0,1-.72-1.1V134.4A10.775,10.775,0,0,1,25.92,123.61l9.24,9.24a1.2,1.2,0,0,0,1.7,0l9.24-9.24A10.818,10.818,0,0,1,56.4,134.4Zm13.2-13.128a1.2,1.2,0,0,1-.67,1.08l-7.2,3.6a1.191,1.191,0,0,1-1.062,0l-1.869-.936V134.4a13.459,13.459,0,0,0-.1-1.633c-.022-.178-.064-.349-.093-.524-.059-.36-.12-.712-.2-1.059-.05-.205-.12-.4-.18-.6-.093-.308-.186-.615-.3-.915-.08-.209-.175-.411-.265-.615-.12-.279-.25-.557-.394-.828-.107-.2-.226-.4-.343-.6-.154-.257-.313-.509-.48-.754-.135-.192-.275-.379-.419-.564-.183-.24-.372-.459-.571-.681-.158-.176-.321-.35-.489-.519-.211-.212-.433-.412-.66-.611-.179-.156-.36-.312-.547-.459-.078-.062-.148-.132-.228-.192a3.566,3.566,0,0,1,2.5-1.427l4.451,3.34a1.2,1.2,0,0,0,1.44,0l4.454-3.34A3.6,3.6,0,0,1,69.6,126Zm0,0" transform="translate(0 -102)" fill="#949dae"/>
</svg>
