<svg xmlns="http://www.w3.org/2000/svg" width="41.158" height="41.158" viewBox="0 0 41.158 41.158"><defs><style>.a{fill:#c4302b;}.b{fill:#fff;}</style></defs><path class="a" d="M20.579,0A20.579,20.579,0,1,1,0,20.579,20.579,20.579,0,0,1,20.579,0Z"/><path class="b" d="M74.828,63.666a2.423,2.423,0,0,0,1.533-.5,1.468,1.468,0,0,0,.556-1.215v-3.12a1.37,1.37,0,0,0-.566-1.131,2.32,2.32,0,0,0-1.459-.437,2.614,2.614,0,0,0-1.554.414,1.307,1.307,0,0,0-.579,1.118v3.13a1.5,1.5,0,0,0,.563,1.226A2.343,2.343,0,0,0,74.828,63.666Zm-.68-4.721a.334.334,0,0,1,.184-.289.928.928,0,0,1,.479-.109,1.048,1.048,0,0,1,.516.109.33.33,0,0,1,.2.289V61.91a.392.392,0,0,1-.193.346.95.95,0,0,1-.518.125.826.826,0,0,1-.491-.123.4.4,0,0,1-.171-.347Zm4.987,4.718a1.606,1.606,0,0,0,.7-.262,2.633,2.633,0,0,0,.7-.584v.693h1.215V57.252H80.539V62a1.723,1.723,0,0,1-.374.336.69.69,0,0,1-.339.133.284.284,0,0,1-.247-.1.52.52,0,0,1-.08-.319v-4.8H78.286v5.228a1.379,1.379,0,0,0,.213.837A.8.8,0,0,0,79.135,63.662Zm3.534,2.587H67.981a4.148,4.148,0,0,0-4.228,4.062v3.434a4.148,4.148,0,0,0,4.228,4.063H82.669A4.149,4.149,0,0,0,86.9,73.745V70.311A4.148,4.148,0,0,0,82.669,66.249Zm-12.5,3.486h-1.3v5.379H67.61V69.734h-1.3v-.917h3.855S70.166,69.734,70.166,69.734Zm3.877,5.453H72.688V74.63a2.892,2.892,0,0,1-.783.469,2.055,2.055,0,0,1-.786.163.982.982,0,0,1-.707-.229.9.9,0,0,1-.238-.679V70.107h1.354V74a.353.353,0,0,0,.082.26.4.4,0,0,0,.279.08.934.934,0,0,0,.378-.107,1.736,1.736,0,0,0,.421-.273V70.106h1.354S74.042,75.188,74.042,75.188Zm5.127-.967a.949.949,0,0,1-.315.765,1.359,1.359,0,0,1-.908.266,2.208,2.208,0,0,1-.7-.1,1.763,1.763,0,0,1-.572-.319v.36H75.321V68.817h1.352v2.054a2.2,2.2,0,0,1,.574-.327,1.76,1.76,0,0,1,.617-.112,1.406,1.406,0,0,1,.968.3,1.119,1.119,0,0,1,.337.88Zm5.153-1.434h-2.5V73.7a.834.834,0,0,0,.127.534.566.566,0,0,0,.442.148.649.649,0,0,0,.455-.126.825.825,0,0,0,.131-.557v-.221h1.341v.249a1.327,1.327,0,0,1-.493,1.128,2.376,2.376,0,0,1-1.465.378,2.159,2.159,0,0,1-1.381-.4,1.334,1.334,0,0,1-.5-1.1V71.544a1.224,1.224,0,0,1,.556-1.034,2.386,2.386,0,0,1,1.428-.4,2.231,2.231,0,0,1,1.377.369,1.258,1.258,0,0,1,.48,1.061S84.322,72.786,84.322,72.786ZM69.438,63.68h1.534V59.941l1.786-5.273H71.2l-.949,3.6h-.1l-1-3.6H67.609l1.829,5.442S69.438,63.68,69.438,63.68Zm7.794,7.5-.284.046-.276.143V74.3a1.177,1.177,0,0,0,.318.166l.323.05a.535.535,0,0,0,.361-.1.406.406,0,0,0,.116-.322v-2.43a.446.446,0,0,0-.14-.361A.634.634,0,0,0,77.232,71.179Z" transform="translate(-54.746 -46.944)"/><path class="b" d="M192.688,170.021a.619.619,0,0,0-.448.134.59.59,0,0,0-.134.437v.491h1.154v-.491a.491.491,0,0,0-.572-.571Z" transform="translate(-164.966 -146)"/></svg>