<svg xmlns="http://www.w3.org/2000/svg" width="26" height="26" viewBox="0 0 26 26">
  <g id="call" transform="translate(0 0)">
    <g id="Group_353" data-name="Group 353" transform="translate(0 0)">
      <path id="Path_189" data-name="Path 189" d="M22.191,3.806A13,13,0,1,0,26,13,13,13,0,0,0,22.191,3.806Zm-2.5,14.3,0,0v0l-.659.654a3.467,3.467,0,0,1-3.272.936,11.519,11.519,0,0,1-3.345-1.5,15.457,15.457,0,0,1-2.639-2.128A15.575,15.575,0,0,1,7.8,13.677a12.132,12.132,0,0,1-1.482-3,3.467,3.467,0,0,1,.867-3.54l.771-.771a.55.55,0,0,1,.778,0l0,0L11.171,8.8a.55.55,0,0,1,0,.778l0,0-1.43,1.43a1.166,1.166,0,0,0-.121,1.517,16.724,16.724,0,0,0,1.712,2,16.621,16.621,0,0,0,2.253,1.894,1.174,1.174,0,0,0,1.5-.13l1.382-1.4a.55.55,0,0,1,.778,0l0,0,2.44,2.444A.55.55,0,0,1,19.688,18.108Z" transform="translate(0 0)" fill="#dce0e7"/>
    </g>
  </g>
</svg>
