<svg id="cancel" xmlns="http://www.w3.org/2000/svg" width="19.466" height="19.466" viewBox="0 0 19.466 19.466">
  <circle id="Ellipse_14" data-name="Ellipse 14" cx="9.733" cy="9.733" r="9.733" transform="translate(0 0)" fill="#f15249"/>
  <path id="Path_191" data-name="Path 191" d="M147.2,156.443l5.25,5.25a9.683,9.683,0,0,0,8.474-8.413L155.643,148Z" transform="translate(-141.551 -142.32)" fill="#ad0e0e"/>
  <path id="Path_192" data-name="Path 192" d="M134.733,131.508a1.15,1.15,0,0,1,0,1.6l-.86.86a1.15,1.15,0,0,1-1.6,0l-6.755-6.755a1.15,1.15,0,0,1,0-1.6l.89-.89a1.15,1.15,0,0,1,1.6,0Z" transform="translate(-120.395 -119.626)" fill="#fff"/>
  <path id="Path_193" data-name="Path 193" d="M218.487,216,216,218.487l3.592,3.562a1.15,1.15,0,0,0,1.6,0l.89-.89a1.15,1.15,0,0,0,0-1.6Z" transform="translate(-207.71 -207.71)" fill="#d6d6d6"/>
  <path id="Path_194" data-name="Path 194" d="M132.277,125.522a1.15,1.15,0,0,1,1.6,0l.89.89a1.15,1.15,0,0,1,0,1.6l-6.785,6.724a1.15,1.15,0,0,1-1.6,0l-.86-.86a1.15,1.15,0,0,1,0-1.6Z" transform="translate(-120.395 -120.395)" fill="#fff"/>
</svg>
