<svg xmlns="http://www.w3.org/2000/svg" width="41.316" height="44.975" viewBox="0 0 41.316 44.975"><defs><style>.gearwheel{fill:#db440d;}</style></defs><path class="gearwheel" d="M54.3,25.447a18.939,18.939,0,0,0,0-5.918,6.147,6.147,0,0,0,1.239-7.664l-.717-1.241a6.14,6.14,0,0,0-7.256-2.758A18.634,18.634,0,0,0,42.436,4.9,6.147,6.147,0,0,0,36.419,0H34.986a6.147,6.147,0,0,0-6.018,4.9,18.637,18.637,0,0,0-5.126,2.964,6.14,6.14,0,0,0-7.256,2.758l-.716,1.241a6.147,6.147,0,0,0,1.238,7.664,18.939,18.939,0,0,0,0,5.918,6.147,6.147,0,0,0-1.239,7.664l.717,1.241a6.141,6.141,0,0,0,7.256,2.758,18.64,18.64,0,0,0,5.126,2.963,6.146,6.146,0,0,0,6.017,4.9h1.433a6.146,6.146,0,0,0,6.017-4.9,18.64,18.64,0,0,0,5.126-2.963,6.141,6.141,0,0,0,1.932.314h0a6.164,6.164,0,0,0,5.324-3.072l.716-1.241A6.147,6.147,0,0,0,54.3,25.447Zm-3.153-6.254a15.9,15.9,0,0,1,0,6.59,1.52,1.52,0,0,0,.693,1.612,3.086,3.086,0,0,1,1.066,4.2l-.716,1.241a3.1,3.1,0,0,1-4.169,1.174,1.52,1.52,0,0,0-1.744.207,15.668,15.668,0,0,1-5.7,3.3,1.52,1.52,0,0,0-1.051,1.406,3.086,3.086,0,0,1-3.1,3.021H34.986a3.086,3.086,0,0,1-3.1-3.021,1.52,1.52,0,0,0-1.051-1.406,15.664,15.664,0,0,1-5.7-3.3,1.519,1.519,0,0,0-1.744-.207,3.061,3.061,0,0,1-1.478.377,3.115,3.115,0,0,1-2.691-1.552L18.5,31.591a3.086,3.086,0,0,1,1.066-4.2,1.52,1.52,0,0,0,.693-1.612,15.9,15.9,0,0,1,0-6.59,1.52,1.52,0,0,0-.693-1.612,3.086,3.086,0,0,1-1.066-4.2l.716-1.241a3.1,3.1,0,0,1,4.17-1.175,1.52,1.52,0,0,0,1.744-.207,15.671,15.671,0,0,1,5.7-3.3,1.52,1.52,0,0,0,1.051-1.406,3.086,3.086,0,0,1,3.1-3.021H36.42a3.086,3.086,0,0,1,3.1,3.021,1.52,1.52,0,0,0,1.051,1.406,15.664,15.664,0,0,1,5.7,3.3,1.52,1.52,0,0,0,1.744.207,3.06,3.06,0,0,1,1.478-.377,3.116,3.116,0,0,1,2.691,1.552l.717,1.241a3.086,3.086,0,0,1-1.066,4.2A1.519,1.519,0,0,0,51.145,19.193Z" transform="translate(-15.044 0)"/><path class="gearwheel" d="M88.314,74.939a13.375,13.375,0,1,0,13.375,13.375A13.39,13.39,0,0,0,88.314,74.939Zm0,23.711A10.335,10.335,0,1,1,98.649,88.314,10.347,10.347,0,0,1,88.314,98.65Z" transform="translate(-67.656 -65.827)"/></svg>