<svg id="Group174" data-name="Group174" xmlns="http://www.w3.org/2000/svg" width="40.378" height="24.672" viewBox="0 0 40.378 24.672">
  <path id="Path_62" data-name="Path 62" d="M304.315,199.057a4.615,4.615,0,1,0-4.615-4.615A4.62,4.62,0,0,0,304.315,199.057Zm0-7.385a2.77,2.77,0,1,1-2.77,2.77A2.773,2.773,0,0,1,304.315,191.672Z" transform="translate(-271.553 -187.507)" fill="#384765"/>
  <path id="Path_63" data-name="Path 63" d="M308.141,279.864a7.622,7.622,0,0,0-3.592.9.922.922,0,1,0,.872,1.626,5.772,5.772,0,0,1,8.416,4.167h-5.7a.923.923,0,0,0,0,1.845h6.693a.922.922,0,0,0,.923-.923,7.624,7.624,0,0,0-7.615-7.615Z" transform="translate(-275.379 -266.468)" fill="#384765"/>
  <path id="Path_64" data-name="Path 64" d="M78.572,286.556H72.794a5.772,5.772,0,0,1,8.416-4.167.922.922,0,1,0,.872-1.626,7.616,7.616,0,0,0-11.206,6.716.922.922,0,0,0,.923.923h6.775a.923.923,0,1,0,0-1.845Z" transform="translate(-70.875 -266.468)" fill="#384765"/>
  <path id="Path_65" data-name="Path 65" d="M99.878,199.057a4.615,4.615,0,1,0-4.615-4.615A4.62,4.62,0,0,0,99.878,199.057Zm0-7.385a2.77,2.77,0,1,1-2.77,2.77A2.773,2.773,0,0,1,99.878,191.672Z" transform="translate(-92.263 -187.507)" fill="#384765"/>
  <path id="Path_66" data-name="Path 66" d="M192.636,182.847a5.942,5.942,0,1,0-5.942-5.942A5.949,5.949,0,0,0,192.636,182.847Zm0-10.039a4.1,4.1,0,1,1-4.1,4.1A4.1,4.1,0,0,1,192.636,172.808Z" transform="translate(-172.447 -170.963)" fill="#384765"/>
  <path id="Path_67" data-name="Path 67" d="M163.56,282.575a10.032,10.032,0,0,0-10.02,10.02.922.922,0,0,0,.923.923h18.2a.922.922,0,0,0,.923-.923A10.032,10.032,0,0,0,163.56,282.575Zm-8.123,9.1a8.176,8.176,0,0,1,16.247,0Z" transform="translate(-143.372 -268.846)" fill="#384765"/>
</svg>
