<svg xmlns="http://www.w3.org/2000/svg" width="41.158" height="41.158" viewBox="0 0 41.158 41.158"><defs><style>.a{fill:#c8232c;}.b{fill:#fff;}</style></defs><path class="a" d="M20.579,0A20.579,20.579,0,1,1,0,20.579,20.579,20.579,0,0,1,20.579,0Z"/><path class="b" d="M83.781,63.781c-7.252,0-10.905,5.034-10.905,9.231,0,2.541.993,4.8,3.125,5.645a.529.529,0,0,0,.764-.369l.311-1.187a.7.7,0,0,0-.219-.823,4.168,4.168,0,0,1-1.007-2.9A7.117,7.117,0,0,1,83.364,66.3c4.1,0,6.35,2.425,6.35,5.662,0,4.26-1.947,7.856-4.839,7.856a2.309,2.309,0,0,1-2.408-2.848c.458-1.87,1.348-3.891,1.348-5.243a2,2,0,0,0-2.059-2.219c-1.632,0-2.943,1.635-2.943,3.825a5.526,5.526,0,0,0,.487,2.338l-1.964,8.053a16.085,16.085,0,0,0-.045,5.614.206.206,0,0,0,.363.085,15.663,15.663,0,0,0,2.755-4.837c.188-.657,1.074-4.062,1.074-4.062a4.411,4.411,0,0,0,3.727,1.843c4.9,0,8.233-4.331,8.233-10.126C93.442,67.863,89.609,63.781,83.781,63.781Z" transform="translate(-62.58 -54.77)"/></svg>