<svg id="maintenance" xmlns="http://www.w3.org/2000/svg" width="71.858" height="73.017" viewBox="0 0 71.858 73.017">
  <path id="Path_440" data-name="Path 440" d="M451.477,456a3.477,3.477,0,1,0,3.477,3.477A3.482,3.482,0,0,0,451.477,456Zm0,4.636a1.159,1.159,0,1,1,1.159-1.159A1.16,1.16,0,0,1,451.477,460.636Zm0,0" transform="translate(-383.096 -389.937)" fill="#7e7e7e"/>
  <path id="Path_441" data-name="Path 441" d="M6.954,3.477A3.477,3.477,0,1,0,3.477,6.954,3.482,3.482,0,0,0,6.954,3.477Zm-4.636,0A1.159,1.159,0,1,1,3.477,4.636,1.161,1.161,0,0,1,2.318,3.477Zm0,0" fill="#7e7e7e"/>
  <path id="Path_442" data-name="Path 442" d="M96.468,52.77l-2.289-4.578a25.683,25.683,0,0,0,1.243-2.972l4.846-1.616V30.344l-4.846-1.616a25.484,25.484,0,0,0-1.243-2.972l2.291-4.582L87.093,11.8l-4.582,2.291a25.487,25.487,0,0,0-2.972-1.243L77.924,8H64.662l-1.616,4.846a25.486,25.486,0,0,0-2.972,1.243L55.493,11.8l-9.377,9.377,2.291,4.582a25.486,25.486,0,0,0-1.243,2.972l-4.846,1.616V43.6l4.846,1.615A25.365,25.365,0,0,0,48.4,48.167L46.9,50.883H40v23.18h8.113V70.585h8.792l3.477,3.477h6.275v1.159a4.636,4.636,0,1,0,9.272,0V74.062h8.114a3.462,3.462,0,0,0,2.573-5.795,3.425,3.425,0,0,0,0-4.636,3.452,3.452,0,0,0,.851-1.788ZM50.734,47.653a23.2,23.2,0,0,1-1.547-3.7l-.178-.563-4.373-1.458V32.014l4.373-1.457.177-.564a23.02,23.02,0,0,1,1.546-3.7l.273-.525-2.069-4.139,7.013-7.013,4.139,2.069.525-.272a23.067,23.067,0,0,1,3.7-1.547l.564-.177,1.459-4.374h9.919l1.457,4.373.564.177a23.02,23.02,0,0,1,3.7,1.546l.525.273,4.139-2.069,7.013,7.013L91.58,25.769l.272.525a23.067,23.067,0,0,1,1.547,3.7l.177.564,4.374,1.459v9.919l-4.373,1.457-.178.563a23.2,23.2,0,0,1-1.547,3.7l-.272.525,2.071,4.141-6.849,6.9c-.059-.078-.122-.154-.186-.226a3.448,3.448,0,0,0-2.253-5.763A20.866,20.866,0,1,0,58.19,53.2H48.277l2.743-5ZM85.2,65.949a1.161,1.161,0,0,1-1.159,1.159H74.77a1.159,1.159,0,0,1,0-2.318h9.273A1.161,1.161,0,0,1,85.2,65.949ZM68.5,36.975h5.6l1.838-1.838V30.021a2.32,2.32,0,0,1,2.318,2.318v5.315L74.29,41.611H68.3l-3.957-3.957V32.339a2.32,2.32,0,0,1,2.318-2.318v5.116Zm.48,6.954h4.636v4.636H68.975Zm6.954-.679,4.636-4.636V32.339A4.641,4.641,0,0,0,75.929,27.7H73.611v6.474l-.48.48H69.455l-.48-.48V27.7H66.657a4.641,4.641,0,0,0-4.636,4.636v6.275l4.636,4.636v5.315h-2.8l-.073.073a13.9,13.9,0,1,1,15.14-.073h-3Zm11.59-6.275A16.226,16.226,0,1,0,62.1,50.325L60.43,51.994a18.54,18.54,0,1,1,22.4-.5,3.451,3.451,0,0,0-1.154-2.063,16.119,16.119,0,0,0,5.846-12.454ZM84.043,55.518a1.159,1.159,0,0,1,0,2.318H74.77a1.159,1.159,0,0,1,0-2.318ZM74.77,62.472a1.159,1.159,0,0,1,0-2.318h9.273a1.159,1.159,0,0,1,0,2.318ZM45.8,71.744H42.318V53.2H45.8Zm15.547,0-3.477-3.477H48.113V55.518h12.07l4.636-4.636H79.406a1.159,1.159,0,1,1,0,2.318H67.336l-4.976,4.976L64,59.815l2.658-2.658V71.744Zm9.951,5.795a2.32,2.32,0,0,1-2.318-2.318v-19.7h2.531A3.37,3.37,0,0,0,72.2,59a3.424,3.424,0,0,0,0,4.636,3.424,3.424,0,0,0,0,4.636,3.445,3.445,0,0,0,1.414,5.582v1.372a2.32,2.32,0,0,1-2.318,2.318Zm12.75-5.795H74.77a1.159,1.159,0,0,1,0-2.318h9.273a1.159,1.159,0,0,1,0,2.318Zm0,0" transform="translate(-34.205 -6.841)" fill="#7e7e7e"/>
  <path id="Path_443" data-name="Path 443" d="M16,72h2.318v2.318H16Zm0,0" transform="translate(-13.682 -61.569)" fill="#7e7e7e"/>
  <path id="Path_444" data-name="Path 444" d="M16,112h2.318v2.318H16Zm0,0" transform="translate(-13.682 -95.774)" fill="#7e7e7e"/>
  <path id="Path_445" data-name="Path 445" d="M16,152h2.318v2.318H16Zm0,0" transform="translate(-13.682 -129.979)" fill="#7e7e7e"/>
  <path id="Path_446" data-name="Path 446" d="M464,336h2.318v2.318H464Zm0,0" transform="translate(-396.778 -287.322)" fill="#7e7e7e"/>
  <path id="Path_447" data-name="Path 447" d="M464,376h2.318v2.318H464Zm0,0" transform="translate(-396.778 -321.527)" fill="#7e7e7e"/>
  <path id="Path_448" data-name="Path 448" d="M464,416h2.318v2.318H464Zm0,0" transform="translate(-396.778 -355.732)" fill="#7e7e7e"/>
</svg>
