<svg xmlns="http://www.w3.org/2000/svg" width="21" height="21.628" viewBox="0 0 21 21.628">
  <g id="Group_373" data-name="Group 373" transform="translate(-80.1 -272.056)">
    <path id="Path_213" data-name="Path 213" d="M88.264,276.655v-4.1l-7.664,5.4h5.817C87.437,277.957,88.264,277.374,88.264,276.655Z" fill="none" stroke="#384765" stroke-linecap="round" stroke-linejoin="round" stroke-width="1"/>
    <path id="Path_214" data-name="Path 214" d="M98.579,272.556H91.724a1.451,1.451,0,0,0-1.589,1.247l-.015,4.3a1.951,1.951,0,0,1-2.137,1.677H82.189a1.449,1.449,0,0,0-1.589,1.251v10.559a1.845,1.845,0,0,0,2.021,1.59H98.579a1.846,1.846,0,0,0,2.021-1.59V274.146A1.846,1.846,0,0,0,98.579,272.556Z" fill="none" stroke="#384765" stroke-linecap="round" stroke-linejoin="round" stroke-width="1"/>
  </g>
</svg>
