<svg xmlns="http://www.w3.org/2000/svg" width="24.704" height="16.27" viewBox="0 0 24.704 16.27">
  <g id="open-folder-black-and-white-variant" transform="translate(0 -87.578)">
    <path id="Path_434" data-name="Path 434" d="M18.618,102.844a1.7,1.7,0,0,0,1.429-.84l4.57-8.648c.273-.526-.124-.84-.84-.84H19.163V90.451a1.3,1.3,0,0,0-1.293-1.293H6.573l-.838-2.2a.59.59,0,0,0-.551-.38H.6a.589.589,0,0,0-.59.593l.011,3.28L0,101.554a1.3,1.3,0,0,0,1.293,1.293m16.69-10.33H7.922a1.392,1.392,0,0,0-1.134.84l-4.109,8.311H1.293a.114.114,0,0,1-.114-.114v-13.8h3.6l.838,2.2a.59.59,0,0,0,.551.38h11.7a.114.114,0,0,1,.114.114v2.066Z" transform="translate(0 1)" fill="#fff"/>
  </g>
</svg>
