<svg xmlns="http://www.w3.org/2000/svg" width="40.764" height="39.094" viewBox="0 0 40.764 39.094"><defs><style>.quarantine{fill:#db440d;}</style></defs><path class="quarantine" d="M40.294,30.731a1.592,1.592,0,0,1-2.252-.007l-1.259-1.267v5.8a1.592,1.592,0,1,1-3.185,0v-9L21.488,14.06a1.591,1.591,0,0,0-2.066,0L7.163,26.291c0,.015,0,.03,0,.046V43.216A3.188,3.188,0,0,0,10.35,46.4H30.414A3.188,3.188,0,0,0,33.6,43.216a1.592,1.592,0,1,1,3.185,0,6.377,6.377,0,0,1-6.369,6.369H10.35a6.377,6.377,0,0,1-6.369-6.369V29.467L2.717,30.728a1.592,1.592,0,0,1-2.25-2.254S17.254,11.722,17.276,11.7a4.773,4.773,0,0,1,6.368.013c.022.02,16.657,16.763,16.657,16.763a1.592,1.592,0,0,1-.007,2.252Zm-24.451,5.04a5.732,5.732,0,1,1,8.865.016,10.577,10.577,0,0,1,3.12,2.274,1.592,1.592,0,1,1-2.314,2.188A7.325,7.325,0,0,0,20.3,37.961,7.185,7.185,0,0,0,15.09,40.17a1.592,1.592,0,1,1-2.314-2.188,10.164,10.164,0,0,1,3.067-2.211Zm1.891-3.622A2.548,2.548,0,1,0,20.283,29.6a2.551,2.551,0,0,0-2.548,2.548Z" transform="translate(0 -10.492)"/></svg>