<svg id="Group_6z18" data-name="Group 6z18" xmlns="http://www.w3.org/2000/svg" width="61" height="61" viewBox="0 0 61 61">
  
  <path id="address" d="M7.032,12.012a4.986,4.986,0,0,0,4.98,4.98,1.172,1.172,0,1,1,0,2.344,7.324,7.324,0,1,1,7.324-7.324,1.172,1.172,0,0,1-2.344,0,4.98,4.98,0,1,0-9.961,0Zm.921,10.365C4.945,19.084,2.348,16.24,2.344,12A9.668,9.668,0,0,1,21.68,12a1.172,1.172,0,0,0,1.172,1.17h0A1.172,1.172,0,0,0,24.023,12a12.011,12.011,0,0,0-20.5-8.484A11.935,11.935,0,0,0,0,12a12.55,12.55,0,0,0,1.983,6.7,35.661,35.661,0,0,0,4.238,5.259,40.007,40.007,0,0,1,4.448,5.5A1.172,1.172,0,1,0,12.651,28.2a41.814,41.814,0,0,0-4.7-5.825Zm21.741.562a1.172,1.172,0,0,1-1.656.074l-.147-.134v3.878a3.3,3.3,0,0,1-3.3,3.3H18.006a3.3,3.3,0,0,1-3.3-3.3V22.933l-.088.08a1.172,1.172,0,1,1-1.581-1.73l6.048-5.53a3.306,3.306,0,0,1,4.484,0L27.445,19.3a1.172,1.172,0,0,1,.121.11l2.052,1.876a1.172,1.172,0,0,1,.074,1.656Zm-4.146-2.2-3.558-3.253a.974.974,0,0,0-1.321,0L17.051,20.79v5.967a.958.958,0,0,0,.956.958h6.585a.958.958,0,0,0,.955-.958Zm0,0" transform="translate(16 15)" fill="#18c4c7"/>
</svg>
