<svg xmlns="http://www.w3.org/2000/svg" width="48.68" height="43.789" viewBox="0 0 48.68 43.789">
  <g id="shopping-basket" transform="translate(0 -0.501)">
    <path id="Path_227" data-name="Path 227" d="M3.245,21.572h.867l1.353,18.95A4.072,4.072,0,0,0,9.513,44.29H39.167a4.072,4.072,0,0,0,4.047-3.768l1.353-18.95h.867a3.245,3.245,0,1,0,0-6.491H31.387l9.04-9.04a3.246,3.246,0,1,0-4.589-4.591L22.208,15.082H3.245a3.245,3.245,0,1,0,0,6.491ZM41.6,40.407a2.445,2.445,0,0,1-2.429,2.26H9.513a2.445,2.445,0,0,1-2.429-2.26L5.739,21.572h37.2Zm3.838-23.7a1.623,1.623,0,1,1,0,3.245H26.488c.056-.049.118-.087.17-.139L29.764,16.7Zm-22.218-.336L36.985,2.6a1.623,1.623,0,1,1,2.295,2.3L25.51,18.663a1.66,1.66,0,0,1-2.294,0,1.623,1.623,0,0,1,0-2.295ZM3.245,16.7H21.233a3.161,3.161,0,0,0,.836,3.106c.053.053.114.091.17.139H3.245a1.623,1.623,0,1,1,0-3.245Zm0,0" transform="translate(0 0)"/>
    <path id="Path_228" data-name="Path 228" d="M218.434,242.119a2.434,2.434,0,0,0,2.434-2.434V226.7a2.434,2.434,0,1,0-4.868,0v12.981A2.434,2.434,0,0,0,218.434,242.119Zm-.811-15.415a.811.811,0,1,1,1.623,0v12.981a.811.811,0,1,1-1.623,0Zm0,0" transform="translate(-194.094 -201.075)"/>
    <path id="Path_229" data-name="Path 229" d="M154.434,242.119a2.434,2.434,0,0,0,2.434-2.434V226.7a2.434,2.434,0,0,0-4.868,0v12.981A2.434,2.434,0,0,0,154.434,242.119Zm-.811-15.415a.811.811,0,1,1,1.623,0v12.981a.811.811,0,0,1-1.623,0Zm0,0" transform="translate(-136.585 -201.075)"/>
    <path id="Path_230" data-name="Path 230" d="M346.434,242.119a2.434,2.434,0,0,0,2.434-2.434V226.7a2.434,2.434,0,0,0-4.868,0v12.981A2.434,2.434,0,0,0,346.434,242.119Zm-.811-15.415a.811.811,0,0,1,1.623,0v12.981a.811.811,0,0,1-1.623,0Zm0,0" transform="translate(-309.113 -201.075)"/>
    <path id="Path_231" data-name="Path 231" d="M282.434,242.119a2.434,2.434,0,0,0,2.434-2.434V226.7a2.434,2.434,0,0,0-4.868,0v12.981A2.434,2.434,0,0,0,282.434,242.119Zm-.811-15.415a.811.811,0,0,1,1.623,0v12.981a.811.811,0,0,1-1.623,0Zm0,0" transform="translate(-251.604 -201.075)"/>
    <path id="Path_232" data-name="Path 232" d="M90.434,242.119a2.434,2.434,0,0,0,2.434-2.434V226.7a2.434,2.434,0,1,0-4.868,0v12.981A2.434,2.434,0,0,0,90.434,242.119ZM89.623,226.7a.811.811,0,0,1,1.623,0v12.981a.811.811,0,0,1-1.623,0Zm0,0" transform="translate(-79.076 -201.075)"/>
  </g>
</svg>
