<svg xmlns="http://www.w3.org/2000/svg" width="21" height="20.185" viewBox="0 0 21 20.185">
  <g id="Group_372" data-name="Group 372" transform="translate(-80.1 -209.102)">
    <rect id="Rectangle_47" data-name="Rectangle 47" width="8.816" height="8.816" rx="0.915" transform="translate(80.6 209.602)" fill="none" stroke="#384765" stroke-miterlimit="10" stroke-width="1"/>
    <path id="Rectangle_48" data-name="Rectangle 48" d="M.916,0H7.9a.915.915,0,0,1,.915.915V7.9a.915.915,0,0,1-.915.915H.915A.915.915,0,0,1,0,7.9V.916A.916.916,0,0,1,.916,0Z" transform="translate(91.784 209.602)" fill="none" stroke="#384765" stroke-miterlimit="10" stroke-width="1"/>
    <path id="Rectangle_49" data-name="Rectangle 49" d="M.916,0H7.9a.915.915,0,0,1,.915.915V7.9a.916.916,0,0,1-.916.916H.915A.915.915,0,0,1,0,7.9V.916A.916.916,0,0,1,.916,0Z" transform="translate(80.6 219.969)" fill="none" stroke="#384765" stroke-miterlimit="10" stroke-width="1"/>
    <path id="Path_212" data-name="Path 212" d="M94.4,218.967h-2.88v-2.876a.551.551,0,1,0-1.1,0v2.876H87.537a.551.551,0,1,0,0,1.1h2.878v2.878a.551.551,0,1,0,1.1,0v-2.878H94.4a.551.551,0,0,0,0-1.1Z" transform="translate(5.225 4.858)" fill="#384765"/>
  </g>
</svg>
