<svg xmlns="http://www.w3.org/2000/svg" width="78.347" height="78.3" viewBox="0 0 78.347 78.3">
  <g id="vector7" transform="translate(0 -0.153)">
    <g id="Group_617" data-name="Group 617" transform="translate(6.528 13.164)">
      <g id="Group_616" data-name="Group 616">
        <path id="Path_429" data-name="Path 429" d="M47.561,85.179a4.9,4.9,0,0,0-4.9,4.9v13.058h3.264V90.076a1.632,1.632,0,0,1,1.632-1.632H86.734V85.179Z" transform="translate(-42.664 -85.179)" fill="#fff"/>
      </g>
    </g>
    <g id="Group_619" data-name="Group 619" transform="translate(6.528 44.176)">
      <g id="Group_618" data-name="Group 618">
        <path id="Path_430" data-name="Path 430" d="M47.561,305.8a1.632,1.632,0,0,1-1.632-1.632V287.845H42.664v16.322a4.9,4.9,0,0,0,4.9,4.9H63.883V305.8Z" transform="translate(-42.664 -287.845)" fill="#fff"/>
      </g>
    </g>
    <g id="Group_621" data-name="Group 621" transform="translate(0 26.222)">
      <g id="Group_620" data-name="Group 620">
        <path id="Path_431" data-name="Path 431" d="M51.753,210.632l-39.64-39.64a1.632,1.632,0,0,0-2.308,0L.478,180.319a1.632,1.632,0,0,0,0,2.308l39.64,39.64a1.631,1.631,0,0,0,2.308,0l9.326-9.327A1.632,1.632,0,0,0,51.753,210.632ZM41.272,218.8,3.94,181.472l7.019-7.019,37.332,37.332Z" transform="translate(0 -170.514)" fill="#fff"/>
      </g>
    </g>
    <g id="Group_623" data-name="Group 623" transform="translate(47.334 62.13)">
      <g id="Group_622" data-name="Group 622">
        <path id="Path_432" data-name="Path 432" d="M333.814,405.179H309.331v3.264h17.954V416.6a1.632,1.632,0,0,0,1.632,1.632h4.9a6.529,6.529,0,1,0,0-13.058Zm0,9.793H330.55v-6.529h3.264a3.264,3.264,0,0,1,0,6.529Z" transform="translate(-309.331 -405.179)" fill="#fff"/>
      </g>
    </g>
    <g id="Group_625" data-name="Group 625" transform="translate(63.657 13.164)">
      <g id="Group_624" data-name="Group 624">
        <path id="Path_433" data-name="Path 433" d="M424.159,85.179H416v3.264h8.161a3.264,3.264,0,0,1,3.264,3.264v48.967h3.264V91.708A6.529,6.529,0,0,0,424.159,85.179Z" transform="translate(-415.998 -85.179)" fill="#fff"/>
      </g>
    </g>
    <g id="Group_627" data-name="Group 627" transform="translate(24.961 46.286)">
      <g id="Group_626" data-name="Group 626">
        <rect id="Rectangle_59" data-name="Rectangle 59" width="6.926" height="3.264" transform="translate(0 4.897) rotate(-45)" fill="#fff"/>
      </g>
    </g>
    <g id="Group_629" data-name="Group 629" transform="translate(18.433 39.757)">
      <g id="Group_628" data-name="Group 628">
        <rect id="Rectangle_60" data-name="Rectangle 60" width="6.926" height="3.264" transform="translate(0 4.897) rotate(-45)" fill="#fff"/>
      </g>
    </g>
    <g id="Group_631" data-name="Group 631" transform="translate(31.487 52.815)">
      <g id="Group_630" data-name="Group 630">
        <rect id="Rectangle_61" data-name="Rectangle 61" width="6.926" height="3.264" transform="translate(0 4.897) rotate(-45)" fill="#fff"/>
      </g>
    </g>
    <g id="Group_633" data-name="Group 633" transform="translate(38.019 59.347)">
      <g id="Group_632" data-name="Group 632">
        <rect id="Rectangle_62" data-name="Rectangle 62" width="6.926" height="3.264" transform="translate(0 4.897) rotate(-45)" fill="#fff"/>
      </g>
    </g>
    <g id="Group_635" data-name="Group 635" transform="translate(11.899 33.228)">
      <g id="Group_634" data-name="Group 634">
        <rect id="Rectangle_63" data-name="Rectangle 63" width="6.926" height="3.264" transform="translate(0 4.897) rotate(-45)" fill="#fff"/>
      </g>
    </g>
    <g id="Group_637" data-name="Group 637" transform="translate(36.03 0.153)">
      <g id="Group_636" data-name="Group 636" transform="translate(0 0)">
        <path id="Path_434" data-name="Path 434" d="M269.83,3.775l-2.256-2.256a4.939,4.939,0,0,0-6.821,0l-24.82,24.82a1.632,1.632,0,0,0,0,2.308l6.769,6.769a1.631,1.631,0,0,0,2.308,0L269.83,10.6l0,0A4.822,4.822,0,0,0,269.83,3.775Zm-2.306,4.512L243.857,31.954,239.4,27.493,263.063,3.827a1.6,1.6,0,0,1,2.2,0l2.257,2.254h0A1.559,1.559,0,0,1,267.524,8.286Z" transform="translate(-235.456 -0.153)" fill="#fff"/>
      </g>
    </g>
    <g id="Group_639" data-name="Group 639" transform="translate(32.644 26.977)">
      <g id="Group_638" data-name="Group 638">
        <path id="Path_435" data-name="Path 435" d="M224.591,181.188l-7.045,2.352,2.352-7.056-3.1-1.033-3.385,10.154a1.632,1.632,0,0,0,1.549,2.148,1.657,1.657,0,0,0,.509-.078l10.154-3.385Z" transform="translate(-213.328 -175.451)" fill="#fff"/>
      </g>
    </g>
    <g id="Group_641" data-name="Group 641" transform="translate(56.813 6.031)">
      <g id="Group_640" data-name="Group 640">
        <rect id="Rectangle_64" data-name="Rectangle 64" width="3.264" height="9.573" transform="translate(0 2.308) rotate(-45)" fill="#fff"/>
      </g>
    </g>
    <g id="Group_643" data-name="Group 643" transform="translate(34.276 36.015)">
      <g id="Group_642" data-name="Group 642">
        <rect id="Rectangle_65" data-name="Rectangle 65" width="24.483" height="3.264" fill="#fff"/>
      </g>
    </g>
    <g id="Group_645" data-name="Group 645" transform="translate(62.024 36.015)">
      <g id="Group_644" data-name="Group 644">
        <rect id="Rectangle_66" data-name="Rectangle 66" width="3.264" height="3.264" fill="#fff"/>
      </g>
    </g>
    <g id="Group_647" data-name="Group 647" transform="translate(68.553 36.015)">
      <g id="Group_646" data-name="Group 646">
        <rect id="Rectangle_67" data-name="Rectangle 67" width="3.264" height="3.264" fill="#fff"/>
      </g>
    </g>
  </g>
</svg>
