<svg id="app" xmlns="http://www.w3.org/2000/svg" width="48" height="48" viewBox="0 0 48 48">
  <path id="Path_76" data-name="Path 76" d="M18.857,0H1.714A1.713,1.713,0,0,0,0,1.714V18.857a1.713,1.713,0,0,0,1.714,1.714H18.857a1.713,1.713,0,0,0,1.714-1.714V1.714A1.713,1.713,0,0,0,18.857,0ZM17.143,17.143H3.429V3.429H17.143Z" fill="#5c667b"/>
  <path id="Path_77" data-name="Path 77" d="M18.857,264H1.714A1.713,1.713,0,0,0,0,265.714v17.143a1.713,1.713,0,0,0,1.714,1.714H18.857a1.713,1.713,0,0,0,1.714-1.714V265.714A1.713,1.713,0,0,0,18.857,264Zm-1.714,17.143H3.429V267.429H17.143Z" transform="translate(0 -236.571)" fill="#5c667b"/>
  <path id="Path_78" data-name="Path 78" d="M282.857,264H265.714A1.713,1.713,0,0,0,264,265.714v17.143a1.713,1.713,0,0,0,1.714,1.714h17.143a1.713,1.713,0,0,0,1.714-1.714V265.714A1.713,1.713,0,0,0,282.857,264Zm-1.714,17.143H267.429V267.429h13.714Z" transform="translate(-236.571 -236.571)" fill="#5c667b"/>
  <path id="Path_79" data-name="Path 79" d="M224.926,14.927a1.714,1.714,0,0,0,0-2.424l-12-12A1.714,1.714,0,0,0,210.5.5l-12,12a1.714,1.714,0,0,0,0,2.424l12,12a1.714,1.714,0,0,0,2.424,0l12-12Zm-22.788-1.212,9.576-9.576,9.576,9.576-9.576,9.576-9.576-9.576Z" transform="translate(-177.429 0)" fill="#5c667b"/>
</svg>
