<svg xmlns="http://www.w3.org/2000/svg" width="11.627" height="13.976" viewBox="0 0 11.627 13.976"><defs><style>.a{fill:#fff;}</style></defs><g transform="translate(0 13.976) rotate(-90)"><g transform="translate(0 0)"><path class="a" d="M13.753,5.271,8.706.223a.767.767,0,0,0-1.082,0L7.165.682a.759.759,0,0,0-.223.541.774.774,0,0,0,.223.547L10.11,4.721H.755A.746.746,0,0,0,0,5.473v.648a.775.775,0,0,0,.755.785h9.388L7.166,9.874a.758.758,0,0,0,0,1.074l.458.457a.767.767,0,0,0,1.082,0l5.047-5.047a.771.771,0,0,0,0-1.086Z"/></g></g></svg>