<svg xmlns="http://www.w3.org/2000/svg" width="41.127" height="41.127" viewBox="0 0 41.127 41.127"><defs><style>.a{fill:#6c27b3;}.b{fill:#501a96;}.c{fill:#fff;}.d{fill:#d1d1d1;}</style></defs><circle class="a" cx="20.5" cy="20.5" r="20.5"/><path class="b" d="M142.589,126a34.643,34.643,0,0,1-7.6.055c-3.6-.277-8.869-1.94-10.809,1.386-3.117,5.324-1.58,12.141-.853,18.174l10.831,10.829A20.58,20.58,0,0,0,153.6,137Z" transform="translate(-112.468 -115.31)"/><g transform="translate(8.8 8.8)"><path class="c" d="M126.008,109.468h-9.522a7.026,7.026,0,0,0-7.018,7.018v9.522a7.026,7.026,0,0,0,7.018,7.018h9.522a7.026,7.026,0,0,0,7.018-7.018v-9.522a7.026,7.026,0,0,0-7.018-7.018Zm4.648,16.54a4.648,4.648,0,0,1-4.648,4.648h-9.522a4.648,4.648,0,0,1-4.648-4.648v-9.522a4.648,4.648,0,0,1,4.648-4.648h9.522a4.648,4.648,0,0,1,4.648,4.648Z" transform="translate(-109.468 -109.468)"/><path class="c" d="M186.3,180.2a6.093,6.093,0,1,0,6.093,6.093A6.1,6.1,0,0,0,186.3,180.2Zm0,9.816a3.723,3.723,0,1,1,3.723-3.723,3.723,3.723,0,0,1-3.723,3.723Z" transform="translate(-174.516 -174.516)"/></g><g transform="translate(20.533 8.8)"><path class="d" d="M316.7,164.071a1.46,1.46,0,1,1-1.46-1.46,1.46,1.46,0,0,1,1.46,1.46Z" transform="translate(-309.086 -158.339)"/><path class="d" d="M260.233,109.468h-4.807v2.37h4.807a4.648,4.648,0,0,1,4.648,4.648v9.522a4.648,4.648,0,0,1-4.648,4.648h-4.807v2.37h4.807a7.026,7.026,0,0,0,7.018-7.018v-9.522A7.026,7.026,0,0,0,260.233,109.468Z" transform="translate(-255.426 -109.468)"/><path class="d" d="M255.472,180.2h-.046v2.37h.046a3.723,3.723,0,0,1,0,7.446h-.046v2.37h.046a6.093,6.093,0,0,0,0-12.186Z" transform="translate(-255.426 -174.516)"/></g></svg>