<svg xmlns="http://www.w3.org/2000/svg" width="17.473" height="17.433" viewBox="0 0 17.473 17.433">
  <g id="call-answer" transform="translate(0 -0.394)">
    <g id="Group_216" data-name="Group 216" transform="translate(0 0.394)">
      <g id="Group_215" data-name="Group 215" transform="translate(0 0)">
        <path id="Path_119" data-name="Path 119" d="M17.081,14.183l-2.7-2.7a1.407,1.407,0,0,0-1.984.037L11.039,12.88l-.268-.149A13.529,13.529,0,0,1,7.5,10.366,13.6,13.6,0,0,1,5.131,7.09c-.05-.091-.1-.179-.146-.262L5.9,5.917l.449-.449a1.406,1.406,0,0,0,.036-1.984l-2.7-2.7A1.406,1.406,0,0,0,1.7.823l-.761.765.021.021A4.4,4.4,0,0,0,.334,2.713,4.583,4.583,0,0,0,.055,3.835c-.356,2.954.994,5.653,4.657,9.317,5.064,5.063,9.144,4.681,9.321,4.662a4.56,4.56,0,0,0,1.124-.282,4.383,4.383,0,0,0,1.1-.624l.017.015.77-.754A1.408,1.408,0,0,0,17.081,14.183Z" transform="translate(0 -0.394)" fill="#384765"/>
      </g>
    </g>
  </g>
</svg>
