<svg id="checkout" xmlns="http://www.w3.org/2000/svg" width="28.995" height="22.001" viewBox="0 0 28.995 22.001">
  <path id="Path_42" data-name="Path 42" d="M114.542,195a1.041,1.041,0,0,0-1.042.931v.111a1.04,1.04,0,0,0,1.042,1.042l4.667.014a1.042,1.042,0,1,0,0-2.083Z" transform="translate(-99.68 -175.096)" fill="#fff"/>
  <path id="Path_44" data-name="Path 44" d="M42.78,56.228a1.047,1.047,0,0,0-.819-.4H21.195l-.875-3.347a1.042,1.042,0,0,0-1.014-.778H15.042a1.042,1.042,0,0,0,0,2.083H18.5l.861,3.32c0,.028.014.042.014.056l3.209,12.362A1.042,1.042,0,0,0,23.6,70.3H38.724a1.054,1.054,0,0,0,1.014-.778l3.222-12.4A1.03,1.03,0,0,0,42.78,56.228Zm-4.848,12H24.417l-2.681-10.32H40.613Z" transform="translate(-14 -51.7)" fill="#fff"/>
  <path id="Path_376" data-name="Path 376" d="M114.542,195a1.041,1.041,0,0,0-1.042.931v.111a1.04,1.04,0,0,0,1.042,1.042l4.667.014a1.042,1.042,0,1,0,0-2.083Z" transform="translate(-99.68 -186.096)" fill="#fff"/>
  <path id="Path_377" data-name="Path 377" d="M114.542,195a1.041,1.041,0,0,0-1.042.931v.111a1.04,1.04,0,0,0,1.042,1.042l4.667.014a1.042,1.042,0,1,0,0-2.083Z" transform="translate(-99.68 -183.096)" fill="#fff"/>
</svg>
