<svg id="credit-card" xmlns="http://www.w3.org/2000/svg" width="59.549" height="59.549" viewBox="0 0 59.549 59.549">
  <g id="Group_399" data-name="Group 399">
    <g id="Group_398" data-name="Group 398">
      <path id="Path_125" data-name="Path 125" d="M335.586,276a2.326,2.326,0,0,0-2.326,2.326,4.658,4.658,0,0,1-4.652,4.652H317.326a2.326,2.326,0,1,0,0,4.652h11.282a9.315,9.315,0,0,0,9.3-9.3A2.326,2.326,0,0,0,335.586,276Z" transform="translate(-278.364 -243.899)" fill="#949dae"/>
      <path id="Path_126" data-name="Path 126" d="M182.974,299.489l-4.3,4.246V285.326a2.326,2.326,0,0,0-4.652,0v18.179l-4.064-4.016a2.326,2.326,0,1,0-3.27,3.309l4.837,4.78a6.962,6.962,0,0,0,9.879,0l4.837-4.78a2.326,2.326,0,0,0-3.27-3.309Z" transform="translate(-146.693 -250.085)" fill="#949dae"/>
      <path id="Path_127" data-name="Path 127" d="M50.244,0H9.3A9.315,9.315,0,0,0,0,9.3V34.427a9.315,9.315,0,0,0,9.3,9.3H20.354a2.326,2.326,0,0,0,0-4.652H9.3a4.658,4.658,0,0,1-4.652-4.652V16.995H54.9V22.81a2.326,2.326,0,0,0,4.652,0V9.3A9.315,9.315,0,0,0,50.244,0ZM54.9,12.343H4.652V9.3A4.658,4.658,0,0,1,9.3,4.652h40.94A4.658,4.658,0,0,1,54.9,9.3Z" fill="#949dae"/>
    </g>
  </g>
</svg>
