<svg xmlns="http://www.w3.org/2000/svg" width="23.307" height="16.908" viewBox="0 0 23.307 16.908">
  <path id="delivery-truck_2_" data-name="delivery-truck(2)" d="M23.107,6.417,19.45,2.76a.682.682,0,0,0-.483-.2H15.993V2.511A2.514,2.514,0,0,0,13.482,0H2.511A2.514,2.514,0,0,0,0,2.511v9.143a2.514,2.514,0,0,0,2.511,2.511h.483a3.426,3.426,0,0,0,6.714,0H13.6a3.426,3.426,0,0,0,6.714,0h2.311a.683.683,0,0,0,.683-.683V6.9a.682.682,0,0,0-.2-.483ZM18.684,3.926l2.291,2.291H15.993V3.926ZM1.365,11.654V2.511A1.147,1.147,0,0,1,2.511,1.366H13.482a1.147,1.147,0,0,1,1.146,1.146v8.462A3.424,3.424,0,0,0,13.6,12.8H9.708a3.426,3.426,0,0,0-6.714,0H2.511a1.147,1.147,0,0,1-1.146-1.145Zm4.985,3.888a2.06,2.06,0,1,1,2.06-2.06A2.062,2.062,0,0,1,6.351,15.542Zm10.605,0a2.06,2.06,0,1,1,2.06-2.06A2.062,2.062,0,0,1,16.956,15.542ZM20.313,12.8a3.423,3.423,0,0,0-4.32-2.6V7.583h5.948V12.8H20.313Zm0,0" transform="translate(0 0)" fill="#fff"/>
</svg>
