<svg xmlns="http://www.w3.org/2000/svg" width="71.807" height="52.091" viewBox="0 0 71.807 52.091">
  <path id="delivery-truck_2_" data-name="delivery-truck-grey" d="M71.19,19.77,59.924,8.5a2.1,2.1,0,0,0-1.487-.616H49.273v-.15A7.745,7.745,0,0,0,41.537,0H7.737A7.745,7.745,0,0,0,0,7.737V35.9A7.745,7.745,0,0,0,7.737,43.64H9.224a10.554,10.554,0,0,0,20.685,0H41.9a10.554,10.554,0,0,0,20.686,0H69.7a2.1,2.1,0,0,0,2.1-2.1V21.258a2.1,2.1,0,0,0-.616-1.487ZM57.565,12.094l7.06,7.06H49.273v-7.06ZM4.207,35.9V7.737a3.533,3.533,0,0,1,3.53-3.529h33.8a3.533,3.533,0,0,1,3.529,3.529V33.806A10.55,10.55,0,0,0,41.9,39.433H29.909a10.554,10.554,0,0,0-20.685,0H7.737A3.533,3.533,0,0,1,4.207,35.9Zm15.359,11.98a6.347,6.347,0,1,1,6.346-6.347A6.354,6.354,0,0,1,19.566,47.884Zm32.673,0a6.347,6.347,0,1,1,6.346-6.347A6.354,6.354,0,0,1,52.24,47.884Zm10.343-8.451a10.546,10.546,0,0,0-13.309-8.022V23.361H67.6V39.434H62.583Zm0,0" transform="translate(0 0)" fill="#949dae"/>
</svg>
