<svg id="description" xmlns="http://www.w3.org/2000/svg" width="26.6" height="38" viewBox="0 0 26.6 38">
  <path id="Path_193" data-name="Path 193" d="M24.7,0H1.9A1.866,1.866,0,0,0,0,1.9V36.1A1.866,1.866,0,0,0,1.9,38H19.253L26.6,30.653V1.9A1.866,1.866,0,0,0,24.7,0Zm.633,30.147-5.7,5.7v-4.18a.6.6,0,0,1,.633-.633h3.167V29.767H20.267a1.866,1.866,0,0,0-1.9,1.9v5.067H1.9a.6.6,0,0,1-.633-.633V1.9A.6.6,0,0,1,1.9,1.267H24.7a.6.6,0,0,1,.633.633Zm0,0"/>
  <path id="Path_194" data-name="Path 194" d="M120,48h7.6v1.267H120Zm0,0" transform="translate(-110.5 -44.2)"/>
  <path id="Path_195" data-name="Path 195" d="M64,264H80.467v1.267H64Zm0,0" transform="translate(-58.933 -243.1)"/>
  <path id="Path_196" data-name="Path 196" d="M64,304H80.467v1.267H64Zm0,0" transform="translate(-58.933 -279.933)"/>
  <path id="Path_197" data-name="Path 197" d="M64,344H80.467v1.267H64Zm0,0" transform="translate(-58.933 -316.767)"/>
  <path id="Path_198" data-name="Path 198" d="M64,384H74.767v1.267H64Zm0,0" transform="translate(-58.933 -353.6)"/>
  <path id="Path_199" data-name="Path 199" d="M107.4,89.776V82.049l-5.7-2.85L96,82.049v7.727l5.7,2.85Zm-5.7-4.94-1.583-.95,3.8-2.153,1.583.76Zm.823-3.8-3.61,2.09L97.9,82.493l3.8-1.9Zm-5.257,2.533,3.8,2.343v3.673h1.267V85.913l3.8-2.343v5.447L101.7,91.233l-4.433-2.217Zm0,0" transform="translate(-88.4 -72.929)"/>
</svg>
