<svg xmlns="http://www.w3.org/2000/svg" width="28.704" height="23.92" viewBox="0 0 28.704 23.92">
  <g id="direct-download" transform="translate(0 -2)">
    <path id="Path_441" data-name="Path 441" d="M13.176,18.744a.9.9,0,0,1-.648-.277L6.249,11.889A.9.9,0,0,1,6.9,10.372h3.289V3.5a1.5,1.5,0,0,1,1.5-1.5h2.99a1.5,1.5,0,0,1,1.5,1.5v6.877h3.289a.9.9,0,0,1,.648,1.517l-6.279,6.578A.9.9,0,0,1,13.176,18.744Z" transform="translate(1.176)" fill="#db440d"/>
    <path id="Path_442" data-name="Path 442" d="M26.611,22.784H2.093A2.1,2.1,0,0,1,0,20.691v-.6A2.1,2.1,0,0,1,2.093,18H26.611A2.1,2.1,0,0,1,28.7,20.093v.6A2.1,2.1,0,0,1,26.611,22.784Z" transform="translate(0 3.136)" fill="#db440d"/>
  </g>
</svg>
