<svg id="diy-support" xmlns="http://www.w3.org/2000/svg" width="72.762" height="73.017" viewBox="0 0 72.762 73.017">
  <path id="Path_449" data-name="Path 449" d="M246.472,9.278a1.436,1.436,0,0,0,1.436-1.436V1.436a1.436,1.436,0,0,0-2.872,0V7.842A1.436,1.436,0,0,0,246.472,9.278Z" transform="translate(-210.219 0)" fill="#7e7e7e"/>
  <path id="Path_450" data-name="Path 450" d="M72.254,119.779l-2.537-2.53a4.81,4.81,0,0,0-5.691-.812l-4.781-4.775.233-.233a4.985,4.985,0,0,0,0-7.039,4.93,4.93,0,0,0-2.5-1.352,5.016,5.016,0,0,0,.2-1.4,4.973,4.973,0,0,0-3.956-4.871,5.015,5.015,0,0,0,.2-1.4A4.969,4.969,0,0,0,49.462,90.5a4.97,4.97,0,0,0-5.312-6.343l-9.474-1.793c-1.445-.274-3.249-.455-4.388.584a2.594,2.594,0,0,0-.217.225,5,5,0,0,0-5.24,1.152,4.941,4.941,0,0,0-1.455,3.521,5.022,5.022,0,0,0,.2,1.4,4.974,4.974,0,0,0-3.955,4.866,5.007,5.007,0,0,0,.2,1.4,4.98,4.98,0,0,0-3.087,7.685,4.977,4.977,0,0,0-1.912,8.233l.232.231-4.782,4.773a4.8,4.8,0,0,0-5.433.941l-2.539,2.532a4.8,4.8,0,0,0,0,6.775l3.168,3.165a1.436,1.436,0,1,0,2.03-2.032l-3.168-3.165a1.926,1.926,0,0,1,0-2.71l2.539-2.532a1.923,1.923,0,0,1,2.343-.287,1.448,1.448,0,0,0,.181.221,1.429,1.429,0,0,0,.413.287l14.56,14.538a1.415,1.415,0,0,0,.692.7,1.922,1.922,0,0,1-.08,2.622l-2.536,2.533a1.929,1.929,0,0,1-2.716,0l-3.168-3.169a1.436,1.436,0,0,0-2.031,2.031l3.171,3.171a4.809,4.809,0,0,0,6.773,0L27,139.524a4.8,4.8,0,0,0,.672-5.931l5.382-5.375.017-.018c.616-.637,2.332-.518,3.992-.4a20.657,20.657,0,0,0,3.778.025l5.893,5.886a4.8,4.8,0,0,0,.815,5.686l2.538,2.535a4.8,4.8,0,0,0,6.774,0l15.394-15.375a4.8,4.8,0,0,0,0-6.776ZM34.14,85.188l6.23,1.179L36.641,90.1a9.054,9.054,0,0,1-2.235-1.624,6.607,6.607,0,0,1-2.114-3.265h0a1.255,1.255,0,0,1-.006-.141,4.867,4.867,0,0,1,1.854.125Zm-7.281,1.171a2.119,2.119,0,0,1,2.68-.254,10.273,10.273,0,0,0,2.882,4.441,10.636,10.636,0,0,0,4.138,2.564A2.108,2.108,0,0,1,33.337,95.8h0l-6.477-6.465a2.115,2.115,0,0,1,0-2.977Zm-3.753,6.267a2.118,2.118,0,0,1,2.984,0l5.216,5.205a2.111,2.111,0,0,1-2.988,2.983h0L24.361,96.86l-.019-.018L23.1,95.6a2.108,2.108,0,0,1,0-2.978Zm-3.76,6.266a2.125,2.125,0,0,1,2.975-.01l3.969,3.967a2.108,2.108,0,0,1-2.987,2.975l-1.439-1.437h0l-2.517-2.514a2.113,2.113,0,0,1,0-2.981Zm-2.5,7.528a2.123,2.123,0,0,1,2.989,0l1.441,1.439a2.108,2.108,0,0,1-2.988,2.974l-.18-.18-.007-.007-.008-.007-1.245-1.24a2.109,2.109,0,0,1,0-2.979Zm29.269,16.323a1.436,1.436,0,0,0-2.031,0L42.8,124.018c-1.214,1.214-3.414,1.061-5.542.914-2.31-.161-4.7-.326-6.246,1.261l-5.29,5.284L12.5,118.267l4.682-4.673a4.981,4.981,0,0,0,7.581-4.248c0-.012,0-.025,0-.037H24.8a4.968,4.968,0,0,0,4.979-4.973c0-.012,0-.025,0-.037h.038a4.962,4.962,0,0,0,4.979-5.011h.039a4.982,4.982,0,0,0,4.251-7.572l4.1-4.1a2.107,2.107,0,0,1,1.078-.574c.043,0,.085-.011.127-.02a2.1,2.1,0,0,1,1.788,3.572l-1.25,1.245-.013.012-1.439,1.437a1.436,1.436,0,0,0,2.03,2.032l1.255-1.253h0l.19-.189a2.115,2.115,0,0,1,2.981.007,2.108,2.108,0,0,1,0,2.977l-1.257,1.259h0l-1.439,1.433a1.436,1.436,0,1,0,2.027,2.035l1.446-1.44a2.108,2.108,0,0,1,2.983,2.979l-2.506,2.507a1.436,1.436,0,1,0,2.031,2.031l1.228-1.228.022-.02a2.108,2.108,0,0,1,2.984,2.978L56.2,110.644h0l-1.982,1.979a1.436,1.436,0,0,0,2.03,2.032l.969-.968,4.646,4.64L48.631,131.543l-4.74-4.734a5.648,5.648,0,0,0,.943-.759l1.277-1.276a1.436,1.436,0,0,0,0-2.031Zm24.112,1.779L54.832,139.9a1.93,1.93,0,0,1-2.715,0l-2.538-2.535a1.921,1.921,0,0,1,0-2.706l15.394-15.375a1.93,1.93,0,0,1,2.716,0l2.537,2.53a1.925,1.925,0,0,1,0,2.711Z" transform="translate(-0.894 -70.437)" fill="#7e7e7e"/>
  <path id="Path_451" data-name="Path 451" d="M87.378,10.421a1.436,1.436,0,0,0,2.029-2.033L84.174,3.165A1.436,1.436,0,1,0,82.145,5.2Z" transform="translate(-70.196 -2.353)" fill="#7e7e7e"/>
  <path id="Path_452" data-name="Path 452" d="M373.087,10.841a1.432,1.432,0,0,0,1.015-.42l5.23-5.223a1.436,1.436,0,1,0-2.03-2.032l-5.23,5.223a1.436,1.436,0,0,0,1.015,2.452Z" transform="translate(-318.777 -2.354)" fill="#7e7e7e"/>
  <path id="Path_453" data-name="Path 453" d="M60.342,430.623a1.436,1.436,0,0,0,.017,2.031l0,0a1.436,1.436,0,1,0-.022-2.035Z" transform="translate(-51.511 -368.843)" fill="#7e7e7e"/>
  <path id="Path_454" data-name="Path 454" d="M333.949,334.991a1.437,1.437,0,1,0-.645-2.719l-.008,0a1.435,1.435,0,0,0,.653,2.715Z" transform="translate(-285.218 -284.754)" fill="#7e7e7e"/>
</svg>
