<svg xmlns="http://www.w3.org/2000/svg" width="21" height="21" viewBox="0 0 21 21"><defs><style>.edit-a{fill:#384765;}.edit-b{fill:#fff;}</style></defs><g transform="translate(-5 -5.501)"><path class="edit-a" d="M18.594,0H2.406A2.408,2.408,0,0,0,0,2.406V18.594A2.408,2.408,0,0,0,2.406,21H18.594A2.408,2.408,0,0,0,21,18.594V2.406A2.408,2.408,0,0,0,18.594,0Zm0,0" transform="translate(5 5.501)"/><g transform="translate(-0.232 2)"><path class="edit-b" d="M182.366,73.425a.33.33,0,0,0-.089.166l-.461,2.308a.326.326,0,0,0,.32.39.31.31,0,0,0,.064-.006l2.307-.461a.325.325,0,0,0,.167-.089l5.163-5.163-2.307-2.307Zm0,0" transform="translate(-171.576 -57.688)"/><path class="edit-b" d="M394.656.978a1.633,1.633,0,0,0-2.307,0l-.9.9,2.307,2.307.9-.9a1.631,1.631,0,0,0,0-2.307Zm0,0" transform="translate(-374.801 8)"/></g></g></svg>