<svg xmlns="http://www.w3.org/2000/svg" width="24" height="24" viewBox="0 0 24 24">
  <path id="email" data-name="email" d="M12,0A12,12,0,1,0,24,12,12,12,0,0,0,12,0Zm0,4.215,7.1,4.428H4.9Zm7.19,11.5h0A1.286,1.286,0,0,1,17.9,17H6.1a1.286,1.286,0,0,1-1.286-1.286V8.925a1.279,1.279,0,0,1,.02-.22l6.785,4.231.026.014.027.014a.712.712,0,0,0,.148.058l.016,0a.732.732,0,0,0,.167.021h0a.719.719,0,0,0,.167-.021l.016,0a.719.719,0,0,0,.148-.058l.027-.014.026-.014L19.171,8.7a1.278,1.278,0,0,1,.02.22v6.789Z" transform="translate(-0.001)" fill="#656565"/>
</svg>
