<svg xmlns="http://www.w3.org/2000/svg" width="86" height="64.5" viewBox="0 0 86 64.5"><defs><style>.folder-blue-a{fill:#12b0ff;}.folder-blue-b{fill:#36c6ff;}.folder-blue-c{fill:#f7f0eb;}.folder-blue-d{fill:#fffbf5;}</style></defs><g transform="translate(-10.667)"><path class="folder-blue-a" d="M86,19.917V55.75A10.782,10.782,0,0,1,75.25,66.5H57.8L65,59.333H75.25a3.594,3.594,0,0,0,3.583-3.583V19.917a3.594,3.594,0,0,0-3.583-3.583H36.729a3.7,3.7,0,0,1-2.544-1.039L28.093,9.167H10.75A3.594,3.594,0,0,0,7.167,12.75v43a3.594,3.594,0,0,0,3.583,3.583h3.619a7.49,7.49,0,0,0-.036.9A20.144,20.144,0,0,0,15.3,66.5H10.75A10.782,10.782,0,0,1,0,55.75v-43A10.782,10.782,0,0,1,10.75,2H29.563a3.7,3.7,0,0,1,2.544,1.039L38.2,9.167H75.25A10.782,10.782,0,0,1,86,19.917Z" transform="translate(10.667 -2)"/><g transform="translate(29.667 20)"><path class="folder-blue-a" d="M260.633,26.159h-1.29a16.173,16.173,0,0,0-12.387-9.939L246,32.97l.957,14.835h13.677a10.823,10.823,0,0,0,0-21.645Z" transform="translate(-222.456 -16.011)"/><path class="folder-blue-b" d="M21.891,14.04A16.162,16.162,0,0,0,5.861,28.226,9.1,9.1,0,0,0,9.1,45.833H24.5V14.249a16.348,16.348,0,0,0-2.609-.209Z" transform="translate(0 -14.04)"/></g><g transform="translate(46.957 33.844)"><path class="folder-blue-c" d="M253.818,236.9v-2.871h-1.436L252,235.461l.383,1.436Z" transform="translate(-245.173 -226.815)"/><path class="folder-blue-c" d="M253.287,158.692l-.287,1.42.287,1.451a4.343,4.343,0,0,1,4.339,4.339H260.5A7.218,7.218,0,0,0,253.287,158.692Z" transform="translate(-246.078 -158.692)"/><path class="folder-blue-d" d="M180.667,165.9h2.871a4.343,4.343,0,0,1,4.339-4.339v-2.871A7.218,7.218,0,0,0,180.667,165.9Z" transform="translate(-180.667 -158.692)"/><path class="folder-blue-d" d="M241,234.025h1.436V236.9H241Z" transform="translate(-235.226 -226.815)"/></g></g></svg>