<svg xmlns="http://www.w3.org/2000/svg" width="86" height="71.044" viewBox="0 0 86 71.044"><defs><style>.folder-orange{fill:#edb700;}</style></defs><g transform="translate(-10.667)"><g transform="translate(10.667 7.478)"><g transform="translate(0)"><path class="folder-orange" d="M87.319,53.884H44.1a5.6,5.6,0,0,1-5.321-3.836l-.329-.991a9.337,9.337,0,0,0-8.865-6.39H20.015a9.361,9.361,0,0,0-9.348,9.348v44.87a9.358,9.358,0,0,0,9.348,9.348H34.971a1.87,1.87,0,1,0,0-3.739H20.015a5.615,5.615,0,0,1-5.609-5.609V52.015a5.615,5.615,0,0,1,5.609-5.609h9.568A5.6,5.6,0,0,1,34.9,50.239l.333.995a9.337,9.337,0,0,0,8.865,6.39H87.319a5.615,5.615,0,0,1,5.609,5.609V96.884a5.615,5.615,0,0,1-5.609,5.609H72.363a1.87,1.87,0,0,0,0,3.739H87.319a9.356,9.356,0,0,0,9.348-9.348V63.232A9.358,9.358,0,0,0,87.319,53.884Z" transform="translate(-10.667 -42.667)"/></g></g><g transform="translate(14.406)"><path class="folder-orange" d="M101.174,0H41.348A9.361,9.361,0,0,0,32,9.348a1.87,1.87,0,0,0,3.739,0,5.615,5.615,0,0,1,5.609-5.609h59.826a5.615,5.615,0,0,1,5.609,5.609V20.565a1.87,1.87,0,1,0,3.739,0V9.348A9.359,9.359,0,0,0,101.174,0Z" transform="translate(-32)"/></g></g></svg>