<svg xmlns="http://www.w3.org/2000/svg" width="30" height="30" viewBox="0 0 30 30"><defs><style>.gear{fill:#5eae5e;}</style></defs><g transform="translate(8.203 8.203)"><path class="gear" d="M146.8,140a6.8,6.8,0,1,0,2.053,13.278,1.172,1.172,0,0,0-.707-2.235,4.447,4.447,0,1,1,2.929-2.993,1.172,1.172,0,0,0,2.25.658A6.8,6.8,0,0,0,146.8,140Z" transform="translate(-140 -140)"/></g><path class="gear" d="M26.484,10.9h-.59a.39.39,0,0,1-.357-.245l-.01-.025A.393.393,0,0,1,25.6,10.2l.417-.417a3.52,3.52,0,0,0,0-4.972l-.829-.829a3.516,3.516,0,0,0-4.972,0L19.8,4.4a.393.393,0,0,1-.43.077l-.022-.009a.392.392,0,0,1-.249-.358v-.59A3.52,3.52,0,0,0,15.586,0H14.414A3.52,3.52,0,0,0,10.9,3.516v.59a.391.391,0,0,1-.248.358l-.023.009A.393.393,0,0,1,10.2,4.4L9.78,3.979a3.516,3.516,0,0,0-4.972,0l-.829.829a3.52,3.52,0,0,0,0,4.972L4.4,10.2a.4.4,0,0,1,.075.435l-.007.017a.392.392,0,0,1-.358.249h-.59A3.52,3.52,0,0,0,0,14.414v1.172A3.52,3.52,0,0,0,3.516,19.1h.59a.39.39,0,0,1,.357.245l.01.025A.393.393,0,0,1,4.4,19.8l-.417.417a3.516,3.516,0,0,0,0,4.972l.829.829a3.516,3.516,0,0,0,4.972,0L10.2,25.6a.393.393,0,0,1,.43-.077l.022.009a.392.392,0,0,1,.249.358v.59A3.52,3.52,0,0,0,14.414,30h1.172A3.52,3.52,0,0,0,19.1,26.484v-.59a.391.391,0,0,1,.248-.358l.023-.009a.393.393,0,0,1,.431.077l.417.417a3.516,3.516,0,0,0,4.972,0l.829-.829a3.516,3.516,0,0,0,0-4.972L25.6,19.8a.393.393,0,0,1-.077-.431l.009-.021a.392.392,0,0,1,.358-.249h.59A3.52,3.52,0,0,0,30,15.586V14.414A3.52,3.52,0,0,0,26.484,10.9Zm1.172,4.687a1.173,1.173,0,0,1-1.172,1.172h-.59a2.728,2.728,0,0,0-2.525,1.7l-.008.018a2.729,2.729,0,0,0,.585,2.986l.417.417a1.172,1.172,0,0,1,0,1.657l-.829.829a1.172,1.172,0,0,1-1.657,0l-.417-.417a2.729,2.729,0,0,0-2.988-.584l-.017.007a2.728,2.728,0,0,0-1.7,2.525v.59a1.173,1.173,0,0,1-1.172,1.172H14.414a1.173,1.173,0,0,1-1.172-1.172v-.59a2.728,2.728,0,0,0-1.7-2.525l-.016-.007a2.767,2.767,0,0,0-1.063-.213,2.716,2.716,0,0,0-1.925.8l-.417.417a1.172,1.172,0,0,1-1.657,0l-.829-.829a1.172,1.172,0,0,1,0-1.657l.417-.417a2.729,2.729,0,0,0,.585-2.986l-.008-.018a2.728,2.728,0,0,0-2.525-1.7h-.59a1.173,1.173,0,0,1-1.172-1.172V14.414a1.173,1.173,0,0,1,1.172-1.172h.59a2.729,2.729,0,0,0,2.526-1.7l.005-.013A2.729,2.729,0,0,0,6.054,8.54l-.417-.417a1.173,1.173,0,0,1,0-1.657l.829-.829a1.172,1.172,0,0,1,1.657,0l.417.417a2.729,2.729,0,0,0,2.988.584l.017-.007a2.728,2.728,0,0,0,1.7-2.525v-.59a1.173,1.173,0,0,1,1.172-1.172h1.172a1.173,1.173,0,0,1,1.172,1.172v.59a2.728,2.728,0,0,0,1.7,2.525l.016.007a2.729,2.729,0,0,0,2.987-.584l.417-.417a1.172,1.172,0,0,1,1.657,0l.829.829a1.173,1.173,0,0,1,0,1.657l-.417.417a2.727,2.727,0,0,0-.586,2.983l.009.021a2.728,2.728,0,0,0,2.525,1.7h.59a1.173,1.173,0,0,1,1.172,1.172Z"/></svg>