<svg xmlns="http://www.w3.org/2000/svg" width="118.773" height="79" viewBox="0 0 118.773 79">
  <g id="Group_443" data-name="Group 443" transform="translate(-134.987 -142.067)">
    <g id="Group_432" data-name="Group 432" transform="translate(180.847 209.781)">
      <g id="Group_430" data-name="Group 430">
        <path id="Path_329" data-name="Path 329" d="M224.235,262.825A5.643,5.643,0,1,1,213.713,260a5.29,5.29,0,0,1,.889-1.168,5.642,5.642,0,0,1,7.98,0,5.289,5.289,0,0,1,.889,1.168A5.629,5.629,0,0,1,224.235,262.825Z" transform="translate(-212.949 -257.182)" fill="#006837"/>
        <path id="Path_330" data-name="Path 330" d="M214.247,269.6a5.288,5.288,0,0,1,.889-1.168,5.642,5.642,0,0,1,7.98,0,5.288,5.288,0,0,1,.889,1.168,5.289,5.289,0,0,1-.889,1.168,5.642,5.642,0,0,1-7.98,0A5.289,5.289,0,0,1,214.247,269.6Z" transform="translate(-213.483 -261.132)" fill="#fff" opacity="0.25" style="mix-blend-mode: overlay;isolation: isolate"/>
        <path id="Path_331" data-name="Path 331" d="M224.006,260h-9.759a5.29,5.29,0,0,1,.889-1.168,5.642,5.642,0,0,1,7.98,0A5.289,5.289,0,0,1,224.006,260Z" transform="translate(-213.483 -257.182)" opacity="0.25" style="mix-blend-mode: multiply;isolation: isolate"/>
      </g>
      <g id="Group_431" data-name="Group 431" transform="translate(32.304)">
        <path id="Path_332" data-name="Path 332" d="M279.151,262.825A5.643,5.643,0,1,1,268.63,260a5.272,5.272,0,0,1,.889-1.168,5.641,5.641,0,0,1,7.979,0,5.274,5.274,0,0,1,.89,1.168A5.563,5.563,0,0,1,279.151,262.825Z" transform="translate(-267.866 -257.182)" fill="#006837"/>
        <path id="Path_333" data-name="Path 333" d="M269.165,269.6a5.287,5.287,0,0,1,.889-1.168,5.642,5.642,0,0,1,7.98,0,5.289,5.289,0,0,1,.889,1.168,5.29,5.29,0,0,1-.889,1.168,5.642,5.642,0,0,1-7.98,0A5.288,5.288,0,0,1,269.165,269.6Z" transform="translate(-268.401 -261.132)" fill="#fff" opacity="0.25" style="mix-blend-mode: overlay;isolation: isolate"/>
        <path id="Path_334" data-name="Path 334" d="M278.923,260h-9.759a5.271,5.271,0,0,1,.889-1.168,5.641,5.641,0,0,1,7.979,0A5.274,5.274,0,0,1,278.923,260Z" transform="translate(-268.4 -257.182)" opacity="0.25" style="mix-blend-mode: multiply;isolation: isolate"/>
      </g>
    </g>
    <g id="Group_442" data-name="Group 442" transform="translate(134.987 142.067)">
      <g id="Group_436" data-name="Group 436" transform="translate(16.537 3.346)">
        <g id="Group_433" data-name="Group 433">
          <path id="Path_335" data-name="Path 335" d="M179.637,155.695l-2.755,2.822-2.755,2.821-7.761,7.94a11.244,11.244,0,0,1-3.266-7.94l2.755-2.821,2.755-2.822,7.761-7.94A11.244,11.244,0,0,1,179.637,155.695Z" transform="translate(-163.1 -147.755)" fill="#006837"/>
          <path id="Path_336" data-name="Path 336" d="M181.566,161.253l-2.755,2.821H167.784l2.755-2.821Z" transform="translate(-165.029 -153.313)" opacity="0.25" style="mix-blend-mode: multiply;isolation: isolate"/>
        </g>
        <g id="Group_434" data-name="Group 434" transform="translate(18.038 31.859)">
          <path id="Path_337" data-name="Path 337" d="M268.163,211.854l-12.4,2.822-12.4,2.821L199.7,227.435h-.006a11.288,11.288,0,0,1-5.928-9.938l24.8-5.643,43.669-9.938A11.3,11.3,0,0,1,268.163,211.854Z" transform="translate(-193.764 -201.916)" fill="#006837"/>
          <path id="Path_338" data-name="Path 338" d="M276.844,218.81l-12.4,2.821h-49.6l12.4-2.821Z" transform="translate(-202.445 -208.873)" opacity="0.25" style="mix-blend-mode: multiply;isolation: isolate"/>
        </g>
        <g id="Group_435" data-name="Group 435" transform="translate(9.799 14.738)">
          <path id="Path_339" data-name="Path 339" d="M272.195,182.941l-15.4,2.821-15.409,2.822-55.313,10.131a11.279,11.279,0,0,1-6.314-10.131l15.408-2.822,15.4-2.821,55.313-10.131A11.278,11.278,0,0,1,272.195,182.941Z" transform="translate(-179.758 -172.81)" fill="#006837"/>
          <path id="Path_340" data-name="Path 340" d="M282.98,190.032l-15.4,2.821H205.952l15.4-2.821Z" transform="translate(-190.544 -179.901)" opacity="0.25" style="mix-blend-mode: multiply;isolation: isolate"/>
        </g>
      </g>
      <g id="Group_441" data-name="Group 441">
        <g id="Group_437" data-name="Group 437">
          <path id="Path_341" data-name="Path 341" d="M168.061,153.353H140.63a5.643,5.643,0,0,1,0-11.286h16.145a11.289,11.289,0,0,1,11.286,11.286Z" transform="translate(-134.987 -142.067)" fill="#d9e021"/>
          <path id="Path_342" data-name="Path 342" d="M166.547,147.71h-31.56a5.644,5.644,0,0,1,5.643-5.643h16.145a11.283,11.283,0,0,1,9.772,5.643Z" transform="translate(-134.987 -142.067)" fill="#fff" style="mix-blend-mode: overlay;isolation: isolate"/>
        </g>
        <g id="Group_438" data-name="Group 438" transform="translate(16.537 16.929)">
          <path id="Path_343" data-name="Path 343" d="M265.336,182.132h-90.95A11.289,11.289,0,0,1,163.1,170.846h90.95A11.157,11.157,0,0,1,259.022,172a11.294,11.294,0,0,1,6.314,10.131Z" transform="translate(-163.1 -170.846)" fill="#8cc63f"/>
          <path id="Path_344" data-name="Path 344" d="M263.821,176.489H164.614a11.189,11.189,0,0,1-1.514-5.643h90.95A11.157,11.157,0,0,1,259.022,172,11.27,11.27,0,0,1,263.821,176.489Z" transform="translate(-163.1 -170.846)" fill="#fff" opacity="0.5" style="mix-blend-mode: overlay;isolation: isolate"/>
        </g>
        <g id="Group_439" data-name="Group 439" transform="translate(26.336 33.858)">
          <path id="Path_345" data-name="Path 345" d="M262.4,210.91H191.044a11.155,11.155,0,0,1-4.972-1.155,11.292,11.292,0,0,1-6.314-10.131H251.11a11.289,11.289,0,0,1,5.358,1.348,11.449,11.449,0,0,1,4.421,4.295A11.253,11.253,0,0,1,262.4,210.91Z" transform="translate(-179.758 -199.625)" fill="#39b54a"/>
          <path id="Path_346" data-name="Path 346" d="M260.889,205.267H181.272a11.206,11.206,0,0,1-1.514-5.642H251.11a11.289,11.289,0,0,1,5.358,1.348A11.449,11.449,0,0,1,260.889,205.267Z" transform="translate(-179.758 -199.625)" fill="#fff" opacity="0.5" style="mix-blend-mode: overlay;isolation: isolate"/>
        </g>
        <g id="Group_440" data-name="Group 440" transform="translate(34.575 50.786)">
          <path id="Path_347" data-name="Path 347" d="M259.924,234.046a5.642,5.642,0,0,1-5.643,5.643H205.049a11.188,11.188,0,0,1-5.351-1.348h-.006a11.412,11.412,0,0,1-4.422-4.3,11.249,11.249,0,0,1-1.506-5.643h60.517A5.642,5.642,0,0,1,259.924,234.046Z" transform="translate(-193.764 -228.403)" fill="#009245"/>
          <path id="Path_348" data-name="Path 348" d="M259.924,234.046H195.27a11.249,11.249,0,0,1-1.506-5.643h60.517A5.642,5.642,0,0,1,259.924,234.046Z" transform="translate(-193.764 -228.403)" fill="#fff" opacity="0.5" style="mix-blend-mode: overlay;isolation: isolate"/>
        </g>
      </g>
    </g>
  </g>
</svg>
