<svg xmlns="http://www.w3.org/2000/svg" width="30.77" height="30.789" viewBox="0 0 30.77 30.789"><defs><style>.home-run{fill:#384765;}</style></defs><g transform="translate(-0.001 -0.068)"><g transform="translate(0.001 0.068)"><path class="home-run" d="M30.762,13.386a2.689,2.689,0,0,0-.936-1.848L27.164,9.256V2.767a.9.9,0,0,0-.9-.9H22.657a.892.892,0,0,0-.889.9V4.616L17.206.724a2.688,2.688,0,0,0-3.517,0L.946,11.539a2.708,2.708,0,0,0,2.673,4.606V29.955a.892.892,0,0,0,.889.9H26.263a.9.9,0,0,0,.9-.9V16.145a2.7,2.7,0,0,0,3.6-2.759Zm-7.2-9.717h1.815V7.709L23.559,6.162Zm-4.5,25.383H11.72v-7.23h7.344Zm6.31,0H20.854v-8.12a.9.9,0,0,0-.9-.9H10.818a.892.892,0,0,0-.889.9v8.12H5.41v-14.2L15.443,6.329l9.931,8.51V29.052ZM28.75,14.181a.9.9,0,0,1-1.272.1L16.032,4.459a.9.9,0,0,0-1.17,0L3.293,14.278a.9.9,0,0,1-1.177-1.367L14.859,2.094a.9.9,0,0,1,1.174,0l12.62,10.815A.9.9,0,0,1,28.75,14.181Z" transform="translate(-0.001 -0.068)"/></g><g transform="translate(11.732 10.887)"><path class="home-run" d="M201.625,179.938H196.1a.892.892,0,0,0-.889.9v5.413a.892.892,0,0,0,.889.9h5.529a.9.9,0,0,0,.9-.9V180.84A.9.9,0,0,0,201.625,179.938Zm-.889,5.413H197v-3.609h3.738Z" transform="translate(-195.207 -179.938)"/></g><g transform="translate(15.446 23.639)"><ellipse class="home-run" cx="0.901" cy="0.902" rx="0.901" ry="0.902"/></g></g></svg>