<svg xmlns="http://www.w3.org/2000/svg" width="21" height="21" viewBox="0 0 21 21"><defs><style>.a{opacity:1;}.b{fill:#f44336;}.c{fill:#fafafa;}</style></defs><g class="a"><path class="b" d="M18.594,0H2.406A2.408,2.408,0,0,0,0,2.406V18.594A2.408,2.408,0,0,0,2.406,21H18.594A2.408,2.408,0,0,0,21,18.594V2.406A2.408,2.408,0,0,0,18.594,0Zm0,0"/><path class="c" d="M163.461,162.224a.875.875,0,1,1-1.237,1.237l-2.629-2.629-2.629,2.629a.875.875,0,0,1-1.237-1.237l2.629-2.629-2.629-2.629a.875.875,0,0,1,1.237-1.237l2.629,2.63,2.629-2.63a.875.875,0,0,1,1.237,1.237l-2.63,2.629Zm0,0" transform="translate(-149.095 -149.094)"/></g></svg>
