<svg id="unun" xmlns="http://www.w3.org/2000/svg" width="33" height="33" viewBox="0 0 33 33">
  <circle id="Ellipse_22" data-name="Ellipse 22" cx="16.5" cy="16.5" r="16.5" fill="#18c4c7"/>
  <g id="Group_781" data-name="Group 781" transform="translate(7 7)">
    <path id="Path_419" data-name="Path 419" d="M18.348,3.83V9.277a.717.717,0,0,1-.717.717h-.394a.717.717,0,0,1-.519-.222L13.6,6.5,8.047,13.59a.717.717,0,0,1-.564.275h0a.717.717,0,0,1-.564-.275l-1.9-2.425L4.008,12.482a.717.717,0,0,1-1.136-.874L4.449,9.557a.717.717,0,0,1,.565-.28h0a.717.717,0,0,1,.565.275l1.9,2.432,5.5-7.02a.717.717,0,0,1,1.083-.053L16.915,7.9V3.83A1.435,1.435,0,0,0,15.482,2.4H2.867A1.435,1.435,0,0,0,1.433,3.83V13.864A1.435,1.435,0,0,0,2.867,15.3H7.562a.717.717,0,0,1,0,1.433H2.867A2.87,2.87,0,0,1,0,13.864V3.83A2.87,2.87,0,0,1,2.867.963H15.482A2.87,2.87,0,0,1,18.348,3.83ZM2.867,5.694a2.15,2.15,0,1,1,2.15,2.15A2.153,2.153,0,0,1,2.867,5.694Zm1.433,0a.717.717,0,1,0,.717-.717A.718.718,0,0,0,4.3,5.694Z" transform="translate(0 -0.963)" fill="#fff"/>
    <path id="Path_461" data-name="Path 461" d="M11.669-4.837H7.975v3.694H6.037V-4.837H2.324V-6.785H6.037V-10.5H7.975v3.713h3.694Z" transform="translate(8.199 20.768)" fill="#fff"/>
  </g>
</svg>
