<svg id="Group_781" data-name="Group 781" xmlns="http://www.w3.org/2000/svg" width="31.189" height="32.043" viewBox="0 0 31.189 32.043">
  <path id="Path_419" data-name="Path 419" d="M26.825,5.154v7.964a1.048,1.048,0,0,1-1.048,1.048H25.2a1.048,1.048,0,0,1-.759-.325L19.882,9.06,11.764,19.423a1.048,1.048,0,0,1-.825.4h0a1.048,1.048,0,0,1-.825-.4L7.342,15.876,5.859,17.8A1.048,1.048,0,0,1,4.2,16.525l2.306-3a1.048,1.048,0,0,1,.826-.409h0a1.048,1.048,0,0,1,.826.4l2.779,3.556,8.04-10.263a1.048,1.048,0,0,1,1.583-.077l4.167,4.369V5.154a2.1,2.1,0,0,0-2.1-2.1H4.191a2.1,2.1,0,0,0-2.1,2.1v14.67a2.1,2.1,0,0,0,2.1,2.1h6.863a1.048,1.048,0,0,1,0,2.1H4.191A4.2,4.2,0,0,1,0,19.825V5.154A4.2,4.2,0,0,1,4.191.963H22.634A4.2,4.2,0,0,1,26.825,5.154ZM4.191,7.879a3.144,3.144,0,1,1,3.144,3.144A3.147,3.147,0,0,1,4.191,7.879Zm2.1,0A1.048,1.048,0,1,0,7.335,6.831,1.049,1.049,0,0,0,6.287,7.879Z" transform="translate(0 -0.963)" fill="#fff"/>
  <rect id="Rectangle_148" data-name="Rectangle 148" width="16" height="14" rx="2" transform="translate(15.189 18.043)" fill="#fff"/>
  <g id="check" transform="translate(19.319 22.617)">
    <path id="Path_460" data-name="Path 460" d="M7.905,56.579l-4.3,4.3a.815.815,0,0,1-1.153,0L.238,58.657A.815.815,0,0,1,1.391,57.5l1.642,1.642,3.72-3.72a.815.815,0,0,1,1.153,1.153Z" transform="translate(0 -55.188)" fill="#18c4c7"/>
  </g>
</svg>
