<svg xmlns="http://www.w3.org/2000/svg" width="17.667" height="17.667" viewBox="0 0 17.667 17.667">
  <g id="Info2Btn" transform="translate(-343 -723)">
    <path id="Path_184" data-name="Path 184" d="M8.833,0a8.833,8.833,0,1,0,8.833,8.833A8.843,8.843,0,0,0,8.833,0Zm0,16.061a7.227,7.227,0,1,1,7.227-7.227A7.235,7.235,0,0,1,8.833,16.061Z" transform="translate(343 723)"/>
    <path id="Path_185" data-name="Path 185" d="M146.072,70a1.071,1.071,0,1,0,1.07,1.071A1.072,1.072,0,0,0,146.072,70Z" transform="translate(205.761 656.747)"/>
    <path id="Path_186" data-name="Path 186" d="M150.8,140a.8.8,0,0,0-.8.8v4.818a.8.8,0,0,0,1.606,0V140.8A.8.8,0,0,0,150.8,140Z" transform="translate(201.03 590.495)"/>
  </g>
</svg>
