<svg xmlns="http://www.w3.org/2000/svg" width="55.7" height="44.69" viewBox="0 0 55.7 44.69"><defs><style>.laptop{fill:#db440d;}</style></defs><path class="laptop" d="M205.221,203.552a11.04,11.04,0,0,1,4.832-1.059l-5.02-4.87-6.221,6.036A7.749,7.749,0,0,0,205.221,203.552Z" transform="translate(-177.183 -181.629)"/><path class="laptop" d="M152.1,278.258l-5.691-5.522-3.029-.32a7.779,7.779,0,0,0-4.143.7,11.006,11.006,0,0,1-9.424.01l-.89-.419-5.716,5.546Z" transform="translate(-109.802 -248.247)"/><path class="laptop" d="M118.043,122.177l16.84,16.338V118.07H101.2v20.446Z" transform="translate(-90.193 -110.73)"/><path class="laptop" d="M82.095,87.953V50.6H33.734V87.953ZM37.81,54.678H78.018v29.2H37.81Z" transform="translate(-30.064 -50.602)"/><path class="laptop" d="M0,423.93H55.7v4.076H0Z" transform="translate(0 -383.316)"/></svg>