<svg xmlns="http://www.w3.org/2000/svg" width="36.099" height="38.5" viewBox="0 0 36.099 38.5">
  <g id="light-bulb" transform="translate(-19.087 0.001)">
    <g id="Group_398" data-name="Group 398" transform="translate(19.087 -0.001)">
      <g id="Group_397" data-name="Group 397" transform="translate(0 0)">
        <path id="Path_185" data-name="Path 185" d="M105.446,23.6a13.462,13.462,0,0,0-6.059,25.485V57.1a3.515,3.515,0,0,0,3.511,3.511h5.1A3.515,3.515,0,0,0,111.5,57.1v-8.02A13.462,13.462,0,0,0,105.446,23.6Zm1.047,24.6c-.345.032-.694.049-1.047.049s-.7-.017-1.047-.049a17.16,17.16,0,0,0-1.067-7.17h4.229A17.165,17.165,0,0,0,106.493,48.192Zm2.729,6.579h-7.552V49.984a13.476,13.476,0,0,0,7.552,0Zm0,2.33a1.23,1.23,0,0,1-1.229,1.229h-5.1a1.23,1.23,0,0,1-1.229-1.229v-.048h7.552Zm-.46-9.362c-.053-1.759.094-5.012,1.652-7.2a1.141,1.141,0,0,0-.929-1.8h-8.079a1.141,1.141,0,0,0-.929,1.8c1.559,2.184,1.7,5.437,1.652,7.2a11.182,11.182,0,1,1,6.633,0Z" transform="translate(-87.396 -22.112)"/>
        <path id="Path_186" data-name="Path 186" d="M22.389,4.917A1.141,1.141,0,0,0,24,3.3L21.035.335a1.141,1.141,0,0,0-1.614,1.614Z" transform="translate(-19.087 0)"/>
        <path id="Path_187" data-name="Path 187" d="M510.583,5.25a1.138,1.138,0,0,0,.807-.334l2.969-2.969A1.141,1.141,0,0,0,512.745.334L509.776,3.3a1.141,1.141,0,0,0,.807,1.948Z" transform="translate(-478.594 0.001)"/>
        <path id="Path_188" data-name="Path 188" d="M511.391,392.1a1.141,1.141,0,1,0-1.614,1.614l2.968,2.969a1.141,1.141,0,0,0,1.614-1.614Z" transform="translate(-478.595 -367.118)"/>
        <path id="Path_189" data-name="Path 189" d="M22.389,392.1l-2.969,2.969a1.141,1.141,0,1,0,1.614,1.614L24,393.71a1.141,1.141,0,1,0-1.614-1.614Z" transform="translate(-19.087 -367.117)"/>
      </g>
    </g>
  </g>
</svg>
