<svg xmlns="http://www.w3.org/2000/svg" width="35.847" height="43" viewBox="0 0 35.847 43">
  <g id="lightbulb" transform="translate(-35.966)">
    <g id="Group_414" data-name="Group 414" transform="translate(35.966)">
      <g id="Group_413" data-name="Group 413">
        <path id="Path_213" data-name="Path 213" d="M116.387,93.2a11.075,11.075,0,0,0-7.319,19.372c1.75,1.75,1.591,5.489,1.551,5.529a.659.659,0,0,0,.2.517.734.734,0,0,0,.477.2h10.143a.659.659,0,0,0,.477-.2.756.756,0,0,0,.2-.517c0-.04-.2-3.779,1.551-5.529l.119-.119a11.041,11.041,0,0,0-7.4-19.253Zm6.364,18.338c-.04.04-.119.119-.119.159-1.551,1.671-1.83,4.415-1.87,5.728h-8.791c-.04-1.313-.318-4.177-1.989-5.887a9.686,9.686,0,1,1,12.769,0Z" transform="translate(-98.431 -83.932)" fill="#231f20"/>
        <path id="Path_214" data-name="Path 214" d="M210.005,121.6a.676.676,0,1,0,0,1.352,7.24,7.24,0,0,1,7.24,7.24.676.676,0,1,0,1.352,0A8.556,8.556,0,0,0,210.005,121.6Z" transform="translate(-192.089 -109.507)" fill="#231f20"/>
        <path id="Path_215" data-name="Path 215" d="M165.43,358.4H156.6a1.671,1.671,0,1,0,0,3.341h8.791a1.716,1.716,0,0,0,1.71-1.671A1.681,1.681,0,0,0,165.43,358.4Zm0,1.949H156.6a.314.314,0,0,1-.318-.318.293.293,0,0,1,.318-.318h8.791a.314.314,0,0,1,.318.318A.284.284,0,0,1,165.43,360.349Z" transform="translate(-143.099 -322.759)" fill="#231f20"/>
        <path id="Path_216" data-name="Path 216" d="M176.005,398.8H169.8a1.671,1.671,0,0,0,0,3.341h6.205a1.681,1.681,0,0,0,1.671-1.671A1.655,1.655,0,0,0,176.005,398.8Zm0,1.949H169.8a.314.314,0,0,1-.318-.318.293.293,0,0,1,.318-.318h6.205a.318.318,0,0,1,0,.636Z" transform="translate(-154.986 -359.141)" fill="#231f20"/>
        <path id="Path_217" data-name="Path 217" d="M210.005,5.967a.67.67,0,0,0,.676-.676V.676a.676.676,0,0,0-1.352,0V5.29A.7.7,0,0,0,210.005,5.967Z" transform="translate(-192.089)" fill="#231f20"/>
        <path id="Path_218" data-name="Path 218" d="M296.733,33.241a.642.642,0,0,0-.915.159l-2.546,3.819a.655.655,0,0,0,.159.955.642.642,0,0,0,.358.119.635.635,0,0,0,.557-.318l2.546-3.819A.617.617,0,0,0,296.733,33.241Z" transform="translate(-267.559 -29.82)" fill="#231f20"/>
        <path id="Path_219" data-name="Path 219" d="M106.21,36.149a.642.642,0,0,0,.358-.119.7.7,0,0,0,.2-.955L104.3,31.217a.69.69,0,0,0-1.154.756l2.466,3.858A.66.66,0,0,0,106.21,36.149Z" transform="translate(-96.369 -27.836)" fill="#231f20"/>
        <path id="Path_220" data-name="Path 220" d="M40.994,105.552l-4.018-2.188a.7.7,0,0,0-.915.278.635.635,0,0,0,.278.915l4.018,2.188a.936.936,0,0,0,.318.08.656.656,0,0,0,.6-.358A.7.7,0,0,0,40.994,105.552Z" transform="translate(-35.966 -93.022)" fill="#231f20"/>
        <path id="Path_221" data-name="Path 221" d="M347.544,103.643a.7.7,0,0,0-.915-.278l-4.057,2.188a.7.7,0,0,0-.278.915.656.656,0,0,0,.6.358.749.749,0,0,0,.318-.08l4.057-2.188A.7.7,0,0,0,347.544,103.643Z" transform="translate(-311.768 -93.022)" fill="#231f20"/>
      </g>
    </g>
  </g>
</svg>
