<svg xmlns="http://www.w3.org/2000/svg" width="46.821" height="38.5" viewBox="0 0 46.821 38.5">
  <g id="link" transform="translate(0.001 -42.421)">
    <g id="Group_400" data-name="Group 400" transform="translate(17.933 42.421)">
      <g id="Group_399" data-name="Group 399" transform="translate(0 0)">
        <path id="Path_190" data-name="Path 190" d="M209.175,44.993a8.774,8.774,0,0,0-6.21-2.572h0a8.728,8.728,0,0,0-6.2,2.569L185.425,56.326a8.789,8.789,0,0,0-2.243,8.584A1.674,1.674,0,0,0,186.4,64a5.441,5.441,0,0,1,1.388-5.308l11.335-11.334a5.427,5.427,0,0,1,7.676,7.675L195.468,66.369a5.41,5.41,0,0,1-2.715,1.471,1.674,1.674,0,0,0,.346,3.313,1.655,1.655,0,0,0,.348-.037,8.749,8.749,0,0,0,4.387-2.38L209.171,57.4A8.775,8.775,0,0,0,209.175,44.993Z" transform="translate(-182.855 -42.421)"/>
      </g>
    </g>
    <g id="Group_402" data-name="Group 402" transform="translate(-0.001 52.232)">
      <g id="Group_401" data-name="Group 401" transform="translate(0 0)">
        <path id="Path_191" data-name="Path 191" d="M28.511,148.7a1.674,1.674,0,0,0-3.222.909,5.442,5.442,0,0,1-1.388,5.308L12.566,166.251a5.427,5.427,0,0,1-7.676-7.675l11.335-11.337a5.4,5.4,0,0,1,2.712-1.471,1.674,1.674,0,1,0-.657-3.283l-.033.007a8.762,8.762,0,0,0-4.389,2.38L2.522,156.208a8.776,8.776,0,0,0,12.41,12.412l11.335-11.337A8.789,8.789,0,0,0,28.511,148.7Z" transform="translate(0.001 -142.452)"/>
      </g>
    </g>
  </g>
</svg>
