<svg id="linkedin" xmlns="http://www.w3.org/2000/svg" width="41.158" height="41.158" viewBox="0 0 41.158 41.158">
  <ellipse id="Ellipse_3" data-name="Ellipse 3" cx="20.579" cy="20.579" rx="20.579" ry="20.579" transform="translate(0 0)" fill="#007ab9"/>
  <g id="Group_79" data-name="Group 79" transform="translate(9.93 8.793)">
    <path id="Path_38" data-name="Path 38" d="M50.013,37.411v8.484H45.094V37.979c0-1.988-.71-3.345-2.491-3.345a2.691,2.691,0,0,0-2.523,1.8,3.367,3.367,0,0,0-.163,1.2v8.263H35s.066-13.406,0-14.794h4.92v2.1c-.01.017-.024.033-.033.048h.033V33.2a4.884,4.884,0,0,1,4.433-2.444c3.236,0,5.663,2.114,5.663,6.658ZM29.852,23.969a2.563,2.563,0,1,0-.065,5.113h.032a2.564,2.564,0,1,0,.033-5.113ZM27.36,45.895h4.917V31.1H27.36Z" transform="translate(-27.068 -23.969)" fill="#f1f2f2"/>
  </g>
</svg>
