<svg xmlns="http://www.w3.org/2000/svg" width="76.271" height="63.665" viewBox="0 0 76.271 63.665">
  <g id="measuring-tape" transform="translate(-0.001 0)">
    <path id="Path_451" data-name="Path 451" d="M107.856,103.98a7.137,7.137,0,1,0,7.136,7.137A7.145,7.145,0,0,0,107.856,103.98Zm0,12.039a4.9,4.9,0,1,1,4.9-4.9A4.908,4.908,0,0,1,107.856,116.019Zm0,0" transform="translate(-85.714 -88.491)"/>
    <path id="Path_452" data-name="Path 452" d="M74.33,64.586a13.005,13.005,0,1,0,13,13.005A13.02,13.02,0,0,0,74.33,64.586Zm0,23.776A10.771,10.771,0,1,1,85.1,77.591,10.783,10.783,0,0,1,74.33,88.362Zm0,0" transform="translate(-52.188 -54.965)"/>
    <path id="Path_453" data-name="Path 453" d="M208.094,218.514a4.127,4.127,0,1,0,4.127-4.127A4.132,4.132,0,0,0,208.094,218.514Zm4.127-1.892a1.892,1.892,0,1,1-1.892,1.892A1.895,1.895,0,0,1,212.221,216.621Zm0,0" transform="translate(-177.094 -182.451)"/>
    <path id="Path_454" data-name="Path 454" d="M75.154,36.45H70.64a1.118,1.118,0,0,0-1.117,1.117v3.4h-4.66a1.117,1.117,0,1,0,0,2.234h4.66v2.28H49.787V43.2h9.868a1.117,1.117,0,1,0,0-2.234H49.787V37.8a7.092,7.092,0,0,0-2.09-5.046l-1.891-1.891A4.87,4.87,0,0,1,44.369,27.4V22.721a22.431,22.431,0,0,0-1.77-8.759l1.4-1.4a2.622,2.622,0,0,0,0-3.708l-.548-.548a1.886,1.886,0,0,1-.513-1.731l.236-1.114a2.614,2.614,0,0,0-.71-2.4L41.7,2.3a2.613,2.613,0,0,0-2.4-.711l-1.115.236a1.886,1.886,0,0,1-1.731-.513L35.912.768a2.621,2.621,0,0,0-3.708,0L30.855,2.116A21.874,21.874,0,0,0,22.2.335h-.012A22.185,22.185,0,0,0,0,22.52V40.577A7.126,7.126,0,0,0,2.747,46.2a4.13,4.13,0,0,0-.55.466C.16,48.724.146,52.775.151,53.217V60.44a3.224,3.224,0,1,0,6.448,0V53.368c0-3.333.816-5.017,1.23-5.654H25.4a1.117,1.117,0,0,0,0-2.234H7.137a4.907,4.907,0,0,1-4.9-4.9V22.52a19.95,19.95,0,0,1,19.95-19.95h.01a20.077,20.077,0,0,1,19.94,20.152V27.4a7.088,7.088,0,0,0,2.09,5.046l1.891,1.892A4.869,4.869,0,0,1,47.552,37.8v7.676H30.61a1.117,1.117,0,0,0,0,2.234H75.154A1.118,1.118,0,0,0,76.272,46.6V37.568a1.118,1.118,0,0,0-1.117-1.117ZM4.365,53.368V60.44a.99.99,0,1,1-1.979,0V53.206c-.009-.981.226-3.787,1.4-4.974a2.349,2.349,0,0,1,1.548-.561,14.619,14.619,0,0,0-.971,5.7Zm28.6-50.2.816-.816a.388.388,0,0,1,.548,0l.548.548a4.113,4.113,0,0,0,3.774,1.119l1.115-.236a.386.386,0,0,1,.354.1l.76.761A.386.386,0,0,1,40.989,5l-.236,1.115a4.112,4.112,0,0,0,1.118,3.774l.548.548a.388.388,0,0,1,0,.548l-.855.855a22.453,22.453,0,0,0-8.6-8.674ZM74.037,45.479h-2.28V38.685h2.28Zm0,0"/>
  </g>
</svg>
