<svg xmlns="http://www.w3.org/2000/svg" width="29.999" height="30" viewBox="0 0 29.999 30">
  <g id="Group_454" data-name="Group 454" transform="translate(0 0)">
    <path id="Path_358" data-name="Path 358" d="M7.705,27.656H3.556a1.191,1.191,0,0,1-.937-.446,1.225,1.225,0,0,1-.248-1.027A12.948,12.948,0,0,1,14.7,15.931c.1,0,.2.006.3.006s.2,0,.3-.006a12.835,12.835,0,0,1,4.233.815,1.172,1.172,0,0,0,.824-2.194q-.291-.109-.586-.206a7.969,7.969,0,1,0-9.539,0A15.239,15.239,0,0,0,.076,25.706,3.56,3.56,0,0,0,3.556,30H7.705a1.172,1.172,0,1,0,0-2.344ZM9.375,7.969a5.625,5.625,0,1,1,5.9,5.618c-.091,0-.182,0-.274,0l-.275,0A5.632,5.632,0,0,1,9.375,7.969Z" fill="#384765"/>
    <path id="Path_359" data-name="Path 359" d="M166.548,314.852A3.158,3.158,0,0,0,163.666,313H160a3.1,3.1,0,0,0-2.931,1.981c-.062.16-.137.362-.215.6h-7.673a1.172,1.172,0,0,0-.841.356l-2.013,2.074a1.172,1.172,0,0,0,0,1.638l2.051,2.087a1.172,1.172,0,0,0,.836.35h3.809a1.172,1.172,0,0,0,0-2.344h-3.317l-.9-.92.871-.9h8.056a1.172,1.172,0,0,0,1.138-.893,9.684,9.684,0,0,1,.386-1.207.768.768,0,0,1,.747-.478h3.657a.8.8,0,0,1,.744.465,7.568,7.568,0,0,1,.693,2.987,7.792,7.792,0,0,1-.688,3.041.8.8,0,0,1-.736.48h-3.7a.834.834,0,0,1-.756-.519,7.789,7.789,0,0,1-.363-1.16,1.172,1.172,0,1,0-2.279.546,10.088,10.088,0,0,0,.476,1.508,3.161,3.161,0,0,0,2.92,1.969h3.706a3.142,3.142,0,0,0,2.882-1.887,10.144,10.144,0,0,0,.883-3.983A9.922,9.922,0,0,0,166.548,314.852Z" transform="translate(-137.445 -294.66)" fill="#384765"/>
    <circle id="Ellipse_23" data-name="Ellipse 23" cx="1.188" cy="1.188" r="1.188" transform="translate(24.06 22.871)" fill="#384765"/>
  </g>
</svg>
