<svg id="package" xmlns="http://www.w3.org/2000/svg" width="36.508" height="36.508" viewBox="0 0 36.508 36.508">
  <g id="Group_93" data-name="Group 93" transform="translate(10.41 26.383)">
    <g id="Group_92" data-name="Group 92">
      <path id="Path_45" data-name="Path 45" d="M146.712,370a.713.713,0,1,0,.713.713A.713.713,0,0,0,146.712,370Z" transform="translate(-145.999 -370.002)" fill="#384765"/>
    </g>
  </g>
  <g id="Group_95" data-name="Group 95" transform="translate(0 0)">
    <g id="Group_94" data-name="Group 94" transform="translate(0)">
      <path id="Path_46" data-name="Path 46" d="M32.1,13.55l4.2-4.2a.713.713,0,0,0-.294-1.186L25.773,5a7.131,7.131,0,0,0-13.421-.537L.5,8.163A.713.713,0,0,0,.208,9.348L4.521,13.66,1.8,18.194a.713.713,0,0,0,.386,1.043l3.945,1.315V31.519a.713.713,0,0,0,.463.668c2.412.9,11.374,4.266,11.422,4.283a.71.71,0,0,0,.456.006l.006,0L31.314,32.2a.713.713,0,0,0,.488-.676V20.258l4.207-1.322a.713.713,0,0,0,.29-1.184Zm-6-6.417c0-.181-.008-.362-.021-.542l8.378,2.586L30.9,12.734,25.083,10.8A7.151,7.151,0,0,0,26.1,7.133ZM13.571,5.277a5.7,5.7,0,0,1,11.1,1.856,5.7,5.7,0,0,1-5.7,5.7,5.709,5.709,0,0,1-5.4-7.56Zm-11.52,3.9L11.912,6.1a7.189,7.189,0,0,0-.076,1.034,7.088,7.088,0,0,0,.79,3.263L5.611,12.734Zm1.431,8.992,2.255-3.758,11.449,3.816L14.93,21.981Zm14.059,16.6L7.558,31.025v-10c7.854,2.6,7.471,2.525,7.689,2.525a.713.713,0,0,0,.612-.346l1.682-2.8Zm.713-17.692L7.674,13.55l5.761-1.92A7.129,7.129,0,0,0,24.178,12l4.655,1.552ZM30.375,31l-11.409,3.8V19.861l2.528,3.16a.713.713,0,0,0,.771.235l8.11-2.549ZM22.3,21.748l-2.854-3.567L30.9,14.366l3.563,3.563Z" transform="translate(0 -0.002)" fill="#384765"/>
    </g>
  </g>
  <g id="Group_97" data-name="Group 97" transform="translate(13.103 27.325)">
    <g id="Group_96" data-name="Group 96">
      <path id="Path_47" data-name="Path 47" d="M186.306,383.859l-1.586-.595a.713.713,0,1,0-.5,1.335l1.586.595a.713.713,0,1,0,.5-1.335Z" transform="translate(-183.757 -383.219)" fill="#384765"/>
    </g>
  </g>
  <g id="Group_99" data-name="Group 99" transform="translate(10.41 29.362)">
    <g id="Group_98" data-name="Group 98">
      <path id="Path_48" data-name="Path 48" d="M151.237,413.429l-4.278-1.6a.713.713,0,1,0-.5,1.335l4.278,1.6a.713.713,0,1,0,.5-1.335Z" transform="translate(-145.995 -411.779)" fill="#384765"/>
    </g>
  </g>
  <g id="Group_101" data-name="Group 101" transform="translate(16.115 4.278)">
    <g id="Group_100" data-name="Group 100">
      <path id="Path_49" data-name="Path 49" d="M232.92,60.21a.713.713,0,0,0-1.008,0l-3.774,3.774-.922-.922a.713.713,0,1,0-1.008,1.008l1.426,1.426a.713.713,0,0,0,1.008,0l4.278-4.278A.713.713,0,0,0,232.92,60.21Z" transform="translate(-225.998 -60.001)" fill="#384765"/>
    </g>
  </g>
</svg>
