<svg xmlns="http://www.w3.org/2000/svg" width="23.797" height="22" viewBox="0 0 23.797 22">
  <g id="passage-of-time" transform="translate(0 -1.775)">
    <g id="Layer_1_65_" transform="translate(0 1.775)">
      <g id="Group_335" data-name="Group 335">
        <path id="Path_182" data-name="Path 182" d="M23.75,11.063a.5.5,0,0,0-.454-.288H21.814a10.992,10.992,0,1,0-1.287,7.5,1,1,0,0,0-1.731-1,9.009,9.009,0,1,1,.972-6.5H18.3a.5.5,0,0,0-.385.82l2.5,3a.5.5,0,0,0,.768,0l2.5-3A.5.5,0,0,0,23.75,11.063Z" transform="translate(0 -1.775)" fill="#edb700"/>
        <path id="Path_183" data-name="Path 183" d="M20.02,6.713a1,1,0,0,0-1,1v6.068a1.748,1.748,0,0,0,1,3.183,1.728,1.728,0,0,0,.738-.169L24.237,18.8a.989.989,0,0,0,.5.135,1,1,0,0,0,.5-1.866l-3.482-2.011a1.742,1.742,0,0,0-.734-1.279V7.713A1,1,0,0,0,20.02,6.713Zm0,9.25a.75.75,0,1,1,.75-.749A.751.751,0,0,1,20.02,15.963Z" transform="translate(-9.02 -4.213)" fill="#edb700"/>
      </g>
    </g>
  </g>
</svg>
