<svg xmlns="http://www.w3.org/2000/svg" width="63.665" height="63.665" viewBox="0 0 63.665 63.665">
  <g id="pencil" transform="translate(-0.001)">
    <g id="Group_698" data-name="Group 698" transform="translate(0.001 0)">
      <path id="Path_450" data-name="Path 450" d="M60.471,3.2a10.908,10.908,0,0,0-15.427,0L5.213,43.026a1.934,1.934,0,0,0-.5.868L.067,61.228A1.936,1.936,0,0,0,2.438,63.6l17.334-4.644a1.935,1.935,0,0,0,.868-.5L60.471,18.623a10.909,10.909,0,0,0,0-15.427ZM43.759,9.956l3.606,3.606L12.926,48,9.32,44.4ZM4.675,58.991,7.584,48.136l7.946,7.946Zm14.6-4.645-3.607-3.607L50.1,16.3l3.607,3.607ZM57.733,15.884l-1.285,1.285L46.5,7.218l1.285-1.285a7.036,7.036,0,0,1,9.951,9.951Z" transform="translate(-0.001 0)"/>
    </g>
  </g>
</svg>
