<svg xmlns="http://www.w3.org/2000/svg" width="26.77" height="25.914" viewBox="0 0 26.77 25.914">
  <g id="screwdriver-and-wrench" transform="translate(0 -0.428)">
    <path id="Path_436" data-name="Path 436" d="M17.6,12.3a2.781,2.781,0,0,1,1.854-.457l7.314-7.316-4.1-4.1L15.358,7.744a2.762,2.762,0,0,1-.476,1.877Z" fill="#c2c2c2"/>
    <path id="Path_437" data-name="Path 437" d="M4.842,21.207l-.265-.265L3.19,22.063.854,25.744l.6.6,3.684-2.336,1.12-1.383-.266-.269L10.642,17.7l-1.156-1.14Z" fill="#c2c2c2"/>
    <path id="Path_438" data-name="Path 438" d="M11.2,8.307A5.7,5.7,0,0,0,4.215,1.262L7.448,4.494,6.6,7.66l-3.17.848L.2,5.278A5.709,5.709,0,0,0,7.486,12.2l.018.018,13.3,13.3A2.695,2.695,0,0,0,24.614,21.7ZM22.94,25.061a1.029,1.029,0,1,1,1.031-1.029A1.027,1.027,0,0,1,22.94,25.061Z" fill="#c2c2c2"/>
  </g>
</svg>
