<svg xmlns="http://www.w3.org/2000/svg" width="23.667" height="23.675" viewBox="0 0 23.667 23.675"><defs><style>.search-order{fill:#384765;}</style></defs><g transform="translate(-0.08)"><g transform="translate(0.08)"><g transform="translate(0)"><path class="search-order" d="M9.8,0a9.722,9.722,0,1,0,9.722,9.722A9.722,9.722,0,0,0,9.8,0Zm0,16.062a6.34,6.34,0,1,1,6.34-6.34A6.34,6.34,0,0,1,9.8,16.062Z" transform="translate(-0.08)"/></g></g><g transform="translate(16.982 16.91)"><path class="search-order" d="M326.251,323.939l-3.381-3.381a1.692,1.692,0,0,0-2.392,2.392l3.381,3.381a1.692,1.692,0,0,0,2.392-2.392Z" transform="translate(-319.982 -320.062)"/></g></g></svg>