<svg id="security" xmlns="http://www.w3.org/2000/svg" width="23.403" height="27.852" viewBox="0 0 23.403 27.852">
  <path id="Path_21" data-name="Path 21" d="M40.485,7.172c-.014-.752-.028-1.462-.028-2.15a.975.975,0,0,0-.975-.975A13.442,13.442,0,0,1,29.493.276a.975.975,0,0,0-1.359,0,13.439,13.439,0,0,1-9.989,3.771.975.975,0,0,0-.975.975c0,.687-.014,1.4-.028,2.15-.134,7-.317,16.582,11.352,20.626a.974.974,0,0,0,.638,0C40.8,23.754,40.619,14.17,40.485,7.172ZM28.813,25.843c-10.007-3.635-9.856-11.6-9.722-18.634.008-.422.016-.831.021-1.233a15.033,15.033,0,0,0,9.7-3.677,15.036,15.036,0,0,0,9.7,3.677c.005.4.013.81.021,1.232C38.67,14.244,38.821,22.208,28.813,25.843Z" transform="translate(-17.112 0)" fill="#edb700"/>
  <path id="Path_22" data-name="Path 22" d="M76.887,79.171l-4.705,4.705-2.008-2.008a.975.975,0,0,0-1.379,1.379l2.7,2.7a.975.975,0,0,0,1.379,0l5.395-5.394a.975.975,0,1,0-1.379-1.379Z" transform="translate(-61.828 -68.632)" fill="#edb700"/>
</svg>
