<svg id="security" xmlns="http://www.w3.org/2000/svg" width="15.756" height="18.752" viewBox="0 0 15.756 18.752">
  <path fill="#384765" id="Path_21" data-name="Path 21" d="M32.848,4.829c-.01-.506-.019-.985-.019-1.447a.656.656,0,0,0-.656-.656A9.05,9.05,0,0,1,25.447.186a.656.656,0,0,0-.915,0,9.048,9.048,0,0,1-6.725,2.539.656.656,0,0,0-.656.656c0,.463-.009.941-.019,1.448-.09,4.711-.213,11.164,7.643,13.887a.656.656,0,0,0,.43,0C33.061,15.993,32.938,9.54,32.848,4.829ZM24.99,17.4c-6.737-2.447-6.636-7.809-6.545-12.545.005-.284.011-.56.014-.83A10.121,10.121,0,0,0,24.99,1.549a10.123,10.123,0,0,0,6.531,2.475c0,.27.009.545.014.829C31.626,9.59,31.728,14.951,24.99,17.4Z" transform="translate(-17.112 0)"/>
  <path fill="#384765" id="Path_22" data-name="Path 22" d="M74.149,79.078l-3.168,3.168L69.63,80.894a.656.656,0,0,0-.928.928l1.816,1.816a.656.656,0,0,0,.928,0l3.632-3.632a.656.656,0,0,0-.928-.928Z" transform="translate(-64.011 -71.982)"/>
</svg>
