<svg xmlns="http://www.w3.org/2000/svg" width="23.547" height="25.688" viewBox="0 0 23.547 25.688"><defs><style>.share-no-background{fill:#384765;}</style></defs><g transform="translate(0)"><path class="share-no-background" d="M321.625,19.479A3.478,3.478,0,1,1,318.147,16a3.479,3.479,0,0,1,3.478,3.478Zm0,0" transform="translate(-298.881 -15.197)"/><path class="share-no-background" d="M302.949,8.563a4.281,4.281,0,1,1,4.281-4.281A4.286,4.286,0,0,1,302.949,8.563Zm0-6.957a2.676,2.676,0,1,0,2.676,2.676,2.679,2.679,0,0,0-2.676-2.676Zm0,0" transform="translate(-283.683 0)"/><path class="share-no-background" d="M321.625,360.811a3.478,3.478,0,1,1-3.478-3.479A3.478,3.478,0,0,1,321.625,360.811Zm0,0" transform="translate(-298.881 -339.404)"/><path class="share-no-background" d="M302.949,349.895a4.281,4.281,0,1,1,4.281-4.281A4.286,4.286,0,0,1,302.949,349.895Zm0-6.957a2.676,2.676,0,1,0,2.676,2.676A2.679,2.679,0,0,0,302.949,342.938Zm0,0" transform="translate(-283.683 -324.207)"/><path class="share-no-background" d="M22.957,190.146a3.479,3.479,0,1,1-3.479-3.479A3.479,3.479,0,0,1,22.957,190.146Zm0,0" transform="translate(-15.197 -177.303)"/><path class="share-no-background" d="M4.281,179.23a4.281,4.281,0,1,1,4.281-4.281,4.286,4.286,0,0,1-4.281,4.281Zm0-6.957a2.676,2.676,0,1,0,2.676,2.676,2.679,2.679,0,0,0-2.676-2.676Zm0,0" transform="translate(0 -162.105)"/><path class="share-no-background" d="M115.42,98.019a1.07,1.07,0,0,1-.531-2l9.931-5.662a1.07,1.07,0,1,1,1.06,1.86l-9.932,5.662a1.063,1.063,0,0,1-.529.14Zm0,0" transform="translate(-108.611 -85.688)"/><path class="share-no-background" d="M125.372,274.022a1.064,1.064,0,0,1-.529-.14l-9.932-5.662a1.07,1.07,0,0,1,1.06-1.86l9.932,5.662a1.07,1.07,0,0,1-.531,2Zm0,0" transform="translate(-108.633 -252.862)"/></g></svg>