<svg xmlns="http://www.w3.org/2000/svg" width="24.144" height="16.825" viewBox="0 0 24.144 16.825"><defs><style>.a{fill:#fff;}</style></defs><g transform="translate(0 0)"><path class="a" d="M91.659,41.116l1.825,1.559,1.96,4.856a.71.71,0,0,0,.444.411l9.473,2.992a.71.71,0,0,0,.891-.891l-2.992-9.473a.71.71,0,0,0-.412-.445l-4.841-1.948-1.572-1.839a.71.71,0,0,0-1.042-.041l-3.776,3.777a.71.71,0,0,0,.041,1.042ZM104.024,47.7l-4.77-4.771a.71.71,0,0,0-1,1l4.77,4.77L96.636,46.69,94.92,42.438l2.833-2.833,4.256,1.713Zm-8.168-9.858.76.889L94.055,41.3l-.889-.76Z" transform="translate(-82.141 -36.09)"/><path class="a" d="M23.434,188.008H.71a.71.71,0,1,0,0,1.42H23.434a.71.71,0,1,0,0-1.42Z" transform="translate(0 -172.603)"/></g></svg>