<svg id="star" xmlns="http://www.w3.org/2000/svg" width="16.99" height="16.204" viewBox="0 0 16.99 16.204">
  <path id="Path_31" data-name="Path 31" d="M16.99,17.269q0-.378-.572-.47l-5.125-.745L9,11.409q-.194-.419-.5-.419t-.5.419L5.7,16.054.572,16.8Q0,16.892,0,17.269a.778.778,0,0,0,.255.49l3.717,3.614-.878,5.105a1.658,1.658,0,0,0-.02.2.6.6,0,0,0,.107.362.37.37,0,0,0,.322.148.866.866,0,0,0,.408-.122l4.584-2.41,4.585,2.41a.826.826,0,0,0,.408.122.36.36,0,0,0,.312-.148.6.6,0,0,0,.107-.362,1.542,1.542,0,0,0-.01-.2l-.878-5.105,3.706-3.614A.738.738,0,0,0,16.99,17.269Z" transform="translate(0 -10.99)" fill="#e6800a"/>
</svg>
