<svg xmlns="http://www.w3.org/2000/svg" width="49.083" height="47.037" viewBox="0 0 49.083 47.037"><defs><style>.star-transperant{fill:#fff;opacity:0.3;}</style></defs><path class="star-transperant" d="M48.954,18.269a2.605,2.605,0,0,0-2.244-1.792L32.542,15.191l-5.6-13.11a2.61,2.61,0,0,0-4.8,0l-5.6,13.11L2.372,16.477A2.612,2.612,0,0,0,.889,21.042L11.6,30.433,8.441,44.342a2.608,2.608,0,0,0,3.882,2.821l12.218-7.305,12.216,7.305a2.611,2.611,0,0,0,3.884-2.821L37.483,30.433l10.711-9.392a2.612,2.612,0,0,0,.761-2.773ZM24.776,39.716" transform="translate(0 -0.496)"/></svg>