<svg xmlns="http://www.w3.org/2000/svg" width="60.074" height="59.549" viewBox="0 0 60.074 59.549">
  <g id="support" data-name="support" transform="translate(-28.145 -29.21)">
    <circle id="Ellipse_6" data-name="Ellipse 6" cx="1.18" cy="1.18" r="1.18" transform="translate(80.629 35.425)" fill="#949dae"/>
    <circle id="Ellipse_7" data-name="Ellipse 7" cx="1.18" cy="1.18" r="1.18" transform="translate(80.629 40.355)" fill="#949dae"/>
    <circle id="Ellipse_8" data-name="Ellipse 8" cx="1.18" cy="1.18" r="1.18" transform="translate(80.629 45.285)" fill="#949dae"/>
    <path id="Path_111" data-name="Path 111" d="M111.934,111.793l-5.367-.826a4.283,4.283,0,0,1-3.512-3.2l-.3-1.192,1.465-.585a6.541,6.541,0,0,0,4.135-6.1V92.062a9.277,9.277,0,0,0-18.555,0V99.89a6.542,6.542,0,0,0,4.128,6.1l1.471.589-.3,1.185a4.282,4.282,0,0,1-3.512,3.2l-5.367.826a7.475,7.475,0,0,0-6.373,7.428v6.559a.986.986,0,0,0,.733.953,70.945,70.945,0,0,0,18.294,2.395,75.616,75.616,0,0,0,18.684-2.392.986.986,0,0,0,.743-.955v-6.559A7.475,7.475,0,0,0,111.934,111.793ZM91.775,99.89V92.062a7.305,7.305,0,0,1,14.611,0v7.823a4.578,4.578,0,0,1-2.895,4.273l-3.041,1.214a3.71,3.71,0,0,1-2.768,0l-3.017-1.209a4.579,4.579,0,0,1-2.89-4.271Zm24.56,25.119a70.576,70.576,0,0,1-34.509.008v-5.8a5.514,5.514,0,0,1,4.7-5.479l5.367-.826a6.251,6.251,0,0,0,5.125-4.673l.234-.938a5.552,5.552,0,0,0,3.653-.008l.236.946a6.252,6.252,0,0,0,5.125,4.673l5.367.826a5.513,5.513,0,0,1,4.7,5.479v5.788Z" transform="translate(-38.962 -40.369)" fill="#949dae"/>
    <path id="Path_112" data-name="Path 112" d="M212.825,125.362l-4.229-.627A3.11,3.11,0,0,1,206,122.477l-.181-.7.912-.364a5.2,5.2,0,0,0,3.287-4.852v-5.934a7.281,7.281,0,0,0-8.781-7.119.986.986,0,0,0,.406,1.93,5.309,5.309,0,0,1,6.4,5.19v5.934a3.237,3.237,0,0,1-2.046,3.02l-2.306.921a2.58,2.58,0,0,1-1.923,0,.986.986,0,1,0-.734,1.83,4.516,4.516,0,0,0,2.93.156l.125.481a5.079,5.079,0,0,0,4.213,3.714l4.229.627a4.009,4.009,0,0,1,3.521,3.92v4.975a.986.986,0,0,0,1.972,0v-4.975a5.968,5.968,0,0,0-5.2-5.871Z" transform="translate(-129.811 -55.869)" fill="#949dae"/>
    <path id="Path_113" data-name="Path 113" d="M57.788,122.974l.125-.481a4.515,4.515,0,0,0,2.93-.156.986.986,0,0,0-.734-1.83,2.578,2.578,0,0,1-1.923,0l-2.306-.921a3.237,3.237,0,0,1-2.046-3.02v-5.934a5.309,5.309,0,0,1,6.4-5.19.986.986,0,1,0,.406-1.93,7.281,7.281,0,0,0-8.781,7.119v5.934a5.2,5.2,0,0,0,3.287,4.852l.912.364-.181.7a3.111,3.111,0,0,1-2.593,2.259l-4.229.627a5.968,5.968,0,0,0-5.2,5.871v4.975a.986.986,0,1,0,1.972,0v-4.975a4.009,4.009,0,0,1,3.521-3.92l4.229-.627a5.079,5.079,0,0,0,4.213-3.714Z" transform="translate(-11.837 -55.87)" fill="#949dae"/>
    <path id="Path_114" data-name="Path 114" d="M40.048,46.663a.986.986,0,0,0,1.632-.745V42.895h.387a2.708,2.708,0,0,0,2.7-2.713V31.923a2.708,2.708,0,0,0-2.7-2.713H30.841a2.708,2.708,0,0,0-2.7,2.713v8.258a2.708,2.708,0,0,0,2.7,2.713H35.7Zm-9.931-6.482V31.923a.734.734,0,0,1,.724-.741H42.067a.734.734,0,0,1,.724.741v8.258a.734.734,0,0,1-.724.741H40.694a.986.986,0,0,0-.986.986v1.85l-2.992-2.595a.985.985,0,0,0-.646-.241H30.841A.734.734,0,0,1,30.117,40.181Z" fill="#949dae"/>
    <path id="Path_115" data-name="Path 115" d="M73.63,57.411a.894.894,0,1,0-.894-.894A.894.894,0,0,0,73.63,57.411Z" transform="translate(-33.599 -19.902)" fill="#949dae"/>
    <path id="Path_116" data-name="Path 116" d="M60.015,56.517a.894.894,0,1,0-.894.894A.894.894,0,0,0,60.015,56.517Z" transform="translate(-22.667 -19.902)" fill="#949dae"/>
    <path id="Path_117" data-name="Path 117" d="M44.612,55.623a.894.894,0,1,0,.894.894A.894.894,0,0,0,44.612,55.623Z" transform="translate(-11.734 -19.902)" fill="#949dae"/>
  </g>
</svg>
