<svg id="thumb-menu-gray" data-name="thumb-menu-gray" xmlns="http://www.w3.org/2000/svg" width="18.146" height="18.146" viewBox="0 0 18.146 18.146">
	<g id="Group_343" data-name="Group 343">
		<g id="Group_342" data-name="Group 342">
			<path id="Path_182" data-name="Path 182" d="M6.266,0H2.1A2.1,2.1,0,0,0,0,2.1V6.266a2.1,2.1,0,0,0,2.1,2.1H6.266a2.1,2.1,0,0,0,2.1-2.1V2.1A2.1,2.1,0,0,0,6.266,0Zm.681,6.266a.682.682,0,0,1-.681.681H2.1a.682.682,0,0,1-.681-.681V2.1A.682.682,0,0,1,2.1,1.418H6.266a.682.682,0,0,1,.681.681Z" fill="#949dae"/>
		</g>
	</g>
	<g id="Group_345" data-name="Group 345" transform="translate(9.782)">
		<g id="Group_344" data-name="Group 344">
			<path id="Path_183" data-name="Path 183" d="M282.238,0h-4.111A2.129,2.129,0,0,0,276,2.126V6.238a2.129,2.129,0,0,0,2.126,2.126h4.111a2.129,2.129,0,0,0,2.126-2.126V2.126A2.129,2.129,0,0,0,282.238,0Zm.709,6.238a.71.71,0,0,1-.709.709h-4.111a.71.71,0,0,1-.709-.709V2.126a.71.71,0,0,1,.709-.709h4.111a.71.71,0,0,1,.709.709Z" transform="translate(-276)" fill="#949dae"/>
		</g>
	</g>
	<g id="Group_347" data-name="Group 347" transform="translate(0 9.782)">
		<g id="Group_346" data-name="Group 346">
			<path id="Path_184" data-name="Path 184" d="M6.266,276H2.1A2.1,2.1,0,0,0,0,278.1v4.167a2.1,2.1,0,0,0,2.1,2.1H6.266a2.1,2.1,0,0,0,2.1-2.1V278.1A2.1,2.1,0,0,0,6.266,276Zm.681,6.266a.682.682,0,0,1-.681.681H2.1a.682.682,0,0,1-.681-.681V278.1a.682.682,0,0,1,.681-.681H6.266a.682.682,0,0,1,.681.681Z" transform="translate(0 -276)" fill="#949dae"/>
		</g>
	</g>
	<g id="Group_349" data-name="Group 349" transform="translate(9.782 9.782)">
		<g id="Group_348" data-name="Group 348">
			<path id="Path_185" data-name="Path 185" d="M282.238,276h-4.111A2.129,2.129,0,0,0,276,278.126v4.111a2.129,2.129,0,0,0,2.126,2.126h4.111a2.129,2.129,0,0,0,2.126-2.126v-4.111A2.129,2.129,0,0,0,282.238,276Zm.709,6.238a.71.71,0,0,1-.709.709h-4.111a.71.71,0,0,1-.709-.709v-4.111a.71.71,0,0,1,.709-.709h4.111a.71.71,0,0,1,.709.709Z" transform="translate(-276 -276)" fill="#949dae"/>
		</g>
	</g>
</svg>
