<svg id="vector6" xmlns="http://www.w3.org/2000/svg" width="78.3" height="78.3" viewBox="0 0 78.3 78.3">
  <g id="Group_612" data-name="Group 612">
    <g id="Group_611" data-name="Group 611">
      <path id="Path_427" data-name="Path 427" d="M76.006,0H66.83a2.294,2.294,0,0,0-2.294,2.294V4.588h-18.9a6.88,6.88,0,0,0-12.975,0h-18.9V2.294A2.294,2.294,0,0,0,11.47,0H2.294A2.294,2.294,0,0,0,0,2.294V11.47a2.294,2.294,0,0,0,2.294,2.294H11.47a2.294,2.294,0,0,0,2.294-2.294V9.145H23.3a30.137,30.137,0,0,0-13.912,23.5,6.879,6.879,0,1,0,4.6.046,25.614,25.614,0,0,1,19-22.749,6.878,6.878,0,0,0,12.327,0,25.613,25.613,0,0,1,19,22.749,6.884,6.884,0,1,0,4.6-.046A30.084,30.084,0,0,0,55,9.176h9.539V11.47a2.294,2.294,0,0,0,2.294,2.294h9.176A2.294,2.294,0,0,0,78.3,11.47V2.294A2.294,2.294,0,0,0,76.006,0ZM9.176,9.176H4.588V4.588H9.176Zm2.447,32.268a2.294,2.294,0,1,1,2.294-2.294A2.3,2.3,0,0,1,11.623,41.444ZM39.15,9.176a2.294,2.294,0,1,1,2.294-2.294A2.3,2.3,0,0,1,39.15,9.176Zm27.527,27.68a2.294,2.294,0,1,1-2.294,2.294A2.3,2.3,0,0,1,66.677,36.856Zm7.035-27.68H69.124V4.588h4.588Z" fill="#fff"/>
    </g>
  </g>
  <g id="Group_614" data-name="Group 614" transform="translate(18.504 18.506)">
    <g id="Group_613" data-name="Group 613">
      <path id="Path_428" data-name="Path 428" d="M161.906,149.557,143.554,122.03l0,0-.02-.029c-.031-.046-.065-.09-.1-.133a2.294,2.294,0,0,0-3.673.133l-.02.029,0,0-18.352,27.527a2.294,2.294,0,0,0,.287,2.895,29.063,29.063,0,0,1,8.283,16.96,11.819,11.819,0,0,0-1.026.93,11.627,11.627,0,0,0-3.341,8.168,2.294,2.294,0,0,0,2.294,2.294h27.527a2.294,2.294,0,0,0,2.294-2.294,11.628,11.628,0,0,0-3.341-8.168,11.825,11.825,0,0,0-1.026-.93,29.059,29.059,0,0,1,8.283-16.96A2.294,2.294,0,0,0,161.906,149.557Zm-20.26-1.021a2.294,2.294,0,1,1-2.294,2.294A2.3,2.3,0,0,1,141.646,148.536Zm-11.079,27.68a7.007,7.007,0,0,1,6.491-4.741h9.176a7.007,7.007,0,0,1,6.491,4.741Zm18.457-8.98a11.271,11.271,0,0,0-2.79-.349h-9.176a11.263,11.263,0,0,0-2.79.349,33.662,33.662,0,0,0-8.052-16.654l13.136-19.7v13.464a6.882,6.882,0,1,0,4.588,0V130.879l13.136,19.7A33.657,33.657,0,0,0,149.024,167.237Z" transform="translate(-121 -121.01)" fill="#fff"/>
    </g>
  </g>
</svg>
