<svg xmlns="http://www.w3.org/2000/svg" width="107.667" height="107.667" viewBox="0 0 107.667 107.667">
  <g id="virtual-reality" transform="translate(0 0)">
    <path id="Path_439" data-name="Path 439" d="M106.708,406.264,77.235,391.729a1.718,1.718,0,0,0-.76-.177H31.192a1.721,1.721,0,0,0-.76.177L.958,406.264a1.718,1.718,0,1,0,1.52,3.082l29.114-14.358H76.075l29.114,14.358a1.718,1.718,0,1,0,1.52-3.082Z" transform="translate(0 -301.856)" fill="#fff"/>
    <path id="Path_440" data-name="Path 440" d="M106.858.259a1.718,1.718,0,0,0-1.667-.082L77.679,13.745H29.992L2.48.178A1.718,1.718,0,0,0,0,1.718V98.286A1.718,1.718,0,0,0,2.48,99.827L29.992,86.259H77.679l27.512,13.568a1.718,1.718,0,0,0,2.478-1.541V1.718A1.719,1.719,0,0,0,106.858.259Zm-30.5,52.959H31.309V17.181H76.361V53.218ZM31.309,56.655h9.185L31.309,76.676Zm12.941.053c.008-.017.014-.035.021-.053H63.4c.007.017.013.035.021.053L75.4,82.824H32.27Zm22.926-.053h9.185V76.676ZM3.438,58.5l19.4-1.367a1.718,1.718,0,0,0-.242-3.428l-19.16,1.35V4.481l24.435,12.05V83.473L3.438,95.523ZM79.8,83.473V16.531l24.435-12.05V55.057l-19.16-1.35a1.718,1.718,0,0,0-.242,3.428l19.4,1.367V95.523Z" transform="translate(-0.002 0)" fill="#fff"/>
    <path id="Path_441" data-name="Path 441" d="M229.22,263.089a1.718,1.718,0,0,0-1.718,1.718v4.123a1.718,1.718,0,0,0,3.436,0v-4.123A1.718,1.718,0,0,0,229.22,263.089Z" transform="translate(-175.387 -202.821)" fill="#fff"/>
    <path id="Path_442" data-name="Path 442" d="M229.22,312.776a1.718,1.718,0,0,0-1.718,1.718v4.123a1.718,1.718,0,1,0,3.436,0v-4.123A1.718,1.718,0,0,0,229.22,312.776Z" transform="translate(-175.387 -241.126)" fill="#fff"/>
    <path id="Path_443" data-name="Path 443" d="M200.482,129.4a10.257,10.257,0,1,0-10.257-10.257A10.269,10.269,0,0,0,200.482,129.4Zm0-17.079a6.821,6.821,0,1,1-6.821,6.821A6.829,6.829,0,0,1,200.482,112.317Z" transform="translate(-146.649 -83.939)" fill="#fff"/>
  </g>
</svg>
