<svg xmlns="http://www.w3.org/2000/svg" width="21.667" height="17.755" viewBox="0 0 21.667 17.755"><defs><style>.wallet{fill:#384765;}</style></defs><g transform="translate(0 -39)"><g transform="translate(0 39)"><g transform="translate(0 0)"><path class="wallet" d="M19.591,39H4.429a2.081,2.081,0,0,0-2.071,2.081v.025H2.076A2.075,2.075,0,0,0,0,43.173v11.5a2.088,2.088,0,0,0,2.076,2.081H17.238a2.081,2.081,0,0,0,2.071-2.081v-.025h.281a2.075,2.075,0,0,0,2.076-2.066v-11.5A2.085,2.085,0,0,0,19.591,39ZM17.238,55.752H2.076A1.085,1.085,0,0,1,1,54.673v-11.5A1.072,1.072,0,0,1,2.076,42.11H17.238a1.065,1.065,0,0,1,1.068,1.063v2.869a1.235,1.235,0,0,1-.266.03H15.147a2.856,2.856,0,0,0,0,5.713h2.889c.09-.005.181-.015.266-.025l.005,2.914A1.078,1.078,0,0,1,17.238,55.752Zm3.426-3.17a1.072,1.072,0,0,1-1.073,1.063H19.31V51.4a2.741,2.741,0,0,0,.577-.527l.777-1Zm-1.57-2.317a1.35,1.35,0,0,1-1.053.522H15.147a1.856,1.856,0,0,1,0-3.711h2.889a2.288,2.288,0,0,0,1-.226,2.332,2.332,0,0,0,.848-.682l.777-1,.005,3.064Zm1.57-6.741L19.31,45.269v-2.1a2.068,2.068,0,0,0-2.071-2.066H3.36v-.025A1.078,1.078,0,0,1,4.429,40H19.591a1.085,1.085,0,0,1,1.073,1.078v2.443Z" transform="translate(0 -39)"/></g></g><g transform="translate(14.565 48.429)"><path class="wallet" d="M292.105,227h-1.2a.5.5,0,1,0,0,1h1.2a.5.5,0,0,0,0-1Z" transform="translate(-290.4 -227)"/></g></g></svg>