<svg xmlns="http://www.w3.org/2000/svg" width="42.443" height="42.694" viewBox="0 0 42.443 42.694">
  <g id="bottle-rack" transform="translate(-1.5)">
    <path id="Path_234" data-name="Path 234" d="M41.189,0a2.757,2.757,0,0,0-2.754,2.753V17.191H36.542V9.865a3.441,3.441,0,0,0-1.079-2.811,1.088,1.088,0,0,1-.388-.584V2.68a1.449,1.449,0,0,0-1.448-1.446H31.505A1.449,1.449,0,0,0,30.057,2.68V6.471a1.088,1.088,0,0,1-.388.584A3.441,3.441,0,0,0,28.59,9.865v7.325H26.7V9.865a3.442,3.442,0,0,0-1.078-2.811,1.094,1.094,0,0,1-.389-.584V2.68a1.448,1.448,0,0,0-1.446-1.446H21.659A1.447,1.447,0,0,0,20.213,2.68V6.471a1.088,1.088,0,0,1-.388.584,3.441,3.441,0,0,0-1.079,2.811v7.325H16.851V9.865a3.442,3.442,0,0,0-1.078-2.811,1.094,1.094,0,0,1-.389-.584V2.68a1.448,1.448,0,0,0-1.446-1.446H11.815A1.447,1.447,0,0,0,10.369,2.68V6.471a1.088,1.088,0,0,1-.388.584A3.441,3.441,0,0,0,8.9,9.865v7.325h-1.9V2.753a2.753,2.753,0,0,0-5.507,0v39.1a.834.834,0,0,0,.834.834H6.173a.834.834,0,0,0,.834-.834v-2.5H38.434v2.5a.834.834,0,0,0,.834.834H43.11a.834.834,0,0,0,.834-.834V25.517a.834.834,0,0,0-1.668,0V41.026H40.1V2.758a1.087,1.087,0,0,1,2.174,0V18.029a.834.834,0,1,0,1.668,0V2.758A2.757,2.757,0,0,0,41.189,0ZM5.339,41.021H3.168V2.753a1.086,1.086,0,0,1,2.171,0ZM31.725,2.9h1.682V4.635H31.725Zm-.871,5.326a2.649,2.649,0,0,0,.86-1.548,2.376,2.376,0,0,0,.011-.377h1.682c0,.081,0,.163,0,.244a1.893,1.893,0,0,0,.14.629,3.006,3.006,0,0,0,.731,1.052,1.645,1.645,0,0,1,.581,1.241H30.273a1.645,1.645,0,0,1,.581-1.241Zm-.6,2.909h4.616V13.35H30.258Zm0,3.881h4.616v2.173H30.258ZM21.881,2.9h1.68V4.635h-1.68ZM21.01,8.228a3.618,3.618,0,0,0,.524-.631,2.38,2.38,0,0,0,.222-.464,1.835,1.835,0,0,0,.125-.586V6.3h1.68v.244a1.83,1.83,0,0,0,.125.587,2.387,2.387,0,0,0,.222.463,3.627,3.627,0,0,0,.524.63,1.646,1.646,0,0,1,.581,1.242H20.429a1.644,1.644,0,0,1,.581-1.241Zm-.6,2.909h4.614V13.35H20.414Zm0,3.881h4.614v2.173H20.414ZM12.036,2.9h1.68V4.635h-1.68Zm-.871,5.326A3.618,3.618,0,0,0,11.69,7.6a2.38,2.38,0,0,0,.222-.464,1.835,1.835,0,0,0,.125-.586V6.3h1.68v.244a1.83,1.83,0,0,0,.125.587,2.387,2.387,0,0,0,.222.463,3.627,3.627,0,0,0,.524.63,1.646,1.646,0,0,1,.581,1.242H10.585A1.645,1.645,0,0,1,11.166,8.228Zm-.6,2.909h4.614V13.35H10.569Zm0,3.881h4.614v2.173H10.569Zm4.614,22.671H10.569V35.636h4.614Zm0-3.72H10.569V31.755h4.614Zm-1.467-7.047v.244a.831.831,0,0,0,.011.135,2.656,2.656,0,0,0,.86,1.546,1.645,1.645,0,0,1,.581,1.242H10.585a1.645,1.645,0,0,1,.581-1.241,2.649,2.649,0,0,0,.86-1.548.832.832,0,0,0,.011-.133v-.244Zm-1.68-1.668V23.52h1.68v1.734ZM25.028,37.688H20.414V35.636h4.614Zm0-3.72H20.414V31.755h4.614Zm-1.467-7.047v.244a.831.831,0,0,0,.011.135,2.656,2.656,0,0,0,.86,1.546,1.645,1.645,0,0,1,.581,1.242H20.429a1.645,1.645,0,0,1,.581-1.241,2.649,2.649,0,0,0,.86-1.548.832.832,0,0,0,.011-.133v-.244Zm-1.68-1.668V23.52h1.68v1.734ZM34.874,37.688H30.258V35.636h4.616Zm0-3.72H30.258V31.755h4.616Zm-3.149-7.047h1.682v.244a2.058,2.058,0,0,0,.278.932,3.366,3.366,0,0,0,.593.749,1.645,1.645,0,0,1,.581,1.241H30.273a2.051,2.051,0,0,1,.16-.692,4.981,4.981,0,0,1,.775-.943,2.448,2.448,0,0,0,.506-1.153A2.375,2.375,0,0,0,31.725,26.921Zm0-1.668V23.52h1.682v1.734Zm6.71,12.435H36.542v-7.2a3.441,3.441,0,0,0-1.079-2.811,1.088,1.088,0,0,1-.388-.584V23.3a1.449,1.449,0,0,0-1.448-1.446H31.505A1.449,1.449,0,0,0,30.057,23.3v3.791a1.088,1.088,0,0,1-.388.584,3.441,3.441,0,0,0-1.079,2.811v7.2H26.7v-7.2a3.441,3.441,0,0,0-1.078-2.811,1.094,1.094,0,0,1-.389-.584V23.3a1.447,1.447,0,0,0-1.446-1.446H21.659A1.447,1.447,0,0,0,20.213,23.3v3.791a1.088,1.088,0,0,1-.388.584,3.441,3.441,0,0,0-1.079,2.811v7.2H16.851v-7.2a3.441,3.441,0,0,0-1.078-2.811,1.094,1.094,0,0,1-.389-.584V23.3a1.447,1.447,0,0,0-1.446-1.446H11.815A1.447,1.447,0,0,0,10.369,23.3v3.791a1.088,1.088,0,0,1-.388.584A3.441,3.441,0,0,0,8.9,30.484v7.2h-1.9V18.859H38.434Z"/>
    <path id="Path_235" data-name="Path 235" d="M491.334,251.116a.834.834,0,0,0-.834.834v0a.834.834,0,1,0,.834-.839Z" transform="translate(-448.224 -230.176)"/>
  </g>
</svg>
