<svg xmlns="http://www.w3.org/2000/svg" width="65.333" height="65.333" viewBox="0 0 65.333 65.333">
  <g id="drill" transform="translate(0 0)">
    <g id="Group_697" data-name="Group 697" transform="translate(0 0)">
      <g id="Group_696" data-name="Group 696">
        <path id="Path_445" data-name="Path 445" d="M39.577,51.2H36.311a2.18,2.18,0,0,0-2.178,2.178v5.8A2.167,2.167,0,0,0,35.5,61.2L38.769,62.5a2.178,2.178,0,0,0,2.987-2.023v-7.1A2.18,2.18,0,0,0,39.577,51.2Zm0,9.281-3.267-1.307v-5.8h3.267Z" transform="translate(-29.777 -44.667)" fill="#384765"/>
        <path id="Path_446" data-name="Path 446" d="M64.244,10.889H58.8a2.18,2.18,0,0,0-2.178-2.178H54.147A2.31,2.31,0,0,0,52.722,7.6l-3.85-.88a3.271,3.271,0,0,0-3.14-2.369H39.454a3.261,3.261,0,0,0-2.432-1.089H33.755a2.18,2.18,0,0,0-.63.094L28.558.621A4.357,4.357,0,0,0,26.317,0H16.6a4.326,4.326,0,0,0-3.08,1.276l-.264.264a2.164,2.164,0,0,1-1.54.638H4.355A4.36,4.36,0,0,0,0,6.533V17.477a4.359,4.359,0,0,0,2.587,3.98l5.168,2.3a2.175,2.175,0,0,1,1.206,2.6A55.875,55.875,0,0,0,6.533,41.377v4.542a1.082,1.082,0,0,1-.319.77L4.676,48.228l0,0-.449.449a3.245,3.245,0,0,0-.957,2.31v8.9a5.451,5.451,0,0,0,5.444,5.444H33.1a3.255,3.255,0,0,0,1.812-.549l1.748-1.165A3.26,3.26,0,0,0,38.111,60.9V57.32a3.253,3.253,0,0,0-.608-1.9l-2.759-3.863a8.728,8.728,0,0,0-7.088-3.648H20.286a1.777,1.777,0,0,1-1.707-2.264l3.343-11.7a3.282,3.282,0,0,1,3.144-2.369,2.158,2.158,0,0,0,2.156-2.156V28.311a1.09,1.09,0,0,0-.115-.487c-.017-.033-1.6-3.268.471-4.957h2.91a3.271,3.271,0,0,0,3.082-2.187c.061.005.122.009.184.009h3.267A3.262,3.262,0,0,0,39.454,19.6h6.279a3.271,3.271,0,0,0,3.14-2.369l3.85-.88a2.309,2.309,0,0,0,1.425-1.106h2.474A2.18,2.18,0,0,0,58.8,13.066h5.444a1.089,1.089,0,0,0,0-2.178Zm-28.8,50.918L33.7,62.972a1.082,1.082,0,0,1-.6.183H8.711a3.27,3.27,0,0,1-3.267-3.267H35.933V60.9A1.087,1.087,0,0,1,35.448,61.806ZM21.778,50.088h5.877a6.547,6.547,0,0,1,5.316,2.736l2.759,3.863a1.084,1.084,0,0,1,.2.633v.391H5.444V50.99a1.082,1.082,0,0,1,.319-.77l.132-.132H21.778Zm-.932-18.68c-.9-2.4-.955-4.339-.171-5.791a6.146,6.146,0,0,1,4.156-2.7,7.134,7.134,0,0,0,.218,5.647l.014.835A5.468,5.468,0,0,0,20.846,31.408ZM31.577,19.6a1.09,1.09,0,0,1-1.089,1.089H25.044a.992.992,0,0,0-.12.007c-.176.019-4.332.517-6.156,3.87-1.325,2.435-1.035,5.629.857,9.494l-3.14,10.99a3.955,3.955,0,0,0,.271,2.861H8.034a3.244,3.244,0,0,0,.677-1.991V41.377a53.648,53.648,0,0,1,2.337-14.406,4.357,4.357,0,0,0-2.409-5.207l-5.168-2.3a2.18,2.18,0,0,1-1.294-1.99V6.533A2.18,2.18,0,0,1,4.356,4.355h7.358a4.326,4.326,0,0,0,3.08-1.276l.264-.264a2.164,2.164,0,0,1,1.54-.638h9.72a2.179,2.179,0,0,1,1.12.31L31.624,5a2.2,2.2,0,0,0-.046.445V19.6Zm5.444-1.089H33.755V16.333h1.089a1.089,1.089,0,0,0,0-2.178H33.755V9.8h1.089a1.089,1.089,0,0,0,0-2.178H33.755V5.444h3.267a1.09,1.09,0,0,1,1.089,1.089V17.422A1.09,1.09,0,0,1,37.022,18.511Zm8.711-1.089H40.288V10.889h3.267a1.089,1.089,0,0,0,0-2.178H40.288V6.533h5.444a1.09,1.09,0,0,1,1.089,1.089v8.711A1.09,1.09,0,0,1,45.733,17.422ZM49,14.967V8.986l3.21.731a.236.236,0,0,1,.056.17v4.182a.671.671,0,0,1-.029.158Zm5.444-1.9V10.889h2.178v1.073c0,.005,0,.01,0,.016s0,.011,0,.016v1.073Z" transform="translate(0 0)" fill="#384765"/>
        <path id="Path_447" data-name="Path 447" d="M131.445,51.2H120.556a1.089,1.089,0,1,0,0,2.178h10.889a1.089,1.089,0,0,0,0-2.178Z" transform="translate(-104.223 -44.667)" fill="#384765"/>
        <path id="Path_448" data-name="Path 448" d="M131.445,85.333H120.556a1.089,1.089,0,1,0,0,2.178h10.889a1.089,1.089,0,0,0,0-2.178Z" transform="translate(-104.223 -74.444)" fill="#384765"/>
        <path id="Path_449" data-name="Path 449" d="M131.445,119.467H120.556a1.089,1.089,0,0,0,0,2.178h10.889a1.089,1.089,0,0,0,0-2.178Z" transform="translate(-104.223 -104.223)" fill="#384765"/>
      </g>
    </g>
  </g>
</svg>
