<svg xmlns="http://www.w3.org/2000/svg" width="27.47" height="16.375" viewBox="0 0 27.47 16.375">
  <path id="dewfew" d="M13.735,98.725c-5.248,0-10.008,2.871-13.52,7.535a1.087,1.087,0,0,0,0,1.3c3.512,4.67,8.272,7.541,13.52,7.541s10.008-2.871,13.52-7.535a1.087,1.087,0,0,0,0-1.3C23.743,101.6,18.983,98.725,13.735,98.725Zm.376,13.953a5.778,5.778,0,1,1,5.389-5.389A5.781,5.781,0,0,1,14.111,112.678Zm-.174-2.664a3.111,3.111,0,1,1,2.905-2.905A3.106,3.106,0,0,1,13.937,110.014Z" transform="translate(0 -98.725)" fill="#384765"/>
</svg>
