<svg xmlns="http://www.w3.org/2000/svg" width="94.029" height="27.918" viewBox="0 0 94.029 27.918">
  <g id="Group_265" data-name="Group265" transform="translate(-1325.671 -1268)">
    <g id="star" transform="translate(1325.671 1271)">
      <path id="Path_31" data-name="Path 31" d="M24.029,19.871q0-.534-.809-.664l-7.249-1.054-3.249-6.571q-.274-.592-.708-.592t-.708.592L8.058,18.153.809,19.207Q0,19.337,0,19.871a1.1,1.1,0,0,0,.361.693l5.256,5.112L4.376,32.9a2.345,2.345,0,0,0-.029.289A.851.851,0,0,0,4.5,33.7a.524.524,0,0,0,.455.209,1.225,1.225,0,0,0,.578-.173l6.484-3.408L18.5,33.734a1.169,1.169,0,0,0,.577.173.509.509,0,0,0,.441-.209.853.853,0,0,0,.151-.513,2.182,2.182,0,0,0-.015-.289l-1.242-7.22,5.242-5.112A1.043,1.043,0,0,0,24.029,19.871Z" transform="translate(0 -10.99)" fill="#edb700"/>
    </g>
    <g id="star-2" data-name="star" transform="translate(1358.671 1268)">
      <path id="Path_31-2" data-name="Path 31" d="M29.272,21.809q0-.651-.985-.809l-8.831-1.284-3.958-8q-.334-.721-.862-.721t-.862.721l-3.958,8L.985,21Q0,21.158,0,21.809a1.34,1.34,0,0,0,.44.844l6.4,6.227-1.513,8.8a2.857,2.857,0,0,0-.035.352,1.037,1.037,0,0,0,.185.625.638.638,0,0,0,.554.255,1.492,1.492,0,0,0,.7-.211l7.9-4.152,7.9,4.152a1.424,1.424,0,0,0,.7.211.62.62,0,0,0,.537-.255,1.039,1.039,0,0,0,.184-.625,2.658,2.658,0,0,0-.018-.352l-1.513-8.8,6.386-6.227A1.271,1.271,0,0,0,29.272,21.809Z" transform="translate(0 -10.99)" fill="#edb700"/>
    </g>
    <g id="star-3" data-name="star" transform="translate(1395.671 1271)">
      <path id="Path_31-3" data-name="Path 31" d="M24.029,19.871q0-.534-.809-.664l-7.249-1.054-3.249-6.571q-.274-.592-.708-.592t-.708.592L8.058,18.153.809,19.207Q0,19.337,0,19.871a1.1,1.1,0,0,0,.361.693l5.256,5.112L4.376,32.9a2.345,2.345,0,0,0-.029.289A.851.851,0,0,0,4.5,33.7a.524.524,0,0,0,.455.209,1.225,1.225,0,0,0,.578-.173l6.484-3.408L18.5,33.734a1.169,1.169,0,0,0,.577.173.509.509,0,0,0,.441-.209.853.853,0,0,0,.151-.513,2.182,2.182,0,0,0-.015-.289l-1.242-7.22,5.242-5.112A1.043,1.043,0,0,0,24.029,19.871Z" transform="translate(0 -10.99)" fill="#edb700"/>
    </g>
  </g>
</svg>
