<svg id="hamburger-menu-gray" data-name="hamburger-menu-gray" xmlns="http://www.w3.org/2000/svg" width="17.941" height="18.146" viewBox="0 0 17.941 18.146">
	<path id="Path_186" data-name="Path 186" d="M17.194,124.608H.748a1,1,0,0,1,0-1.94H17.194a1,1,0,0,1,0,1.94Zm0,0" transform="translate(0 -114.565)" fill="#949dae"/>
	<path id="Path_187" data-name="Path 187" d="M17.194,1.94H.748A.881.881,0,0,1,0,.97.881.881,0,0,1,.748,0H17.194a.881.881,0,0,1,.748.97A.881.881,0,0,1,17.194,1.94Zm0,0" fill="#949dae"/>
	<path id="Path_188" data-name="Path 188" d="M17.194,247.272H.748a1,1,0,0,1,0-1.94H17.194a1,1,0,0,1,0,1.94Zm0,0" transform="translate(0 -229.126)" fill="#949dae"/>
</svg>
