<svg id="Save" xmlns="http://www.w3.org/2000/svg" width="25.6" height="23.023" viewBox="0 0 25.6 23.023">
  <path id="Path_205" data-name="Path 205" d="M25.6,4.963v7.6a1,1,0,0,1-1,1h-.55a1,1,0,0,1-.724-.31L18.974,8.69l-7.748,9.89a1,1,0,0,1-.787.383h0a1,1,0,0,1-.787-.384L7.006,15.195,5.592,17.034a1,1,0,0,1-1.585-1.22l2.2-2.861A1,1,0,0,1,7,12.563H7a1,1,0,0,1,.788.384L10.44,16.34l7.672-9.794a1,1,0,0,1,1.511-.073L23.6,10.642V4.963a2,2,0,0,0-2-2H4a2,2,0,0,0-2,2v14a2,2,0,0,0,2,2h6.55a1,1,0,0,1,0,2H4a4,4,0,0,1-4-4v-14a4,4,0,0,1,4-4H21.6A4,4,0,0,1,25.6,4.963ZM4,7.563a3,3,0,1,1,3,3A3,3,0,0,1,4,7.563Zm2,0a1,1,0,1,0,1-1A1,1,0,0,0,6,7.563Z" transform="translate(0 -0.963)" fill="#ffffff"/>
  <path id="Path_207" data-name="Path 207" d="M11.836-4.736H8.076v3.76H6.1v-3.76H2.324V-6.719H6.1V-10.5H8.076v3.779h3.76Z" transform="translate(13.1 24)" fill="#ffffff"/>
</svg>
