<svg xmlns="http://www.w3.org/2000/svg" width="59.462" height="59.549" viewBox="0 0 59.462 59.549">
  <g id="phone-call" transform="translate(-0.344 0)">
    <g id="Group_397" data-name="Group 397" transform="translate(0.344 0)">
      <path id="Path_122" data-name="Path 122" d="M47.364,60.85A5.857,5.857,0,0,0,43.115,58.9a6.056,6.056,0,0,0-4.3,1.936L34.846,64.8c-.327-.176-.654-.339-.968-.5-.452-.226-.88-.44-1.244-.666A43.165,43.165,0,0,1,22.29,54.2,25.466,25.466,0,0,1,18.9,48.847c1.031-.943,1.986-1.923,2.916-2.866.352-.352.7-.716,1.056-1.068a5.766,5.766,0,0,0,0-8.7l-3.431-3.431c-.39-.39-.792-.792-1.169-1.194-.754-.779-1.546-1.584-2.363-2.338a5.949,5.949,0,0,0-4.21-1.848,6.156,6.156,0,0,0-4.273,1.848l-.025.025L3.123,33.59A9.2,9.2,0,0,0,.4,39.434,22.032,22.032,0,0,0,2,48.759,54.115,54.115,0,0,0,11.62,64.8,59.145,59.145,0,0,0,31.314,80.218a30.685,30.685,0,0,0,11.06,3.268c.264.013.54.025.792.025a9.47,9.47,0,0,0,7.252-3.117c.013-.025.038-.038.05-.063a28.572,28.572,0,0,1,2.2-2.275c.54-.515,1.093-1.056,1.634-1.621a6.27,6.27,0,0,0,1.9-4.349,6.04,6.04,0,0,0-1.936-4.311Zm4.5,13.234c-.013,0-.013.013,0,0-.49.528-.993,1.005-1.533,1.533A33.046,33.046,0,0,0,47.9,78.131a6.059,6.059,0,0,1-4.726,2c-.189,0-.39,0-.578-.013a27.259,27.259,0,0,1-9.8-2.941A55.829,55.829,0,0,1,14.246,62.647,51.024,51.024,0,0,1,5.2,47.578,17.945,17.945,0,0,1,3.79,39.71a5.769,5.769,0,0,1,1.734-3.733L9.81,31.692a2.857,2.857,0,0,1,1.91-.892,2.688,2.688,0,0,1,1.835.88l.038.038c.767.716,1.5,1.458,2.262,2.25.39.4.792.8,1.194,1.219l3.431,3.431c1.332,1.332,1.332,2.564,0,3.9-.364.364-.716.729-1.081,1.081-1.056,1.081-2.061,2.086-3.155,3.067-.025.025-.05.038-.063.063a2.563,2.563,0,0,0-.654,2.853l.038.113a27.546,27.546,0,0,0,4.06,6.623l.013.013A46.13,46.13,0,0,0,30.8,66.481a17.161,17.161,0,0,0,1.546.842c.452.226.88.44,1.244.666.05.025.1.063.151.088a2.724,2.724,0,0,0,1.244.314,2.687,2.687,0,0,0,1.91-.867l4.3-4.3a2.843,2.843,0,0,1,1.9-.943,2.56,2.56,0,0,1,1.81.917l.025.025L51.85,70.15A2.485,2.485,0,0,1,51.863,74.084Z" transform="translate(-0.344 -23.962)" fill="#949dae"/>
      <path id="Path_123" data-name="Path 123" d="M246.34,89.291a16.175,16.175,0,0,1,13.171,13.171,1.686,1.686,0,0,0,1.672,1.408,2.244,2.244,0,0,0,.289-.025,1.7,1.7,0,0,0,1.4-1.961,19.559,19.559,0,0,0-15.936-15.936,1.706,1.706,0,0,0-1.961,1.382A1.678,1.678,0,0,0,246.34,89.291Z" transform="translate(-214.202 -75.126)" fill="#949dae"/>
      <path id="Path_124" data-name="Path 124" d="M276.989,26.268A32.205,32.205,0,0,0,250.746.026a1.694,1.694,0,1,0-.553,3.343,28.766,28.766,0,0,1,23.452,23.452,1.686,1.686,0,0,0,1.672,1.408,2.244,2.244,0,0,0,.289-.025A1.665,1.665,0,0,0,276.989,26.268Z" transform="translate(-217.552 0)" fill="#949dae"/>
    </g>
  </g>
</svg>
