<svg xmlns="http://www.w3.org/2000/svg" width="110" height="110" viewBox="0 0 110 110"><defs><style>.photo{opacity:0.07;}</style></defs><g class="photo"><path d="M106.777,0H3.223A3.223,3.223,0,0,0,0,3.223V106.777A3.223,3.223,0,0,0,3.223,110H106.777A3.223,3.223,0,0,0,110,106.777V3.223A3.223,3.223,0,0,0,106.777,0ZM97.109,93.887a3.223,3.223,0,0,1-3.223,3.223H16.113a3.223,3.223,0,0,1-3.223-3.223V16.113a3.223,3.223,0,0,1,3.223-3.223H93.887a3.223,3.223,0,0,1,3.223,3.223Z"/><g transform="translate(19.336 52.006)"><path d="M155.386,262.348c-3.044,2.688-6.494,5.734-14.1,5.734-7.921,0-13.6-7.056-19.1-13.88-4.625-5.743-9.407-11.681-14.646-12.1-4.382-.353-8.671,2.033-12.729,7.095A40.027,40.027,0,0,0,90,256.961v23.761h71.328V258.576A15.226,15.226,0,0,0,155.386,262.348Z" transform="translate(-90 -242.064)"/></g><g transform="translate(60.371 30.293)"><path d="M290.668,141a9.668,9.668,0,1,0,9.668,9.668A9.679,9.679,0,0,0,290.668,141Z" transform="translate(-281 -141)"/></g></g></svg>