<svg xmlns="http://www.w3.org/2000/svg" width="65.123" height="65.512" viewBox="0 0 65.123 65.512">
  <path id="screwdriver" d="M83.943,20.245a.833.833,0,0,0-1.069-.091L76.05,24.969a.834.834,0,0,0-.261.3l-1.721,3.352L50.619,52.07l-.821-.821a2.212,2.212,0,0,0-3.128,0l-.3.3a2.211,2.211,0,0,0-.156,2.954,5.42,5.42,0,0,1-5.4,5.1.862.862,0,0,0-.106.007,6.221,6.221,0,0,0-3.935,1.806L23.2,74.987a6.225,6.225,0,0,0,0,8.8,5.738,5.738,0,0,0,4.088,1.722,6.361,6.361,0,0,0,4.489-1.949L45.347,69.99a6.223,6.223,0,0,0,1.806-3.94.838.838,0,0,0,.006-.1A5.478,5.478,0,0,1,52,60.286a2.211,2.211,0,0,0,2.949-.16l.3-.3a2.215,2.215,0,0,0,0-3.128l-.821-.821,23.45-23.449,3.352-1.721a.834.834,0,0,0,.3-.261l4.816-6.825a.833.833,0,0,0-.092-1.069ZM37.02,63.517a2,2,0,0,1-.46,2.123l-8.814,8.814a2,2,0,0,1-2.123.46ZM31.845,81.136a2.01,2.01,0,0,1,.459-2.122L41.119,70.2a2.01,2.01,0,0,1,2.122-.459ZM45.494,65.9a4.555,4.555,0,0,1-1.033,2.587,3.68,3.68,0,0,0-4.52.532l-8.814,8.814a3.68,3.68,0,0,0-.521,4.539l-.011.011a4.311,4.311,0,0,1-6.222.226,4.56,4.56,0,0,1,0-6.449l.011-.011a3.674,3.674,0,0,0,4.539-.522l8.814-8.814a3.675,3.675,0,0,0,.533-4.521,4.555,4.555,0,0,1,2.59-1.032,7.092,7.092,0,0,0,6.8-5.3l2.89,2.89A7.277,7.277,0,0,0,45.494,65.9Zm8.576-7.255-.3.3a.56.56,0,0,1-.773,0L47.547,53.5a.547.547,0,0,1,0-.773l.3-.3a.56.56,0,0,1,.773,0l5.449,5.449a.547.547,0,0,1,0,.773ZM80.285,29.319,77,31.006a.835.835,0,0,0-.208.153L53.249,54.7,51.8,53.248,75.338,29.706a.83.83,0,0,0,.153-.208l1.687-3.286,6.084-4.293,1.317,1.317Z" transform="translate(-21.372 -20.001)"/>
</svg>
