<svg id="share" xmlns="http://www.w3.org/2000/svg" width="42.5" height="42.5" viewBox="0 0 42.5 42.5">
	<path id="Path_226" data-name="Path 226" d="M2.5,0A2.5,2.5,0,1,1,0,2.5,2.5,2.5,0,0,1,2.5,0Z" transform="translate(10 19)" fill="#384765"/>
	<path id="Path_225" data-name="Path 225" d="M2.5,0A2.5,2.5,0,1,1,0,2.5,2.5,2.5,0,0,1,2.5,0Z" transform="translate(25 26)" fill="#384765"/>
	<path id="Path_224" data-name="Path 224" d="M2.5,0A2.5,2.5,0,1,1,0,2.5,2.5,2.5,0,0,1,2.5,0Z" transform="translate(25 11)" fill="#384765"/>
	<path id="Path_209" data-name="Path 209" d="M21.25,0A21.25,21.25,0,1,0,42.5,21.25,21.333,21.333,0,0,0,21.25,0ZM17.484,21.556l6.348,3.794a5.112,5.112,0,1,1-1.181,2.195l-5.96-3.562a5,5,0,1,1-.3-5.842l6.193-3.46a5.046,5.046,0,1,1,1.069,2.255L17.43,20.413a2.916,2.916,0,0,1,.054,1.143Z" fill="#384765"/>
</svg>
