<svg xmlns="http://www.w3.org/2000/svg" width="46.912" height="38" viewBox="0 0 46.912 38">
  <g id="shoes" transform="translate(-33.13 -55.334)">
    <path id="Path_204" data-name="Path 204" d="M79.74,159.319a.8.8,0,0,0-.064-.537c-1.856-3.711-6.013-3.221-9.05-2.865a9.33,9.33,0,0,1-3.483.053,27.105,27.105,0,0,1-4.33-2.124,5.518,5.518,0,0,0-2.767-4.348,49.576,49.576,0,0,0-7.437-3.21.8.8,0,0,0-.822.194c-.963.963-1.928,1.84-2.866,2.606a9.315,9.315,0,0,1-7.635,2.044,6.3,6.3,0,0,1-3.984-2.109.8.8,0,0,0-1.43.191L34.7,152.741a9.093,9.093,0,0,0-1.241,7.512l-.043,4.688a.8.8,0,0,0,.8.81h12a.8.8,0,0,0,.8-.8v-1.32a91.147,91.147,0,0,1,13.2,1.848,15.806,15.806,0,0,0,2.881.436c.776.049,1.7.087,2.731.087,3.661,0,8.6-.473,12.535-2.566a3.2,3.2,0,0,0,1.4-4.049Zm-8.926-1.808c3.244-.381,5.7-.5,7.062,1.383a21.533,21.533,0,0,1-11.01,3.071,51.536,51.536,0,0,1-10.125-1.3,69.507,69.507,0,0,0-7.535-1.2,2.849,2.849,0,0,1,2.707-1.937h7.7a3.226,3.226,0,0,0,2.962-1.958,27.582,27.582,0,0,0,4.016,1.909,9.837,9.837,0,0,0,4.225.035Zm-34.72-3.971a.81.81,0,0,0,.094-.191l.8-2.4a9.042,9.042,0,0,0,4,1.755,10.91,10.91,0,0,0,8.954-2.377c.863-.7,1.745-1.5,2.627-2.36.371.131.941.338,1.622.6a11.816,11.816,0,0,0-.216,2.1.8.8,0,1,0,1.606,0,9.6,9.6,0,0,1,.133-1.488c.305.129.617.264.933.405a11.983,11.983,0,0,0-.253,2.291.8.8,0,0,0,1.606,0,9.756,9.756,0,0,1,.149-1.581c.381.191.755.388,1.111.59a3.916,3.916,0,0,1,1.971,3.41,1.617,1.617,0,0,1-1.616,1.615h-7.7a4.44,4.44,0,0,0-4.332,3.438c-.422-.017-.848-.028-1.278-.028H34.878A7.659,7.659,0,0,1,36.095,153.54Zm41.518,8.476c-4.863,2.587-11.7,2.468-14.411,2.294a14.261,14.261,0,0,1-2.592-.39,96.33,96.33,0,0,0-14.345-1.953.817.817,0,0,0-.6.217.8.8,0,0,0-.252.584v1.377H35.028l.029-3.211H46.3a51.536,51.536,0,0,1,10.125,1.3,52.755,52.755,0,0,0,10.437,1.334A22.955,22.955,0,0,0,78.4,160.46,1.556,1.556,0,0,1,77.613,162.016Z" transform="translate(0 -72.666)"/>
    <path id="Path_205" data-name="Path 205" d="M199.211,79.009a.8.8,0,0,0,1.135-1.135l-1.136-1.136a.8.8,0,1,0-1.135,1.135Z" transform="translate(-131.653 -16.921)"/>
    <path id="Path_206" data-name="Path 206" d="M179.412,59.21a.8.8,0,0,0,1.135-1.135l-1.136-1.136a.8.8,0,1,0-1.135,1.135Z" transform="translate(-115.827 -1.095)"/>
    <path id="Path_207" data-name="Path 207" d="M198.643,59.446a.8.8,0,0,0,.568-.235l1.136-1.136a.8.8,0,1,0-1.135-1.135l-1.136,1.136a.8.8,0,0,0,.568,1.37Z" transform="translate(-131.653 -1.095)"/>
    <path id="Path_208" data-name="Path 208" d="M178.844,79.245a.8.8,0,0,0,.568-.235l1.136-1.136a.8.8,0,0,0-1.135-1.135l-1.136,1.136a.8.8,0,0,0,.568,1.37Z" transform="translate(-115.827 -16.921)"/>
    <path id="Path_209" data-name="Path 209" d="M67.493,56.979a.823.823,0,1,0-.823-.823A.823.823,0,0,0,67.493,56.979Z" transform="translate(-26.808)"/>
    <path id="Path_210" data-name="Path 210" d="M259.493,56.979a.823.823,0,1,0-.823-.823A.823.823,0,0,0,259.493,56.979Z" transform="translate(-180.273)"/>
    <path id="Path_211" data-name="Path 211" d="M233.177,152.249a2.408,2.408,0,1,0-2.408-2.408A2.411,2.411,0,0,0,233.177,152.249Zm0-3.211a.8.8,0,1,1-.8.8A.8.8,0,0,1,233.177,149.038Z" transform="translate(-157.972 -73.614)"/>
    <path id="Path_212" data-name="Path 212" d="M70.769,93.84a2.408,2.408,0,1,0,2.408-2.408A2.411,2.411,0,0,0,70.769,93.84Zm2.408-.8a.8.8,0,1,1-.8.8A.8.8,0,0,1,73.177,93.038Z" transform="translate(-30.085 -28.853)"/>
  </g>
</svg>
