<svg xmlns="http://www.w3.org/2000/svg" width="14.932" height="16.033" viewBox="0 0 14.932 16.033"><defs><style>.trash-white{fill:#fff;}</style></defs><g transform="translate(0 0)"><g transform="translate(0 0)"><g transform="translate(0 0)"><path class="trash-white" d="M63.331,124.769a1.305,1.305,0,0,0,1.351,1.168h5.771a1.328,1.328,0,0,0,1.374-1.191l.939-9.8H62.186Z" transform="translate(-60.01 -109.905)"/><path class="trash-white" d="M27.028,2.061h-4.26V1.328A1.283,1.283,0,0,0,21.533,0H18.577a1.282,1.282,0,0,0-1.306,1.259q0,.035,0,.07v.733h-4.26a.458.458,0,0,0,0,.916H27.028a.458.458,0,1,0,0-.916Zm-5.176-.733v.733H18.188V1.328a.366.366,0,0,1,.389-.412h2.886a.366.366,0,0,1,.391.34A.362.362,0,0,1,21.852,1.328Z" transform="translate(-12.554 0)"/></g></g></g></svg>