<svg id="twitter" xmlns="http://www.w3.org/2000/svg" width="41.158" height="41.158" viewBox="0 0 41.158 41.158">
  <ellipse id="Ellipse_4" data-name="Ellipse 4" cx="20.579" cy="20.579" rx="20.579" ry="20.579" transform="translate(0 0)" fill="#55acee"/>
  <g id="Group_80" data-name="Group 80" transform="translate(9.208 12.483)">
    <path id="Path_39" data-name="Path 39" d="M49.079,36.335a9.814,9.814,0,0,1-2.825.774,4.932,4.932,0,0,0,2.163-2.721,9.847,9.847,0,0,1-3.124,1.193,4.923,4.923,0,0,0-8.382,4.487,13.963,13.963,0,0,1-10.139-5.14A4.924,4.924,0,0,0,28.294,41.5a4.884,4.884,0,0,1-2.228-.616c0,.021,0,.042,0,.062a4.922,4.922,0,0,0,3.946,4.823,4.938,4.938,0,0,1-2.221.085,4.924,4.924,0,0,0,4.6,3.416A9.93,9.93,0,0,1,25.1,51.3,13.989,13.989,0,0,0,46.638,39.517c0-.213,0-.426-.014-.636a9.975,9.975,0,0,0,2.455-2.546Z" transform="translate(-25.103 -34.028)" fill="#f1f2f2"/>
  </g>
</svg>
