<svg xmlns="http://www.w3.org/2000/svg" width="38.5" height="38.5" viewBox="0 0 38.5 38.5">
  <g id="XMLID_476_" transform="translate(0 0)">
    <path id="XMLID_503_" d="M177.632,14.98a1.3,1.3,0,0,0,0-1.836L175.684,11.2a1.3,1.3,0,0,0-1.648-.156l-4.1,2.784L172.708,9.7a1.3,1.3,0,0,0-.16-1.641l-4.226-4.226a1.3,1.3,0,0,0-1.481-.252l-.731.352.35-.776a1.3,1.3,0,0,0-.266-1.451L164.868.38a1.3,1.3,0,0,0-1.836,0l-10.3,10.3,14.6,14.6Z" transform="translate(-139.512)"/>
    <path id="XMLID_1199_" d="M11.3,145.622,8.316,148.6a1.3,1.3,0,0,0,0,1.836l2.829,2.829a2.529,2.529,0,0,1-.431,3.922c-8.314,5.3-9.089,6.074-9.343,6.329A4.687,4.687,0,0,0,8,170.15c.255-.255,1.03-1.03,6.329-9.343a2.533,2.533,0,0,1,3.922-.431L21.08,163.2a1.3,1.3,0,0,0,1.836,0l2.983-2.983ZM6.062,168.053a1.835,1.835,0,1,1,0-2.595A1.835,1.835,0,0,1,6.062,168.053Z" transform="translate(0 -133.02)"/>
  </g>
</svg>
