<svg xmlns="http://www.w3.org/2000/svg" width="43.789" height="43.789" viewBox="0 0 43.789 43.789">
  <g id="fashion" transform="translate(0 -0.002)">
    <g id="Group_418" data-name="Group 418" transform="translate(0 0.002)">
      <g id="Group_417" data-name="Group 417" transform="translate(0)">
        <path id="Path_233" data-name="Path 233" d="M43.582,15.747,36.519,8.684a.706.706,0,0,0-.373-.195L28.378,7.077a.706.706,0,0,0-.821.568.7.7,0,0,0-.011.126,4.193,4.193,0,0,1-.06.67L22.6,7.22V6.994a3.531,3.531,0,1,0-4.238-3.461h1.413a2.119,2.119,0,1,1,2.119,2.119.706.706,0,0,0-.706.706v.861L16.3,8.441a4.193,4.193,0,0,1-.06-.67.706.706,0,0,0-.254-.542.69.69,0,0,0-.579-.152L7.643,8.489a.706.706,0,0,0-.373.195L.207,15.747a.706.706,0,0,0,0,1l5.65,5.65a.706.706,0,0,0,1,0l1.619-1.619v4.652H3.532a3.521,3.521,0,0,0-2.1,6.356,3.5,3.5,0,0,0,0,5.65,3.521,3.521,0,0,0,2.1,6.356H28.957a.706.706,0,0,0,.5-.207l5.65-5.65a.7.7,0,0,0,.2-.5h.006V20.776L36.933,22.4a.706.706,0,0,0,1,0l5.65-5.65A.706.706,0,0,0,43.582,15.747ZM21.895,8.5l5.136,1.284a5.762,5.762,0,0,1-5.136,2.844,5.762,5.762,0,0,1-5.136-2.844ZM1.413,28.959A2.119,2.119,0,0,1,3.532,26.84H19.07a2.119,2.119,0,0,1,0,4.238H3.532A2.119,2.119,0,0,1,1.413,28.959Zm0,5.65a2.119,2.119,0,0,1,2.119-2.119H19.07a2.119,2.119,0,0,1,0,4.238H3.532A2.119,2.119,0,0,1,1.413,34.609ZM19.07,42.378H3.532a2.119,2.119,0,0,1,0-4.238H19.07a2.119,2.119,0,0,1,0,4.238Zm10.594-1V38.141H32.9ZM37.433,20.9l-4.445-4.445-1,1L33.9,19.364V36.728H28.957a.706.706,0,0,0-.706.706v4.944H21.876a3.483,3.483,0,0,0-.629-4.886l-.077-.058a3.5,3.5,0,0,0,0-5.65,3.521,3.521,0,0,0-2.1-6.356H9.888V19.364L11.8,17.452l-1-1L6.357,20.9,1.705,16.246,8.113,9.839l6.78-1.232c.462,3.062,3.425,5.433,7,5.433s6.539-2.37,7-5.433l6.78,1.232,6.41,6.407Z" transform="translate(0 -0.002)"/>
        <rect id="Rectangle_67" data-name="Rectangle 67" width="17" height="2" transform="translate(3 28)"/>
        <rect id="Rectangle_68" data-name="Rectangle 68" width="16" height="1" transform="translate(3 34)"/>
        <rect id="Rectangle_69" data-name="Rectangle 69" width="16" height="2" transform="translate(3 39)"/>
      </g>
    </g>
  </g>
</svg>
