<svg xmlns="http://www.w3.org/2000/svg" width="40.966" height="38.405" viewBox="0 0 40.966 38.405"><defs><style>.cube{fill:#db440d;}</style></defs><g transform="translate(9.681 0)"><g transform="translate(0 0)"><path class="cube" d="M141.977,21.187l-.016-.009-9.6-5.041a1.2,1.2,0,0,0-1.116,0l-9.6,5.041A1.205,1.205,0,0,0,121,22.241V32.8a1.2,1.2,0,0,0,.564,1.018l9.6,6a1.2,1.2,0,0,0,1.272,0l9.6-6A1.2,1.2,0,0,0,142.6,32.8V22.241A1.2,1.2,0,0,0,141.977,21.187ZM130.6,36.638l-7.2-4.5V24.361l7.2,4.321ZM131.8,26.6l-7.152-4.291,7.152-3.755,7.152,3.755Zm8.4,5.535-7.2,4.5V28.681l7.2-4.321Z" transform="translate(-121 -16)"/></g></g><g transform="translate(38.565 4.801)"><path class="cube" d="M483.2,76a1.2,1.2,0,0,0-1.2,1.2v2.4a1.2,1.2,0,1,0,2.4,0V77.2A1.2,1.2,0,0,0,483.2,76Z" transform="translate(-482 -76)"/></g><g transform="translate(38.565 12.002)"><path class="cube" d="M483.2,166a1.2,1.2,0,0,0-1.2,1.2v2.4a1.2,1.2,0,1,0,2.4,0v-2.4A1.2,1.2,0,0,0,483.2,166Z" transform="translate(-482 -166)"/></g><g transform="translate(38.565 19.203)"><path class="cube" d="M483.2,256a1.2,1.2,0,0,0-1.2,1.2v2.4a1.2,1.2,0,1,0,2.4,0v-2.4A1.2,1.2,0,0,0,483.2,256Z" transform="translate(-482 -256)"/></g><g transform="translate(0 26.404)"><path class="cube" d="M39.765,346a1.2,1.2,0,0,0-1.2,1.2v3.265l-17.793-4.43a1.2,1.2,0,0,0-.58,0L2.4,350.465V347.2a1.2,1.2,0,1,0-2.4,0V352a1.206,1.206,0,0,0,.91,1.165l19.283,4.8a1.2,1.2,0,0,0,.58,0l19.283-4.8a1.205,1.205,0,0,0,.91-1.165v-4.8A1.2,1.2,0,0,0,39.765,346Zm-19.283,9.565L6.168,352l14.315-3.564L34.8,352Z" transform="translate(0 -346)"/></g><g transform="translate(0 4.801)"><path class="cube" d="M1.2,76A1.2,1.2,0,0,0,0,77.2v2.4a1.2,1.2,0,1,0,2.4,0V77.2A1.2,1.2,0,0,0,1.2,76Z" transform="translate(0 -76)"/></g><g transform="translate(0 12.002)"><path class="cube" d="M1.2,166A1.2,1.2,0,0,0,0,167.2v2.4a1.2,1.2,0,1,0,2.4,0v-2.4A1.2,1.2,0,0,0,1.2,166Z" transform="translate(0 -166)"/></g><g transform="translate(0 19.203)"><path class="cube" d="M1.2,256A1.2,1.2,0,0,0,0,257.2v2.4a1.2,1.2,0,1,0,2.4,0v-2.4A1.2,1.2,0,0,0,1.2,256Z" transform="translate(0 -256)"/></g><g transform="translate(4.801 0)"><g transform="translate(0 0)"><path class="cube" d="M61.2,16A1.2,1.2,0,0,0,60,17.2v2.4a1.2,1.2,0,1,0,2.4,0V17.2A1.2,1.2,0,0,0,61.2,16Z" transform="translate(-60 -16)"/></g></g><g transform="translate(4.801 7.201)"><path class="cube" d="M61.2,106a1.2,1.2,0,0,0-1.2,1.2v2.4a1.2,1.2,0,0,0,2.4,0v-2.4A1.2,1.2,0,0,0,61.2,106Z" transform="translate(-60 -106)"/></g><g transform="translate(4.801 14.402)"><path class="cube" d="M61.2,196a1.2,1.2,0,0,0-1.2,1.2v2.4a1.2,1.2,0,0,0,2.4,0v-2.4A1.2,1.2,0,0,0,61.2,196Z" transform="translate(-60 -196)"/></g><g transform="translate(4.801 21.603)"><path class="cube" d="M61.2,286a1.2,1.2,0,0,0-1.2,1.2v2.4a1.2,1.2,0,1,0,2.4,0v-2.4A1.2,1.2,0,0,0,61.2,286Z" transform="translate(-60 -286)"/></g><g transform="translate(33.765 0)"><g transform="translate(0 0)"><path class="cube" d="M423.2,16a1.2,1.2,0,0,0-1.2,1.2v2.4a1.2,1.2,0,1,0,2.4,0V17.2A1.2,1.2,0,0,0,423.2,16Z" transform="translate(-422 -16)"/></g></g><g transform="translate(33.765 7.201)"><path class="cube" d="M423.2,106a1.2,1.2,0,0,0-1.2,1.2v2.4a1.2,1.2,0,1,0,2.4,0v-2.4A1.2,1.2,0,0,0,423.2,106Z" transform="translate(-422 -106)"/></g><g transform="translate(33.765 14.402)"><path class="cube" d="M423.2,196a1.2,1.2,0,0,0-1.2,1.2v2.4a1.2,1.2,0,1,0,2.4,0v-2.4A1.2,1.2,0,0,0,423.2,196Z" transform="translate(-422 -196)"/></g><g transform="translate(33.765 21.603)"><path class="cube" d="M423.2,286a1.2,1.2,0,0,0-1.2,1.2v2.4a1.2,1.2,0,1,0,2.4,0v-2.4A1.2,1.2,0,0,0,423.2,286Z" transform="translate(-422 -286)"/></g></svg>