<svg xmlns="http://www.w3.org/2000/svg" width="15.25" height="15.25" viewBox="0 0 15.25 15.25"><defs><style>.a{fill:#db440d;}</style></defs><g transform="translate(-0.002)"><g transform="translate(0.002)"><path class="a" d="M14.337.915A3,3,0,0,0,12.132,0H3.121a3,3,0,0,0-2.2.915A3,3,0,0,0,0,3.119v9.011a3.005,3.005,0,0,0,.915,2.2,3,3,0,0,0,2.2.915h9.011a3.125,3.125,0,0,0,3.119-3.119V3.119A3.006,3.006,0,0,0,14.337.915Zm-.471,11.215a1.738,1.738,0,0,1-1.733,1.733H3.121A1.669,1.669,0,0,1,1.9,13.355a1.669,1.669,0,0,1-.509-1.224V3.119A1.669,1.669,0,0,1,1.9,1.9a1.669,1.669,0,0,1,1.224-.509h9.011a1.669,1.669,0,0,1,1.224.509,1.669,1.669,0,0,1,.509,1.224v9.011Z" transform="translate(-0.002)"/><path class="a" d="M82.45,182.731H73.439a.333.333,0,0,0-.347.346v.693a.333.333,0,0,0,.347.346H82.45a.333.333,0,0,0,.347-.346v-.693a.333.333,0,0,0-.347-.346Z" transform="translate(-70.319 -175.799)"/></g></g></svg>