<svg xmlns="http://www.w3.org/2000/svg" width="35.984" height="63.665" viewBox="0 0 35.984 63.665">
  <g id="multimeter" transform="translate(-111.309)">
    <path id="Path_455" data-name="Path 455" d="M139.914,0H118.687a7.37,7.37,0,0,0-7.378,7.345V27.976a9.376,9.376,0,0,0,1.476,5.053,5.653,5.653,0,0,1,.89,3.046V50.886a12.827,12.827,0,0,0,12.846,12.779h5.559a12.827,12.827,0,0,0,12.846-12.779V36.074a5.653,5.653,0,0,1,.89-3.046,9.376,9.376,0,0,0,1.476-5.053V7.345A7.37,7.37,0,0,0,139.914,0Zm3.648,27.976a5.652,5.652,0,0,1-.89,3.046,9.377,9.377,0,0,0-1.476,5.053V50.886a9.093,9.093,0,0,1-9.115,9.049h-5.559a9.093,9.093,0,0,1-9.115-9.049V36.074a9.377,9.377,0,0,0-1.476-5.053,5.652,5.652,0,0,1-.89-3.046V7.345a3.636,3.636,0,0,1,3.648-3.615h21.227a3.636,3.636,0,0,1,3.648,3.615V27.976Z"/>
    <path id="Path_456" data-name="Path 456" d="M190.506,60.974H173.174a1.865,1.865,0,0,0-1.865,1.865v9.679a1.865,1.865,0,0,0,1.865,1.865h17.332a1.865,1.865,0,0,0,1.865-1.865V62.839A1.865,1.865,0,0,0,190.506,60.974Zm-1.865,9.679h-13.6V64.7h13.6Z" transform="translate(-52.539 -53.392)"/>
    <path id="Path_457" data-name="Path 457" d="M175.784,202.544a1.865,1.865,0,0,0,0-3.73h-2.61a1.865,1.865,0,0,0,0,3.73Z" transform="translate(-52.539 -174.092)"/>
    <path id="Path_458" data-name="Path 458" d="M193.849,263.957a8.826,8.826,0,1,0,8.826,8.826A8.836,8.836,0,0,0,193.849,263.957Zm0,13.921a5.1,5.1,0,1,1,5.1-5.1,5.1,5.1,0,0,1-5.1,5.1Z" transform="translate(-64.548 -231.135)"/>
    <circle id="Ellipse_16" data-name="Ellipse 16" cx="1.865" cy="1.865" r="1.865" transform="translate(123.705 53.15)"/>
    <circle id="Ellipse_17" data-name="Ellipse 17" cx="1.865" cy="1.865" r="1.865" transform="translate(131.166 53.15)"/>
  </g>
</svg>
