<svg xmlns="http://www.w3.org/2000/svg" width="20" height="18.589" viewBox="0 0 20 18.589"><defs><style>.print{fill:#fff;}</style></defs><g transform="translate(0 -18.065)"><g transform="translate(0 18.065)"><g transform="translate(0 0)"><path class="print" d="M18.444,22.59H16.323V18.732a.667.667,0,0,0-.667-.667H4.343a.667.667,0,0,0-.667.667V22.59H1.556A1.557,1.557,0,0,0,0,24.146v6.707a1.557,1.557,0,0,0,1.556,1.556H3.677v3.579a.667.667,0,0,0,.667.667H15.656a.667.667,0,0,0,.667-.667V32.408h2.121A1.557,1.557,0,0,0,20,30.853V24.146A1.557,1.557,0,0,0,18.444,22.59ZM5.01,19.4h9.98V22.59H5.01ZM14.99,35.32H5.01V29.866h9.98C14.99,30.031,14.99,35.2,14.99,35.32Zm3.677-4.467a.222.222,0,0,1-.222.222H16.323V29.2a.667.667,0,0,0-.667-.667H4.344a.667.667,0,0,0-.667.667v1.876H1.556a.222.222,0,0,1-.222-.222V24.146a.222.222,0,0,1,.222-.222H18.444a.222.222,0,0,1,.222.222Z" transform="translate(0 -18.065)"/></g></g><g transform="translate(13.293 25.171)"><g transform="translate(0 0)"><path class="print" d="M342.662,199.988h-1.7a.667.667,0,1,0,0,1.333h1.7a.667.667,0,1,0,0-1.333Z" transform="translate(-340.298 -199.988)"/></g></g><g transform="translate(6.444 32.978)"><path class="print" d="M171.422,399.834h-5.778a.667.667,0,0,0,0,1.333h5.778a.667.667,0,0,0,0-1.333Z" transform="translate(-164.977 -399.834)"/></g><g transform="translate(6.444 30.875)"><g transform="translate(0 0)"><path class="print" d="M171.422,346.006h-5.778a.667.667,0,1,0,0,1.333h5.778a.667.667,0,0,0,0-1.333Z" transform="translate(-164.977 -346.006)"/></g></g></g></svg>