<svg xmlns="http://www.w3.org/2000/svg" width="40.883" height="37.683" viewBox="0 0 40.883 37.683">
  <g id="shoe" transform="translate(0 -20.038)">
    <g id="Group_406" data-name="Group 406" transform="translate(0 20.038)">
      <g id="Group_405" data-name="Group 405" transform="translate(0 0)">
        <path id="Path_200" data-name="Path 200" d="M40.847,29.14a11.346,11.346,0,0,0-2.676-6.98,7.837,7.837,0,0,0-2.8-2.083.6.6,0,0,0-.586.094c-.185.149-4.589,3.736-9.74,12.32-.606,1.011-1.141,1.921-1.613,2.724a.6.6,0,0,0,1.035.608c.471-.8,1-1.709,1.608-2.715A51.534,51.534,0,0,1,35.26,21.346c.967.508,3.9,2.453,4.361,7.511a17.85,17.85,0,0,0-4.734,3.994c-3.236.247-5.055,4.849-6.816,9.3-1.489,3.769-3.029,7.665-5.111,7.966H17.684l-1.931-6.275c3.786-.619,5.076-1.935,7.567-6.082a.6.6,0,0,0-1.029-.618c-2.331,3.881-3.357,4.993-6.895,5.541-.1-.324-.157-.733-.526-.857l-1.92-.64a.61.61,0,0,0-.38,0l-1.92.64a.6.6,0,0,0-.384.393l-.327,1.062A17.424,17.424,0,0,0,3.274,46.24C1.193,47.754,0,49.387,0,50.721a.6.6,0,0,0,.6.6H23a.612.612,0,0,0,.075,0c2.805-.351,4.412-4.416,6.112-8.72,1.531-3.874,3.109-7.869,5.374-8.477v16.6a.6.6,0,0,0,.6.6h1.92a.6.6,0,0,0,.6-.6q0-.48,0-.959,0-.8.018-1.6c.163-9.381,1.235-11.3,2.034-12.739.614-1.1,1.145-2.055,1.145-5.186C40.883,29.874,40.878,29.5,40.847,29.14ZM1.329,50.121A7.753,7.753,0,0,1,3.98,47.21,16.4,16.4,0,0,1,9.535,44.6l-1.7,5.518Zm10.832,0H9.093l2.231-7.249.837-.279Zm1.2,0V42.593l.837.279,2.231,7.249H13.361Zm23.123,0h-.721V48.147H36.5C36.493,48.772,36.486,49.429,36.484,50.121Zm2.206-15.28c-.869,1.56-1.926,3.459-2.16,12.106h-.768V33.674a16.661,16.661,0,0,1,3.92-3.451c0,.005,0,.011,0,.016C39.683,33.059,39.245,33.845,38.69,34.841Z" transform="translate(0 -20.038)"/>
      </g>
    </g>
    <g id="Group_408" data-name="Group 408" transform="translate(26.242 51.401)">
      <g id="Group_407" data-name="Group 407">
        <path id="Path_201" data-name="Path 201" d="M334.362,415.366a1.962,1.962,0,0,1-1.96-1.96.6.6,0,1,0-1.2,0,1.962,1.962,0,0,1-1.96,1.96.6.6,0,1,0,0,1.2,1.962,1.962,0,0,1,1.96,1.96.6.6,0,1,0,1.2,0,1.962,1.962,0,0,1,1.96-1.96.6.6,0,1,0,0-1.2Zm-2.56,1.309a3.19,3.19,0,0,0-.709-.709,3.19,3.19,0,0,0,.709-.709,3.19,3.19,0,0,0,.709.709A3.193,3.193,0,0,0,331.8,416.676Z" transform="translate(-328.641 -412.806)"/>
      </g>
    </g>
    <g id="Group_410" data-name="Group 410" transform="translate(1.28 30.919)">
      <g id="Group_409" data-name="Group 409" transform="translate(0 0)">
        <path id="Path_202" data-name="Path 202" d="M21.751,158.865a1.962,1.962,0,0,1-1.96-1.96.6.6,0,0,0-1.2,0,1.962,1.962,0,0,1-1.96,1.96.6.6,0,0,0,0,1.2,1.962,1.962,0,0,1,1.96,1.96.6.6,0,1,0,1.2,0,1.962,1.962,0,0,1,1.96-1.96.6.6,0,1,0,0-1.2Zm-2.56,1.309a3.19,3.19,0,0,0-.709-.709,3.189,3.189,0,0,0,.709-.709,3.19,3.19,0,0,0,.709.709A3.189,3.189,0,0,0,19.19,160.175Z" transform="translate(-16.03 -156.305)"/>
      </g>
    </g>
    <g id="Group_412" data-name="Group 412" transform="translate(16.641 20.678)">
      <g id="Group_411" data-name="Group 411" transform="translate(0 0)">
        <path id="Path_203" data-name="Path 203" d="M215.406,31.254a2.6,2.6,0,0,1-2.6-2.6.6.6,0,1,0-1.2,0,2.6,2.6,0,0,1-2.6,2.6.6.6,0,1,0,0,1.2,2.6,2.6,0,0,1,2.6,2.6.6.6,0,1,0,1.2,0,2.6,2.6,0,0,1,2.6-2.6.6.6,0,0,0,0-1.2Zm-3.2,1.753a3.834,3.834,0,0,0-1.153-1.153,3.833,3.833,0,0,0,1.153-1.153,3.833,3.833,0,0,0,1.153,1.153A3.833,3.833,0,0,0,212.205,33.007Z" transform="translate(-208.405 -28.054)"/>
      </g>
    </g>
  </g>
</svg>
