<svg id="win" xmlns="http://www.w3.org/2000/svg" width="72.979" height="73.017" viewBox="0 0 72.979 73.017">
  <path id="Path_457" data-name="Path 457" d="M34.55,78.453a4.562,4.562,0,0,0-4.561,4.561,10.347,10.347,0,0,1-2.618,6.9,7.982,7.982,0,1,0-15.632,0,10.388,10.388,0,0,1-2.617-6.9,4.561,4.561,0,1,0-9.123,0,19.519,19.519,0,0,0,11.164,17.662v14.645c0,.007,0,.014,0,.022v23.474a1.425,1.425,0,0,0,2.851,0V116.769h12.9v16.347a1.426,1.426,0,1,0,2.851,0V99.689a19.653,19.653,0,0,0,3.617-2.853,19.423,19.423,0,0,0,5.734-13.822,4.566,4.566,0,0,0-4.561-4.561ZM19.556,83.161a5.131,5.131,0,1,1-5.132,5.132A5.137,5.137,0,0,1,19.556,83.161ZM31.362,94.82a16.835,16.835,0,0,1-3.72,2.807,1.425,1.425,0,0,0-.733,1.246v15.046h-12.9V99.752a1.426,1.426,0,0,0-.876-1.315A16.681,16.681,0,0,1,2.851,83.014a1.71,1.71,0,0,1,3.421,0A13.3,13.3,0,0,0,19.556,96.3h0A13.3,13.3,0,0,0,32.84,83.014a1.71,1.71,0,0,1,3.421,0,16.593,16.593,0,0,1-4.9,11.806Zm0,0" transform="translate(0 -67.264)" fill="#7e7e7e"/>
  <path id="Path_458" data-name="Path 458" d="M190.117,491.75a1.425,1.425,0,1,0,1.008.417A1.433,1.433,0,0,0,190.117,491.75Zm0,0" transform="translate(-161.783 -421.621)" fill="#7e7e7e"/>
  <path id="Path_459" data-name="Path 459" d="M135.023,387.719a1.426,1.426,0,0,0-1.426,1.426v14.873a1.425,1.425,0,1,0,2.851,0V389.145A1.425,1.425,0,0,0,135.023,387.719Zm0,0" transform="translate(-114.545 -332.426)" fill="#7e7e7e"/>
  <path id="Path_460" data-name="Path 460" d="M272.031,215.215a4.561,4.561,0,0,0-4.561,4.561,10.347,10.347,0,0,1-2.617,6.9,7.982,7.982,0,1,0-15.633,0,10.388,10.388,0,0,1-2.617-6.9,4.561,4.561,0,1,0-9.123,0,19.531,19.531,0,0,0,.682,5.127,1.425,1.425,0,0,0,2.75-.748,16.7,16.7,0,0,1-.582-4.379,1.71,1.71,0,1,1,3.421,0,13.3,13.3,0,0,0,13.284,13.284h0a13.3,13.3,0,0,0,13.284-13.285,1.71,1.71,0,0,1,3.421,0,16.594,16.594,0,0,1-4.9,11.806,16.786,16.786,0,0,1-3.719,2.806,1.427,1.427,0,0,0-.733,1.246V250.68h-12.9V236.514a1.426,1.426,0,0,0-.876-1.315,16.738,16.738,0,0,1-3.889-2.286,1.425,1.425,0,1,0-1.762,2.241,19.6,19.6,0,0,0,3.676,2.283v14.646c0,.007,0,.014,0,.022v3.971a1.425,1.425,0,0,0,2.851,0v-2.546h12.9v2.546a1.425,1.425,0,0,0,2.851,0V236.452a19.641,19.641,0,0,0,3.618-2.854,19.424,19.424,0,0,0,5.734-13.822,4.566,4.566,0,0,0-4.561-4.561Zm-14.995,4.708a5.131,5.131,0,1,1-5.131,5.132A5.137,5.137,0,0,1,257.036,219.923Zm0,0" transform="translate(-203.613 -184.523)" fill="#7e7e7e"/>
  <path id="Path_461" data-name="Path 461" d="M261.792,308.8a1.426,1.426,0,1,0-2.363,1.6l.016.024a1.425,1.425,0,1,0,2.371-1.582Zm0,0" transform="translate(-222.223 -264.226)" fill="#7e7e7e"/>
  <path id="Path_462" data-name="Path 462" d="M439.2,100.768a1.425,1.425,0,0,0,1.426-1.425V97.375a1.426,1.426,0,0,0-2.851,0v1.969A1.425,1.425,0,0,0,439.2,100.768Zm0,0" transform="translate(-375.343 -82.266)" fill="#7e7e7e"/>
  <path id="Path_463" data-name="Path 463" d="M439.2,166.924a1.426,1.426,0,0,0,1.426-1.426V163.53a1.426,1.426,0,0,0-2.851,0V165.5A1.426,1.426,0,0,0,439.2,166.924Zm0,0" transform="translate(-375.343 -138.987)" fill="#7e7e7e"/>
  <path id="Path_464" data-name="Path 464" d="M465.374,138.78h1.969a1.425,1.425,0,0,0,0-2.851h-1.969a1.425,1.425,0,1,0,0,2.851Zm0,0" transform="translate(-397.785 -116.545)" fill="#7e7e7e"/>
  <path id="Path_465" data-name="Path 465" d="M399.218,138.78h1.969a1.425,1.425,0,1,0,0-2.851h-1.969a1.425,1.425,0,1,0,0,2.851Zm0,0" transform="translate(-341.064 -116.545)" fill="#7e7e7e"/>
  <path id="Path_466" data-name="Path 466" d="M335.253,4.819a1.425,1.425,0,0,0,1.425-1.426V1.426a1.425,1.425,0,1,0-2.851,0V3.394A1.425,1.425,0,0,0,335.253,4.819Zm0,0" transform="translate(-286.221 0)" fill="#7e7e7e"/>
  <path id="Path_467" data-name="Path 467" d="M335.253,70.972a1.425,1.425,0,0,0,1.425-1.426V67.578a1.425,1.425,0,1,0-2.851,0v1.969A1.425,1.425,0,0,0,335.253,70.972Zm0,0" transform="translate(-286.221 -56.718)" fill="#7e7e7e"/>
  <path id="Path_468" data-name="Path 468" d="M361.429,42.831H363.4a1.425,1.425,0,1,0,0-2.851h-1.969a1.425,1.425,0,0,0,0,2.851Zm0,0" transform="translate(-308.664 -34.279)" fill="#7e7e7e"/>
  <path id="Path_469" data-name="Path 469" d="M295.273,42.831h1.969a1.425,1.425,0,1,0,0-2.851h-1.969a1.425,1.425,0,1,0,0,2.851Zm0,0" transform="translate(-251.942 -34.279)" fill="#7e7e7e"/>
</svg>
